<svg width="72" height="72" viewBox="0 0 72 72" fill="none" xmlns="http://www.w3.org/2000/svg">
<path fill-rule="evenodd" clip-rule="evenodd" d="M49.5 60.75H22.5C20.7098 60.75 18.9929 60.0388 17.727 58.773C16.4612 57.5071 15.75 55.7902 15.75 54V18C15.75 16.2098 16.4612 14.4929 17.727 13.227C18.9929 11.9612 20.7098 11.25 22.5 11.25H34.9065C35.7934 11.2502 36.6715 11.4252 37.4908 11.7649C38.31 12.1046 39.0543 12.6025 39.681 13.23L54.2745 27.819C55.5391 29.0844 56.2496 30.8 56.25 32.589V54C56.25 55.7902 55.5388 57.5071 54.273 58.773C53.0071 60.0388 51.2902 60.75 49.5 60.75ZM59.0445 23.0445C60.2987 24.2983 61.2936 25.787 61.9723 27.4255C62.651 29.0639 63.0002 30.82 63 32.5935V54C63 57.5804 61.5777 61.0142 59.0459 63.5459C56.5142 66.0777 53.0804 67.5 49.5 67.5H22.5C18.9196 67.5 15.4858 66.0777 12.9541 63.5459C10.4223 61.0142 9 57.5804 9 54V18C9 14.4196 10.4223 10.9858 12.9541 8.45406C15.4858 5.92232 18.9196 4.5 22.5 4.5H34.9065C36.68 4.49979 38.4361 4.84901 40.0745 5.52771C41.713 6.20641 43.2017 7.20128 44.4555 8.4555L59.0445 23.0445ZM48.825 34.425C49.0909 34.0704 49.2844 33.667 49.3944 33.2376C49.5044 32.8083 49.5288 32.3615 49.4661 31.9227C49.4034 31.4839 49.2549 31.0618 49.0291 30.6805C48.8033 30.2991 48.5046 29.9659 48.15 29.7C47.7954 29.4341 47.392 29.2406 46.9626 29.1306C46.5333 29.0206 46.0865 28.9962 45.6477 29.0589C45.2089 29.1216 44.7868 29.2701 44.4055 29.4959C44.0241 29.7217 43.6909 30.0204 43.425 30.375L33.6105 43.461L28.26 38.115C27.6202 37.5188 26.774 37.1943 25.8996 37.2097C25.0253 37.2251 24.1911 37.5793 23.5727 38.1977C22.9543 38.8161 22.6001 39.6503 22.5847 40.5247C22.5693 41.399 22.8938 42.2452 23.49 42.885L31.59 50.985C31.9318 51.3267 32.343 51.5911 32.7958 51.7601C33.2486 51.9292 33.7325 51.999 34.2146 51.9649C34.6967 51.9307 35.1659 51.7934 35.5904 51.5623C36.0149 51.3311 36.3848 51.0115 36.675 50.625L48.825 34.425Z" fill="#54B848"/>
</svg>
