<svg width="32" height="32" viewBox="0 0 32 32" fill="none" xmlns="http://www.w3.org/2000/svg">
<path d="M23.2541 12.4404H21.7874V8.53374C21.7874 6.99902 21.1777 5.52716 20.0925 4.44195C19.0073 3.35674 17.5354 2.74707 16.0007 2.74707C14.466 2.74707 12.9941 3.35674 11.9089 4.44195C10.8237 5.52716 10.2141 6.99902 10.2141 8.53374V12.4404H8.7474C7.86334 12.4404 7.01549 12.7916 6.39037 13.4167C5.76525 14.0418 5.41406 14.8897 5.41406 15.7737V25.9204C5.41653 26.8037 5.76851 27.6501 6.39309 28.2747C7.01768 28.8993 7.8641 29.2513 8.7474 29.2537H23.2541C24.1374 29.2513 24.9838 28.8993 25.6084 28.2747C26.233 27.6501 26.5849 26.8037 26.5874 25.9204V15.7737C26.5874 14.8897 26.2362 14.0418 25.6111 13.4167C24.986 12.7916 24.1381 12.4404 23.2541 12.4404ZM11.5474 8.53374C11.5474 7.35264 12.0166 6.21992 12.8517 5.38475C13.6869 4.54959 14.8196 4.0804 16.0007 4.0804C17.1818 4.0804 18.3146 4.54959 19.1497 5.38475C19.9849 6.21992 20.4541 7.35264 20.4541 8.53374V12.4404H11.5474V8.53374ZM25.2541 25.9204C25.2506 26.4498 25.0387 26.9564 24.6644 27.3308C24.2901 27.7051 23.7834 27.9169 23.2541 27.9204H8.7474C8.21804 27.9169 7.71136 27.7051 7.33704 27.3308C6.96273 26.9564 6.75089 26.4498 6.7474 25.9204V15.7737C6.7474 15.2433 6.95811 14.7346 7.33318 14.3595C7.70826 13.9845 8.21696 13.7737 8.7474 13.7737H23.2541C23.7845 13.7737 24.2932 13.9845 24.6683 14.3595C25.0434 14.7346 25.2541 15.2433 25.2541 15.7737V25.9204Z" fill="#64748B"/>
<path d="M17.3327 19.9329C17.334 20.1662 17.2729 20.3955 17.1557 20.5972C17.0385 20.7988 16.8694 20.9654 16.666 21.0796V23.0796C16.666 23.2564 16.5958 23.426 16.4708 23.551C16.3458 23.676 16.1762 23.7463 15.9994 23.7463C15.8226 23.7463 15.653 23.676 15.528 23.551C15.4029 23.426 15.3327 23.2564 15.3327 23.0796V21.0796C15.1294 20.9654 14.9603 20.7988 14.8431 20.5972C14.7258 20.3955 14.6647 20.1662 14.666 19.9329C14.666 19.5793 14.8065 19.2402 15.0566 18.9901C15.3066 18.7401 15.6457 18.5996 15.9994 18.5996C16.353 18.5996 16.6921 18.7401 16.9422 18.9901C17.1922 19.2402 17.3327 19.5793 17.3327 19.9329Z" fill="#64748B"/>
</svg>
