<svg width="30" height="30" viewBox="0 0 30 30" fill="none" xmlns="http://www.w3.org/2000/svg">
<g clip-path="url(#clip0_46_852)">
<path d="M26.666 5H3.33268C2.89065 5 2.46673 5.17559 2.15417 5.48816C1.84161 5.80072 1.66602 6.22464 1.66602 6.66667V23.3333C1.66602 23.7754 1.84161 24.1993 2.15417 24.5118C2.46673 24.8244 2.89065 25 3.33268 25H26.666C27.108 25 27.532 24.8244 27.8445 24.5118C28.1571 24.1993 28.3327 23.7754 28.3327 23.3333V6.66667C28.3327 6.22464 28.1571 5.80072 27.8445 5.48816C27.532 5.17559 27.108 5 26.666 5ZM25.3827 23.3333H4.71602L10.5493 17.3L9.34935 16.1417L3.33268 22.3667V7.93333L13.691 18.2417C14.0033 18.5521 14.4257 18.7263 14.866 18.7263C15.3063 18.7263 15.7287 18.5521 16.041 18.2417L26.666 7.675V22.2583L20.5327 16.125L19.3577 17.3L25.3827 23.3333ZM4.42435 6.66667H25.316L14.866 17.0583L4.42435 6.66667Z" fill="#64748B"/>
</g>
<defs>
<clipPath id="clip0_46_852">
<rect width="30" height="30" fill="white"/>
</clipPath>
</defs>
</svg>
