<svg width="101" height="116" viewBox="0 0 101 116" fill="none" xmlns="http://www.w3.org/2000/svg">
<g clip-path="url(#clip0_221_5561)">
<path d="M58.6002 8.29467L19.8558 18.0345C19.4703 18.1314 19.233 18.5095 19.3259 18.879L19.7044 20.3845C19.7972 20.754 20.1851 20.975 20.5706 20.8781L59.3151 11.1383C59.7006 11.0413 59.9379 10.6632 59.845 10.2937L59.4665 8.78825C59.3736 8.41873 58.9858 8.19775 58.6002 8.29467Z" fill="#008D36"/>
<path d="M39.4803 14.1686C40.7334 13.8536 41.495 12.5872 41.1815 11.3401C40.868 10.093 39.598 9.33731 38.345 9.65231C37.092 9.9673 36.3303 11.2337 36.6438 12.4808C36.9573 13.7279 38.2273 14.4836 39.4803 14.1686Z" fill="#008D36"/>
<path d="M39.3152 13.1429C40.0381 12.9612 40.4829 12.2522 40.3087 11.5593C40.1345 10.8665 39.4073 10.4521 38.6844 10.6338C37.9615 10.8156 37.5167 11.5246 37.6909 12.2174C37.865 12.9103 38.5923 13.3246 39.3152 13.1429Z" fill="white"/>
<path d="M76.1242 5.66817L3.3475 23.9632C2.28724 24.2297 1.63482 25.2696 1.89028 26.2858L23.7979 113.433C24.0534 114.449 25.12 115.057 26.1802 114.791L98.9569 96.4955C100.017 96.229 100.67 95.1891 100.414 94.173L78.5065 7.02553C78.251 6.00934 77.1844 5.40163 76.1242 5.66817Z" fill="#524843"/>
<path d="M73.4515 7.58482L6.60865 24.3882C4.68091 24.8728 3.49469 26.7634 3.95915 28.611L24.4371 110.071C24.9016 111.919 26.8408 113.024 28.7686 112.539L95.6114 95.7359C97.5392 95.2513 98.7254 93.3606 98.2609 91.513L77.783 10.0527C77.3185 8.20514 75.3792 7.10021 73.4515 7.58482Z" fill="white"/>
<path d="M60.7969 20.725L23.7978 30.026C22.9303 30.2441 22.3965 31.0949 22.6055 31.9263L24.3716 38.9516C24.5806 39.7831 25.4532 40.2803 26.3207 40.0622L63.3199 30.7611C64.1874 30.5431 64.7212 29.6923 64.5122 28.8609L62.7461 21.8355C62.5371 21.0041 61.6644 20.5069 60.7969 20.725Z" fill="#E30613"/>
<path d="M31.8769 31.5624L32.495 34.0212C32.5808 34.3625 32.5447 34.6543 32.3867 34.8968C32.2278 35.1359 31.9756 35.2989 31.6301 35.3857C31.281 35.4735 30.9739 35.4475 30.7087 35.3079C30.447 35.1674 30.2724 34.9232 30.185 34.5753L30.918 34.391C30.9593 34.5407 31.0254 34.6485 31.1162 34.7146C31.2106 34.7798 31.3258 34.7953 31.4619 34.7611C31.5946 34.7278 31.6857 34.6622 31.7353 34.5643C31.7849 34.4665 31.7921 34.3473 31.7568 34.2068L31.1386 31.7479L31.8769 31.5624ZM35.3176 34.4587C34.9755 34.5447 34.642 34.5468 34.3171 34.4648C33.9922 34.3829 33.7119 34.2275 33.4763 33.9986C33.2398 33.7664 33.0782 33.478 32.9916 33.1335C32.9058 32.7922 32.9126 32.4651 33.0121 32.152C33.1106 31.8355 33.2837 31.5644 33.5312 31.3386C33.7788 31.1127 34.0736 30.9568 34.4156 30.8708C34.7612 30.7839 35.0947 30.7819 35.4161 30.8647C35.741 30.9467 36.02 31.1042 36.253 31.3373C36.4886 31.5661 36.6494 31.8512 36.7351 32.1924C36.8218 32.537 36.8158 32.8675 36.7172 33.1839C36.6213 33.4961 36.4495 33.7652 36.202 33.991C35.9545 34.2168 35.6597 34.3727 35.3176 34.4587ZM35.1599 33.8315C35.3798 33.7762 35.5618 33.6807 35.7058 33.5449C35.8489 33.4057 35.9453 33.2357 35.995 33.0347C36.0447 32.8337 36.0401 32.6161 35.9812 32.3819C35.9223 32.1477 35.8239 31.9555 35.6859 31.8052C35.5471 31.6516 35.3822 31.549 35.1911 31.4975C35 31.4459 34.7945 31.4478 34.5746 31.5031C34.3547 31.5584 34.171 31.6543 34.0235 31.791C33.8795 31.9268 33.7827 32.0952 33.733 32.2962C33.6825 32.4938 33.6867 32.7097 33.7455 32.9439C33.8044 33.1781 33.9033 33.372 34.0421 33.5256C34.1809 33.6792 34.3463 33.7835 34.5382 33.8384C34.7328 33.8891 34.94 33.8868 35.1599 33.8315ZM39.3451 31.4989C39.5602 31.484 39.7543 31.5401 39.9273 31.6673C40.1004 31.7946 40.2129 31.9619 40.2651 32.1693C40.3122 32.3567 40.3049 32.5345 40.2434 32.703C40.1844 32.8672 40.0743 33.0122 39.913 33.1381C39.7517 33.264 39.5471 33.3582 39.2993 33.4205L37.7233 33.8166L36.8428 30.314L38.3507 29.9349C38.5985 29.8726 38.8211 29.8576 39.0185 29.8898C39.2193 29.9211 39.3824 29.9939 39.5076 30.1083C39.6363 30.2217 39.7225 30.3655 39.7663 30.5394C39.8176 30.7435 39.8029 30.9286 39.7222 31.0947C39.6449 31.2599 39.5192 31.3947 39.3451 31.4989ZM37.9391 31.5749L38.6093 31.4065C38.7838 31.3626 38.9089 31.292 38.9847 31.1947C39.0596 31.0941 39.0794 30.9735 39.044 30.833C39.0087 30.6925 38.9343 30.5956 38.8207 30.5424C38.7071 30.4891 38.563 30.4844 38.3885 30.5283L37.7183 30.6968L37.9391 31.5749ZM39.0507 32.8747C39.2288 32.83 39.3565 32.7552 39.4341 32.6503C39.5151 32.5446 39.5371 32.4181 39.5001 32.2709C39.4623 32.1204 39.3805 32.0164 39.2548 31.9591C39.1282 31.8985 38.9759 31.8905 38.7979 31.9353L38.0753 32.1169L38.3125 33.0603L39.0507 32.8747ZM44.0405 32.2659C43.6984 32.3519 43.3649 32.3539 43.04 32.272C42.7151 32.1901 42.4349 32.0347 42.1992 31.8058C41.9627 31.5736 41.8011 31.2852 41.7145 30.9406C41.6287 30.5994 41.6355 30.2723 41.735 29.9592C41.8335 29.6427 42.0066 29.3716 42.2541 29.1457C42.5017 28.9199 42.7965 28.764 43.1385 28.678C43.4841 28.5911 43.8176 28.5891 44.139 28.6719C44.4639 28.7538 44.7429 28.9114 44.9759 29.1444C45.2115 29.3733 45.3723 29.6583 45.458 29.9996C45.5447 30.3441 45.5387 30.6747 45.4401 30.9911C45.3442 31.3033 45.1724 31.5723 44.9249 31.7982C44.6774 32.024 44.3826 32.1799 44.0405 32.2659ZM43.8828 31.6387C44.1027 31.5834 44.2847 31.4878 44.4287 31.3521C44.5718 31.2129 44.6682 31.0429 44.7179 30.8419C44.7676 30.6409 44.763 30.4233 44.7041 30.1891C44.6452 29.9549 44.5468 29.7627 44.4088 29.6124C44.27 29.4588 44.1051 29.3562 43.914 29.3047C43.7229 29.2531 43.5174 29.255 43.2975 29.3103C43.0776 29.3655 42.8939 29.4615 42.7464 29.5982C42.6024 29.734 42.5056 29.9024 42.4559 30.1034C42.4054 30.301 42.4096 30.5169 42.4684 30.7511C42.5273 30.9853 42.6262 31.1792 42.765 31.3328C42.9038 31.4864 43.0692 31.5907 43.2611 31.6456C43.4557 31.6962 43.6629 31.6939 43.8828 31.6387ZM47.8221 27.554L47.9647 28.121L46.4411 28.504L46.6669 29.4022L47.8345 29.1087L47.9745 29.6657L46.8069 29.9593L47.179 31.4396L46.446 31.6239L45.5655 28.1212L47.8221 27.554ZM50.5985 26.856L50.741 27.4231L49.2174 27.8061L49.4432 28.7043L50.6108 28.4108L50.7508 28.9678L49.5832 29.2613L49.9554 30.7417L49.2224 30.9259L48.3419 27.4233L50.5985 26.856ZM51.9939 27.1081L52.2147 27.9863L53.4451 27.677L53.5851 28.234L52.3547 28.5433L52.5881 29.4716L53.9755 29.1228L54.1194 29.6949L51.9989 30.2279L51.1171 26.7203L53.2376 26.1873L53.3814 26.7593L51.9939 27.1081ZM56.6702 29.0536L55.5208 27.8914L55.1752 27.9783L55.5183 29.3432L54.7853 29.5275L53.9048 26.0248L55.2766 25.68C55.5593 25.6089 55.8124 25.5969 56.0357 25.6439C56.2582 25.6876 56.4389 25.7791 56.5779 25.9184C56.7195 26.0535 56.8155 26.2215 56.8659 26.4222C56.924 26.653 56.9067 26.8797 56.8142 27.1021C56.7208 27.3212 56.5451 27.5005 56.287 27.6401L57.5184 28.8404L56.6702 29.0536ZM55.0428 27.4514L55.6553 27.2974C55.8543 27.2474 55.9913 27.1649 56.0663 27.05C56.1405 26.9318 56.157 26.7907 56.1158 26.6268C56.0754 26.4662 55.9954 26.3547 55.8758 26.2923C55.7554 26.2265 55.5957 26.2187 55.3967 26.2687L54.7842 26.4227L55.0428 27.4514Z" fill="white"/>
<path d="M69.9472 39.4095L36.6131 47.7892C36.3721 47.8498 36.2238 48.0861 36.2819 48.3171C36.3399 48.5481 36.5823 48.6862 36.8233 48.6256L70.1575 40.2459C70.3984 40.1853 70.5467 39.9489 70.4887 39.718C70.4306 39.487 70.1882 39.3489 69.9472 39.4095Z" fill="#D9D9D9"/>
<path d="M75.9886 40.5585L31.8339 51.6583C31.6411 51.7068 31.5225 51.8959 31.569 52.0806C31.6154 52.2654 31.8093 52.3759 32.0021 52.3274L76.1568 41.2276C76.3496 41.1791 76.4682 40.99 76.4217 40.8053C76.3753 40.6205 76.1814 40.51 75.9886 40.5585Z" fill="#D9D9D9"/>
<path d="M71.167 44.2606L37.8328 52.6403C37.5918 52.7009 37.4435 52.9372 37.5016 53.1682C37.5597 53.3991 37.8021 53.5372 38.043 53.4767L71.3772 45.0969C71.6182 45.0364 71.7664 44.8 71.7084 44.5691C71.6503 44.3381 71.4079 44.2 71.167 44.2606Z" fill="#D9D9D9"/>
<path d="M22.0507 54.1697L23.4855 54.9872L25.8259 51.257" stroke="#008D36" stroke-width="2" stroke-linecap="round" stroke-linejoin="round"/>
<path d="M26.383 53.4733L26.9402 55.6897C26.9894 55.8855 26.9554 56.0938 26.8457 56.2688C26.736 56.4436 26.5595 56.5707 26.3551 56.6221L21.7302 57.7847C21.5257 57.8361 21.3101 57.8076 21.1308 57.7055C20.9513 57.6031 20.8229 57.4357 20.7737 57.2398L19.6594 52.8072C19.6101 52.6112 19.6441 52.4029 19.7538 52.2281C19.8635 52.053 20.04 51.926 20.2445 51.8746L23.7131 51.0026" stroke="#9B9B9B" stroke-width="2" stroke-linecap="round" stroke-linejoin="round"/>
<path d="M25.0727 66.0667L26.5075 66.8842L28.8479 63.154" stroke="#008D36" stroke-width="2" stroke-linecap="round" stroke-linejoin="round"/>
<path d="M29.405 65.3703L29.9622 67.5866C30.0114 67.7825 29.9774 67.9908 29.8677 68.1658C29.758 68.3406 29.5815 68.4677 29.377 68.5191L24.7522 69.6817C24.5477 69.7331 24.3321 69.7046 24.1527 69.6024C23.9733 69.5001 23.8449 69.3327 23.7956 69.1368L22.6813 64.7042C22.6321 64.5081 22.666 64.2999 22.7758 64.125C22.8855 63.95 23.062 63.823 23.2664 63.7716L26.7351 62.8996" stroke="#9B9B9B" stroke-width="2" stroke-linecap="round" stroke-linejoin="round"/>
<path d="M72.9751 51.453L39.6409 59.8327C39.3999 59.8933 39.2517 60.1296 39.3097 60.3606C39.3678 60.5915 39.6102 60.7296 39.8511 60.669L73.1853 52.2893C73.4263 52.2287 73.5746 51.9924 73.5165 51.7615C73.4584 51.5305 73.216 51.3924 72.9751 51.453Z" fill="#D9D9D9"/>
<path d="M79.0159 52.6019L34.8613 63.7018C34.6685 63.7503 34.5499 63.9393 34.5963 64.1241C34.6428 64.3089 34.8367 64.4193 35.0295 64.3709L79.1841 53.271C79.3769 53.2226 79.4955 53.0335 79.4491 52.8487C79.4026 52.664 79.2087 52.5535 79.0159 52.6019Z" fill="#D9D9D9"/>
<path d="M74.1943 56.304L40.8601 64.6838C40.6192 64.7444 40.4709 64.9807 40.529 65.2116C40.587 65.4426 40.8294 65.5807 41.0704 65.5201L74.4045 57.1404C74.6455 57.0798 74.7938 56.8435 74.7357 56.6125C74.6777 56.3816 74.4353 56.2435 74.1943 56.304Z" fill="#D9D9D9"/>
<path d="M28.142 78.2772L29.5768 79.0947L31.9172 75.3644" stroke="#008D36" stroke-width="2" stroke-linecap="round" stroke-linejoin="round"/>
<path d="M32.4743 77.5808L33.0315 79.7971C33.0807 79.9929 33.0468 80.2012 32.9371 80.3762C32.8273 80.5511 32.6508 80.6781 32.4464 80.7295L27.8215 81.8921C27.6171 81.9435 27.4014 81.915 27.2221 81.8129C27.0426 81.7106 26.9142 81.5431 26.865 81.3473L25.7507 76.9146C25.7014 76.7186 25.7354 76.5103 25.8451 76.3355C25.9548 76.1605 26.1313 76.0334 26.3358 75.982L29.8044 75.11" stroke="#9B9B9B" stroke-width="2" stroke-linecap="round" stroke-linejoin="round"/>
<path d="M76.0678 63.5101L42.7337 71.8898C42.4927 71.9504 42.3444 72.1867 42.4025 72.4177C42.4605 72.6486 42.703 72.7868 42.9439 72.7262L76.2781 64.3464C76.519 64.2859 76.6673 64.0495 76.6093 63.8186C76.5512 63.5876 76.3088 63.4495 76.0678 63.5101Z" fill="#D9D9D9"/>
<path d="M82.1087 64.6591L37.954 75.7589C37.7613 75.8074 37.6426 75.9965 37.6891 76.1812C37.7355 76.366 37.9295 76.4765 38.1222 76.428L82.2769 65.3281C82.4697 65.2797 82.5883 65.0906 82.5418 64.9059C82.4954 64.7211 82.3015 64.6106 82.1087 64.6591Z" fill="#D9D9D9"/>
<path d="M77.2871 68.3607L43.9529 76.7404C43.7119 76.801 43.5637 77.0373 43.6217 77.2683C43.6798 77.4992 43.9222 77.6373 44.1632 77.5768L77.4973 69.197C77.7383 69.1364 77.8866 68.9001 77.8285 68.6692C77.7704 68.4382 77.528 68.3001 77.2871 68.3607Z" fill="#D9D9D9"/>
<path d="M31.2539 90.6551L32.6887 91.4726L35.029 87.7424" stroke="#008D36" stroke-width="2" stroke-linecap="round" stroke-linejoin="round"/>
<path d="M35.5862 89.9587L36.1433 92.175C36.1926 92.3709 36.1586 92.5791 36.0489 92.7541C35.9391 92.929 35.7626 93.0561 35.5582 93.1074L30.9333 94.2701C30.7289 94.3215 30.5133 94.293 30.3339 94.1908C30.1545 94.0885 30.026 93.9211 29.9768 93.7252L28.8625 89.2925C28.8132 89.0965 28.8472 88.8882 28.9569 88.7134C29.0666 88.5384 29.2431 88.4113 29.4476 88.3599L32.9163 87.488" stroke="#9B9B9B" stroke-width="2" stroke-linecap="round" stroke-linejoin="round"/>
<path d="M79.1792 75.888L45.845 84.2678C45.604 84.3283 45.4558 84.5647 45.5138 84.7956C45.5719 85.0266 45.8143 85.1647 46.0552 85.1041L79.3894 76.7244C79.6304 76.6638 79.7787 76.4275 79.7206 76.1965C79.6625 75.9656 79.4201 75.8274 79.1792 75.888Z" fill="#D9D9D9"/>
<path d="M85.2205 77.037L41.0658 88.1369C40.8731 88.1853 40.7544 88.3744 40.8009 88.5591C40.8473 88.7439 41.0413 88.8544 41.234 88.8059L85.3887 77.7061C85.5815 77.6576 85.7001 77.4686 85.6537 77.2838C85.6072 77.099 85.4133 76.9885 85.2205 77.037Z" fill="#D9D9D9"/>
<path d="M80.3989 80.7386L47.0647 89.1183C46.8238 89.1789 46.6755 89.4153 46.7335 89.6462C46.7916 89.8772 47.034 90.0153 47.275 89.9547L80.6091 81.575C80.8501 81.5144 80.9984 81.278 80.9403 81.0471C80.8823 80.8161 80.6399 80.678 80.3989 80.7386Z" fill="#D9D9D9"/>
<path d="M59.7107 92.4915C66.8897 90.6866 73.9812 88.9034 81.0734 87.1223C81.3333 87.057 81.6123 86.9687 81.8559 86.9775C81.9845 86.9822 82.122 87.1616 82.1348 87.2837C82.1465 87.3978 82.0414 87.5937 81.9117 87.6585C81.6856 87.7714 81.4022 87.8151 81.1411 87.8807C70.7453 90.4947 60.3493 93.1082 49.9533 95.7214C49.808 95.7579 49.6416 95.838 49.5214 95.8218C49.2164 95.7809 48.9322 95.6967 48.6396 95.63C48.8713 95.4533 49.0775 95.1825 49.3387 95.1144C51.9771 94.4257 54.6244 93.7702 57.2693 93.1053C58.0539 92.908 58.8388 92.7107 59.7107 92.4915Z" fill="#D9D9D9"/>
<path d="M74.6622 91.4414C73.2683 91.7918 71.9591 92.1118 70.6558 92.4528C70.1876 92.5753 69.7633 92.5962 69.7342 92.2249C69.7243 92.0986 70.1645 91.808 70.4373 91.738C74.2074 90.7698 77.9842 89.8275 81.7592 88.8778C82.1487 88.7797 82.5251 88.6591 82.6108 89.0713C82.6995 89.4982 82.2514 89.5307 81.8925 89.6214C79.5123 90.2239 77.1306 90.8205 74.6622 91.4414Z" fill="#D9D9D9"/>
<path d="M65.325 93.0141C65.5504 93.1268 65.7769 93.2368 65.8118 93.3924C65.8312 93.4798 65.553 93.7144 65.3759 93.7605C63.2644 94.3095 61.1487 94.8451 59.0266 95.3511C58.8426 95.3951 58.6059 95.204 58.3935 95.1222C58.5905 94.9493 58.7601 94.6792 58.9883 94.6188C61.0685 94.0687 63.1588 93.5549 65.325 93.0141Z" fill="#D9D9D9"/>
<path d="M77.397 92.6856C76.9911 92.7871 76.6643 92.9143 76.3533 92.9309C76.1341 92.9426 75.8025 92.8416 75.7658 92.7226C75.7283 92.6017 75.9606 92.2891 76.1262 92.2454C78.2132 91.6942 80.3069 91.1656 82.4076 90.6695C82.5992 90.6242 82.8487 90.8433 83.0715 90.9397C82.8952 91.0902 82.7424 91.3237 82.5389 91.3781C80.859 91.8255 79.1693 92.2397 77.397 92.6856Z" fill="#D9D9D9"/>
<path d="M19.5781 19.8828L20.6253 19.6196L21.6765 23.8013C21.0981 23.9467 20.5164 23.6152 20.3771 23.0609L19.5781 19.8828Z" fill="#D9D9D9"/>
<path d="M58.6714 10.0552L59.7185 9.79194L60.6016 13.3046C60.6712 13.5817 60.4933 13.8653 60.2041 13.938L59.6806 14.0696L58.6714 10.0552Z" fill="#D9D9D9"/>
<path d="M59.8647 12.9563L20.9458 22.74C20.6084 22.8248 20.4009 23.1557 20.4821 23.479C20.5634 23.8023 20.9028 23.9957 21.2401 23.9109L60.1591 14.1272C60.4964 14.0424 60.704 13.7115 60.6227 13.3882C60.5415 13.0649 60.2021 12.8715 59.8647 12.9563Z" fill="#D9D9D9"/>
<path d="M44.4289 15.7699L35.8772 17.9196C34.9615 18.1498 34.3981 19.0479 34.6187 19.9255C34.8393 20.8031 35.7605 21.3279 36.6762 21.0978L45.2279 18.948C46.1435 18.7178 46.707 17.8197 46.4864 16.9421C46.2657 16.0645 45.3446 15.5397 44.4289 15.7699Z" fill="#008D36"/>
</g>
<defs>
<clipPath id="clip0_221_5561">
<rect width="79" height="99" fill="white" transform="translate(0.124023 19.2603) rotate(-14.111)"/>
</clipPath>
</defs>
</svg>
