<svg width="129" height="119" viewBox="0 0 129 119" fill="none" xmlns="http://www.w3.org/2000/svg">
<path d="M66.6218 111.899L27.2204 36.3247L0 46.0083L8.82975 64.0477L8.27066 63.0397L6.62645 63.6167C5.9251 63.8635 5.59758 64.7046 5.93502 65.3963L10.2887 74.2909C10.861 75.4587 12.0818 76.1018 13.3158 75.8863L14.5233 75.6742L35.7325 119L66.6218 111.899Z" fill="#263238"/>
<path d="M92.0759 3.69375C91.1959 4.20121 90.0876 3.86058 89.6046 2.93602L88.5956 1L27.2207 36.3246L66.6221 111.902L128 76.5778L106.55 35.4348C106.067 34.5102 106.391 33.3458 107.271 32.8383C108.151 32.3309 108.475 31.17 107.992 30.2419L94.5439 4.44799C94.0608 3.52691 92.9559 3.18628 92.0759 3.69375Z" fill="#54B848" stroke="#263238" stroke-miterlimit="10" stroke-linecap="round" stroke-linejoin="round"/>
<path d="M95.1314 6.49609L45.2817 25.1606L69.076 95.3105L118.926 76.6459L95.1314 6.49609Z" fill="white" stroke="#263238" stroke-miterlimit="10" stroke-linecap="round" stroke-linejoin="round"/>
<path d="M95.1324 6.49707L45.2827 25.1616L54.0486 51.0049L103.898 32.3404L95.1324 6.49707Z" fill="white" stroke="#263238" stroke-miterlimit="10" stroke-linecap="round" stroke-linejoin="round"/>
<path d="M91.273 33.0458C94.9953 30.5634 96.0975 25.3807 93.7349 21.4699C91.3722 17.559 86.4393 16.401 82.717 18.8833C78.9946 21.3656 77.8924 26.5483 80.2551 30.4592C82.6177 34.37 87.5506 35.5281 91.273 33.0458Z" fill="#263238" stroke="#263238" stroke-miterlimit="10" stroke-linecap="round" stroke-linejoin="round"/>
<path d="M89.6735 33.8639C92.0025 32.9915 93.7063 31.0972 94.4937 28.8345C93.1108 25.5742 89.7199 23.8745 86.6729 25.0145C83.626 26.1546 82.0215 29.7243 82.9114 33.1688C84.8832 34.4027 87.3412 34.7364 89.6735 33.8639Z" fill="white" stroke="#263238" stroke-miterlimit="10" stroke-linecap="round" stroke-linejoin="round"/>
<path d="M90.2654 22.9567C91.0164 25.1673 89.918 27.5969 87.814 28.3859C85.7099 29.1749 83.3975 28.0209 82.6465 25.8103C81.8955 23.5997 82.9938 21.1701 85.0979 20.3811C87.202 19.5921 89.5177 20.7461 90.2654 22.9567Z" fill="white" stroke="#263238" stroke-miterlimit="10" stroke-linecap="round" stroke-linejoin="round"/>
<path d="M70.2321 26.1883L52.7866 32.7202L53.5007 34.8255L70.9462 28.2936L70.2321 26.1883Z" fill="white" stroke="#263238" stroke-miterlimit="10" stroke-linecap="round" stroke-linejoin="round"/>
<path d="M71.9494 31.245L54.5039 37.7769L55.218 39.8822L72.6635 33.3503L71.9494 31.245Z" fill="white" stroke="#263238" stroke-miterlimit="10" stroke-linecap="round" stroke-linejoin="round"/>
<path d="M73.3776 35.4569L55.9321 41.9888L56.2897 43.0431L73.7353 36.5112L73.3776 35.4569Z" fill="#263238"/>
<path d="M74.2356 37.9876L56.79 44.5195L57.1476 45.5738L74.5932 39.0419L74.2356 37.9876Z" fill="#263238"/>
<path d="M78.5925 50.8387L61.147 57.3706L61.5046 58.4249L78.9501 51.893L78.5925 50.8387Z" fill="#263238"/>
<path d="M79.3796 53.1571L61.9341 59.689L62.2917 60.7433L79.7372 54.2114L79.3796 53.1571Z" fill="#263238"/>
<path d="M80.1672 55.4749L62.7217 62.0068L63.0793 63.0611L80.5248 56.5292L80.1672 55.4749Z" fill="#263238"/>
<path d="M102.257 41.9784L84.811 48.5103L85.1686 49.5645L102.614 43.0327L102.257 41.9784Z" fill="#263238"/>
<path d="M103.045 44.2957L85.5991 50.8276L85.9567 51.8819L103.402 45.35L103.045 44.2957Z" fill="#263238"/>
<path d="M103.829 46.6151L86.3833 53.147L86.7409 54.2013L104.186 47.6694L103.829 46.6151Z" fill="#263238"/>
<path d="M60.0312 55.4108L102.142 39.6445" stroke="#263238" stroke-miterlimit="10" stroke-linecap="round" stroke-linejoin="round"/>
<path d="M82.6677 62.847L65.2222 69.3789L65.5798 70.4332L83.0253 63.9013L82.6677 62.847Z" fill="#263238"/>
<path d="M83.4528 65.1663L66.0073 71.6982L66.3649 72.7525L83.8104 66.2206L83.4528 65.1663Z" fill="#263238"/>
<path d="M84.2404 67.4842L66.7949 74.0161L67.1525 75.0704L84.598 68.5385L84.2404 67.4842Z" fill="#263238"/>
<path d="M106.329 53.9876L88.8838 60.5195L89.2414 61.5738L106.687 55.0419L106.329 53.9876Z" fill="#263238"/>
<path d="M107.117 56.3055L89.6719 62.8374L90.0295 63.8917L107.475 57.3598L107.117 56.3055Z" fill="#263238"/>
<path d="M107.902 58.6248L90.4561 65.1567L90.8137 66.211L108.259 59.6791L107.902 58.6248Z" fill="#263238"/>
<path d="M64.1035 67.4195L106.214 51.6533" stroke="#263238" stroke-miterlimit="10" stroke-linecap="round" stroke-linejoin="round"/>
<path d="M109.474 63.2572L68.1636 78.7246L71.7363 89.2577L113.047 73.7903L109.474 63.2572Z" fill="#263238" stroke="#263238" stroke-miterlimit="10" stroke-linecap="round" stroke-linejoin="round"/>
<path d="M88.6027 10.8382L39.9648 32.7441L67.8914 101.189L116.529 79.2827L88.6027 10.8382Z" fill="white" stroke="#263238" stroke-miterlimit="10" stroke-linecap="round" stroke-linejoin="round"/>
<path d="M88.6032 10.8396L39.9653 32.7456L50.2535 57.9606L98.8913 36.0547L88.6032 10.8396Z" fill="white" stroke="#263238" stroke-miterlimit="10" stroke-linecap="round" stroke-linejoin="round"/>
<path d="M88.3946 35.2804C90.7481 31.3635 89.6337 26.1838 85.9056 23.7112C82.1775 21.2386 77.2475 22.4094 74.8941 26.3263C72.5406 30.2432 73.655 35.4229 77.3831 37.8955C81.1112 40.3681 86.0412 39.1973 88.3946 35.2804Z" fill="#263238" stroke="#263238" stroke-miterlimit="10" stroke-linecap="round" stroke-linejoin="round"/>
<path d="M84.7907 38.5107C87.0635 37.4853 88.6515 35.4867 89.3032 33.1753C87.7285 30.0123 84.2449 28.5386 81.2707 29.8768C78.2966 31.2149 76.9105 34.8854 78.0055 38.2639C80.0434 39.3622 82.518 39.5325 84.7907 38.5107Z" fill="white" stroke="#263238" stroke-miterlimit="10" stroke-linecap="round" stroke-linejoin="round"/>
<path d="M84.7347 27.5867C85.6147 29.7452 84.6652 32.2408 82.6108 33.1653C80.5563 34.0899 78.181 33.0924 77.301 30.9339C76.421 28.7754 77.3705 26.2798 79.4249 25.3552C81.476 24.4307 83.8547 25.4282 84.7347 27.5867Z" fill="white" stroke="#263238" stroke-miterlimit="10" stroke-linecap="round" stroke-linejoin="round"/>
<path d="M64.9252 32.1301L47.9038 39.7964L48.7419 41.8505L65.7633 34.1843L64.9252 32.1301Z" fill="white" stroke="#263238" stroke-miterlimit="10" stroke-linecap="round" stroke-linejoin="round"/>
<path d="M66.9399 37.0622L49.9185 44.7285L50.7566 46.7826L67.778 39.1164L66.9399 37.0622Z" fill="white" stroke="#263238" stroke-miterlimit="10" stroke-linecap="round" stroke-linejoin="round"/>
<path d="M68.6181 41.1726L51.5967 48.8389L52.0164 49.8675L69.0378 42.2013L68.6181 41.1726Z" fill="#263238"/>
<path d="M69.6244 43.6418L52.603 51.3081L53.0227 52.3368L70.0442 44.6705L69.6244 43.6418Z" fill="#263238"/>
<path d="M74.7407 56.1785L57.7192 63.8447L58.139 64.8734L75.1604 57.2071L74.7407 56.1785Z" fill="#263238"/>
<path d="M75.6645 58.4407L58.6431 66.1069L59.0628 67.1356L76.0842 59.4693L75.6645 58.4407Z" fill="#263238"/>
<path d="M76.5844 60.7043L59.563 68.3706L59.9827 69.3993L77.0041 61.733L76.5844 60.7043Z" fill="#263238"/>
<path d="M97.8276 45.7844L80.8062 53.4507L81.2259 54.4793L98.2473 46.8131L97.8276 45.7844Z" fill="#263238"/>
<path d="M98.7499 48.0437L81.7285 55.71L82.1482 56.7386L99.1696 49.0724L98.7499 48.0437Z" fill="#263238"/>
<path d="M99.6733 50.3059L82.6519 57.9722L83.0716 59.0008L100.093 51.3346L99.6733 50.3059Z" fill="#263238"/>
<path d="M56.4922 61.9657L97.5808 43.457" stroke="#263238" stroke-miterlimit="10" stroke-linecap="round" stroke-linejoin="round"/>
<path d="M79.5219 67.8997L62.5005 75.5659L62.9202 76.5946L79.9416 68.9283L79.5219 67.8997Z" fill="#263238"/>
<path d="M80.4438 70.1584L63.4224 77.8247L63.8421 78.8534L80.8635 71.1871L80.4438 70.1584Z" fill="#263238"/>
<path d="M81.3676 72.4211L64.3462 80.0874L64.7659 81.1161L81.7873 73.4498L81.3676 72.4211Z" fill="#263238"/>
<path d="M102.61 57.5002L85.5889 65.1665L86.0086 66.1952L103.03 58.5289L102.61 57.5002Z" fill="#263238"/>
<path d="M103.533 59.7595L86.5117 67.4258L86.9314 68.4544L103.953 60.7882L103.533 59.7595Z" fill="#263238"/>
<path d="M104.454 62.0237L87.4321 69.6899L87.8518 70.7186L104.873 63.0523L104.454 62.0237Z" fill="#263238"/>
<path d="M61.2725 73.6825L102.361 55.1738" stroke="#263238" stroke-miterlimit="10" stroke-linecap="round" stroke-linejoin="round"/>
<path d="M106.301 66.5427L65.9941 84.6963L70.1874 94.9733L110.494 76.8197L106.301 66.5427Z" fill="#263238" stroke="#263238" stroke-miterlimit="10" stroke-linecap="round" stroke-linejoin="round"/>
<path d="M77.4803 10.3546L33.0972 40.6338L71.6982 103.091L116.081 72.8118L77.4803 10.3546Z" fill="white" stroke="#263238" stroke-miterlimit="10" stroke-linecap="round" stroke-linejoin="round"/>
<path d="M77.4837 10.3571L33.1006 40.6362L47.3212 63.6455L91.7044 33.3664L77.4837 10.3571Z" fill="white" stroke="#263238" stroke-miterlimit="10" stroke-linecap="round" stroke-linejoin="round"/>
<path d="M75.1334 39.5547C79.4849 38.8113 82.4389 34.5024 81.7313 29.9305C81.0237 25.3587 76.9224 22.2551 72.571 22.9986C68.2195 23.742 65.2655 28.0509 65.9731 32.6228C66.6808 37.1947 70.782 40.2982 75.1334 39.5547Z" fill="#263238" stroke="#263238" stroke-miterlimit="10" stroke-linecap="round" stroke-linejoin="round"/>
<path d="M78.2003 38.3165C80.2746 36.9019 81.5152 34.6461 81.7831 32.2512C79.7188 29.415 76.0466 28.5877 73.3338 30.4369C70.6211 32.2895 69.8469 36.1511 71.4713 39.2863C73.6614 40.0057 76.126 39.7312 78.2003 38.3165Z" fill="#54B848" stroke="#263238" stroke-miterlimit="10" stroke-linecap="round" stroke-linejoin="round"/>
<path d="M76.3777 27.5585C77.5951 29.5258 77.0625 32.1604 75.1867 33.436C73.3142 34.7151 70.8065 34.1555 69.5924 32.1847C68.375 30.2174 68.9076 27.5828 70.7834 26.3072C72.6559 25.0316 75.1602 25.5912 76.3777 27.5585Z" fill="white" stroke="#263238" stroke-miterlimit="10" stroke-linecap="round" stroke-linejoin="round"/>
<path d="M57.5969 35.568L42.0645 46.1646L43.2229 48.039L58.7554 37.4424L57.5969 35.568Z" fill="white" stroke="#263238" stroke-miterlimit="10" stroke-linecap="round" stroke-linejoin="round"/>
<path d="M60.3796 40.0694L44.8472 50.666L46.0056 52.5405L61.5381 41.9439L60.3796 40.0694Z" fill="white" stroke="#263238" stroke-miterlimit="10" stroke-linecap="round" stroke-linejoin="round"/>
<path d="M62.6989 43.818L47.1665 54.4146L47.7466 55.3532L63.2791 44.7567L62.6989 43.818Z" fill="#263238"/>
<path d="M64.0896 46.0714L48.5571 56.668L49.1373 57.6066L64.6697 47.0101L64.0896 46.0714Z" fill="#263238"/>
<path d="M71.1623 57.5123L55.6299 68.1089L56.21 69.0476L71.7425 58.451L71.1623 57.5123Z" fill="#263238"/>
<path d="M72.4367 59.5773L56.9043 70.1738L57.4844 71.1125L73.0169 60.5159L72.4367 59.5773Z" fill="#263238"/>
<path d="M73.7116 61.6427L58.1792 72.2393L58.7593 73.1779L74.2918 62.5814L73.7116 61.6427Z" fill="#263238"/>
<path d="M92.2278 43.1398L76.6953 53.7363L77.2755 54.675L92.8079 44.0784L92.2278 43.1398Z" fill="#263238"/>
<path d="M93.5056 45.2032L77.9731 55.7998L78.5533 56.7385L94.0857 46.1419L93.5056 45.2032Z" fill="#263238"/>
<path d="M94.78 47.2687L79.2476 57.8652L79.8277 58.8039L95.3601 48.2073L94.78 47.2687Z" fill="#263238"/>
<path d="M54.1099 66.4842L91.6057 40.9058" stroke="#263238" stroke-miterlimit="10" stroke-linecap="round" stroke-linejoin="round"/>
<path d="M77.7702 68.2071L62.2378 78.8037L62.8179 79.7424L78.3504 69.1458L77.7702 68.2071Z" fill="#263238"/>
<path d="M79.0437 70.2696L63.5112 80.8662L64.0914 81.8049L79.6238 71.2083L79.0437 70.2696Z" fill="#263238"/>
<path d="M80.3205 72.3331L64.7881 82.9297L65.3682 83.8684L80.9007 73.2718L80.3205 72.3331Z" fill="#263238"/>
<path d="M98.8371 53.8351L83.3047 64.4316L83.8848 65.3703L99.4173 54.7737L98.8371 53.8351Z" fill="#263238"/>
<path d="M100.113 55.8951L84.5801 66.4917L85.1602 67.4304L100.693 56.8338L100.113 55.8951Z" fill="#263238"/>
<path d="M101.386 57.9606L85.854 68.5571L86.4341 69.4958L101.967 58.8992L101.386 57.9606Z" fill="#263238"/>
<path d="M60.7163 77.1755L98.2122 51.6006" stroke="#263238" stroke-miterlimit="10" stroke-linecap="round" stroke-linejoin="round"/>
<path d="M103.941 62.0852L67.1602 87.1777L72.9562 96.5558L109.737 71.4632L103.941 62.0852Z" fill="#263238" stroke="#263238" stroke-miterlimit="10" stroke-linecap="round" stroke-linejoin="round"/>
<path d="M27.2208 36.3248L3.69238 17.187L17.693 44.7814C18.0304 45.4487 17.1438 45.5739 16.2505 44.983C15.3507 44.3886 14.4608 44.5207 14.8148 45.195L22.0764 59.0635C22.1624 59.2303 22.3212 59.4076 22.523 59.5675L26.0662 62.3759C26.2746 62.5427 26.4334 62.7235 26.5194 62.8938L41.2114 92.2122L66.6222 111.899L27.2208 36.3248Z" fill="#54B848" stroke="#263238" stroke-miterlimit="10" stroke-linecap="round" stroke-linejoin="round"/>
<path opacity="0.25" d="M27.2208 36.3248L3.69238 17.187L17.693 44.7814C18.0304 45.4487 17.1438 45.5739 16.2505 44.983C15.3507 44.3886 14.4608 44.5207 14.8148 45.195L22.0764 59.0635C22.1624 59.2303 22.3212 59.4076 22.523 59.5675L26.0662 62.3759C26.2746 62.5427 26.4334 62.7235 26.5194 62.8938L41.2114 92.2122L66.6222 111.899L27.2208 36.3248Z" fill="#263238" stroke="#263238" stroke-miterlimit="10" stroke-linecap="round" stroke-linejoin="round"/>
</svg>
