<svg width="115" height="115" viewBox="0 0 115 115" fill="none" xmlns="http://www.w3.org/2000/svg">
<g clip-path="url(#clip0_221_5682)">
<rect x="0.649414" y="11.395" width="102.807" height="104" rx="10" transform="rotate(-6.36371 0.649414 11.395)" fill="white"/>
<path d="M99.0872 0.416574L4.3855 10.9783C2.32212 11.2085 0.864065 13.3197 1.12885 15.6939L2.87983 31.394C3.14462 33.7682 5.03197 35.5063 7.09536 35.2762L101.797 24.7144C103.86 24.4843 105.319 22.3731 105.054 19.9989L103.303 4.29874C103.038 1.92456 101.151 0.186451 99.0872 0.416574Z" fill="#F9FAFC"/>
<path fill-rule="evenodd" clip-rule="evenodd" d="M11.8609 16.074C12.643 15.9868 13.4373 16.0777 14.1983 16.3415C14.9594 16.6053 15.6723 17.0369 16.2963 17.6116C16.9204 18.1863 17.4433 18.8928 17.8354 19.6909C18.2274 20.489 18.4809 21.363 18.5813 22.263C19.0034 26.0479 16.6789 29.4136 13.3895 29.7804C10.1001 30.1473 7.09122 27.3764 6.6691 23.5915C6.24698 19.8066 8.57143 16.4409 11.8609 16.074ZM13.2972 23.5462L12.106 23.679C10.6315 23.8435 9.48013 25.0122 9.0977 26.5399C10.1171 27.8375 11.6353 28.5884 13.2366 28.4098C14.838 28.2312 16.1534 27.1643 16.8619 25.6739C16.1523 24.2681 14.7718 23.3817 13.2972 23.5462ZM12.0902 18.13C11.1033 18.24 10.406 19.2498 10.5326 20.3852C10.6593 21.5207 11.5619 22.352 12.5487 22.2419C13.5356 22.1319 14.2329 21.1222 14.1063 19.9867C13.9796 18.8512 13.077 18.0199 12.0902 18.13Z" fill="#64748B"/>
<path d="M42.18 18.6331L42.3837 20.4595L42.0654 20.4951L41.9329 19.3071L41.6401 20.5425L41.399 20.5694L40.839 19.4291L40.9715 20.6171L40.6531 20.6526L40.4494 18.8261L40.811 18.7858L41.4673 20.0875L41.8207 18.6732L42.18 18.6331ZM42.5352 19.7035C42.5189 19.557 42.5294 19.4242 42.5668 19.3053C42.6057 19.1861 42.665 19.0912 42.7446 19.0205C42.8256 18.9496 42.92 18.9082 43.0277 18.8962C43.1216 18.8857 43.2059 18.8984 43.2806 18.9342C43.3566 18.9699 43.4196 19.0185 43.4696 19.0801L43.4465 18.8733L43.7672 18.8376L43.9288 20.2872L43.6082 20.323L43.5846 20.111C43.5512 20.1836 43.5007 20.2467 43.433 20.3001C43.3665 20.3517 43.2863 20.3827 43.1924 20.3932C43.0861 20.4051 42.9857 20.3845 42.8908 20.3315C42.7974 20.2783 42.7185 20.1979 42.6544 20.0903C42.5915 19.9807 42.5518 19.8518 42.5352 19.7035ZM43.5274 19.5982C43.5174 19.5092 43.4937 19.435 43.4565 19.3756C43.4189 19.3144 43.3725 19.2701 43.3173 19.2427C43.2618 19.2136 43.2046 19.2023 43.1455 19.2089C43.0864 19.2155 43.0336 19.2382 42.9873 19.2769C42.941 19.3156 42.9055 19.369 42.8808 19.4371C42.8575 19.5033 42.8507 19.58 42.8605 19.6672C42.8702 19.7545 42.8938 19.8295 42.9316 19.8924C42.9706 19.9534 43.0171 19.9986 43.0711 20.0279C43.1264 20.057 43.183 20.0684 43.2406 20.062C43.2998 20.0554 43.3531 20.0326 43.4011 19.9937C43.4487 19.9531 43.4842 19.8997 43.5076 19.8335C43.5306 19.7656 43.5373 19.6871 43.5274 19.5982ZM44.4823 19.0625L44.5605 19.7638C44.566 19.8126 44.5799 19.8473 44.6021 19.8677C44.6257 19.8863 44.6616 19.8929 44.7102 19.8875L44.858 19.871L44.8924 20.1798L44.6923 20.2021C44.424 20.232 44.2731 20.0969 44.2396 19.7969L44.1617 19.0982L44.0116 19.115L43.978 18.8141L44.1281 18.7973L44.0881 18.4388L44.4088 18.4031L44.4488 18.7616L44.7308 18.7301L44.7643 19.031L44.4823 19.0625ZM44.9588 19.4385C44.942 19.2885 44.9539 19.1547 44.9946 19.0371C45.0349 18.9178 45.0988 18.8224 45.186 18.7509C45.2729 18.6776 45.3771 18.6342 45.4984 18.6207C45.6545 18.6032 45.7884 18.6342 45.9002 18.7136C46.0131 18.7911 46.0961 18.909 46.1492 19.0673L45.8058 19.1056C45.7806 19.0449 45.7439 18.9995 45.6962 18.9695C45.6495 18.9376 45.5945 18.9252 45.5309 18.9323C45.4399 18.9424 45.3721 18.9889 45.3277 19.0715C45.2829 19.1525 45.2684 19.2627 45.284 19.4023C45.2993 19.5401 45.3378 19.6444 45.3995 19.7152C45.4608 19.7843 45.5371 19.8138 45.628 19.8037C45.7569 19.7893 45.8336 19.7136 45.8583 19.5766L46.2017 19.5383C46.1843 19.6992 46.1292 19.8317 46.0365 19.9356C45.9436 20.0396 45.82 20.1002 45.6653 20.1174C45.544 20.1309 45.4329 20.1124 45.3322 20.0618C45.2311 20.0095 45.1478 19.9305 45.0824 19.8248C45.0167 19.7173 44.9755 19.5886 44.9588 19.4385ZM47.0351 18.4519C47.1306 18.4413 47.2181 18.4563 47.2979 18.4968C47.3774 18.5356 47.443 18.5998 47.4944 18.6895C47.5471 18.7772 47.5808 18.8865 47.5954 19.0173L47.6903 19.8677L47.3719 19.9032L47.2826 19.1025C47.2698 18.9874 47.2349 18.9021 47.1781 18.8466C47.121 18.7894 47.0493 18.7656 46.9629 18.7752C46.8749 18.7851 46.8087 18.8242 46.7642 18.8928C46.721 18.9594 46.7058 19.0503 46.7186 19.1654L46.8079 19.9661L46.4895 20.0016L46.2736 18.0653L46.592 18.0298L46.6664 18.697C46.7003 18.6297 46.7494 18.5747 46.8138 18.5322C46.8779 18.488 46.9516 18.4612 47.0351 18.4519ZM47.9736 18.1936C47.9174 18.1999 47.8682 18.1851 47.8259 18.1491C47.7848 18.1113 47.7609 18.0619 47.7541 18.0008C47.7473 17.9398 47.7598 17.8872 47.7917 17.843C47.8249 17.7969 47.8695 17.7707 47.9257 17.7645C47.9818 17.7582 48.0304 17.774 48.0715 17.8118C48.1138 17.8477 48.1384 17.8962 48.1452 17.9572C48.152 18.0183 48.1388 18.0719 48.1056 18.1179C48.0737 18.1621 48.0296 18.1874 47.9736 18.1936ZM48.1498 18.3488L48.3114 19.7984L47.9931 19.834L47.8314 18.3843L48.1498 18.3488ZM49.1601 18.2149C49.3102 18.1982 49.4376 18.2396 49.5423 18.3392C49.6468 18.4371 49.71 18.5837 49.7318 18.779L49.8267 19.6295L49.5083 19.665L49.419 18.8643C49.4062 18.7491 49.3713 18.6638 49.3145 18.6083C49.2574 18.5511 49.1857 18.5273 49.0993 18.537C49.0114 18.5468 48.9451 18.586 48.9006 18.6545C48.8574 18.7211 48.8422 18.812 48.855 18.9272L48.9443 19.7279L48.6259 19.7634L48.4643 18.3137L48.7826 18.2782L48.8028 18.4588C48.8382 18.3912 48.8866 18.3364 48.9479 18.2942C49.0106 18.2502 49.0813 18.2237 49.1601 18.2149ZM50.4586 18.0675C50.5527 18.057 50.6376 18.0696 50.7138 18.1052C50.7898 18.1391 50.852 18.1878 50.9005 18.2513L50.8774 18.0446L51.1981 18.0088L51.3609 19.4689C51.3759 19.6033 51.3657 19.7254 51.3304 19.8353C51.2953 19.9469 51.2342 20.0385 51.1469 20.1101C51.0599 20.1834 50.9497 20.2275 50.8163 20.2423C50.6375 20.2623 50.485 20.2307 50.3591 20.1476C50.2347 20.0644 50.1556 19.9407 50.122 19.7767L50.4381 19.7414C50.4622 19.8058 50.5036 19.8542 50.5625 19.8865C50.623 19.9204 50.6928 19.9329 50.7716 19.9241C50.864 19.9138 50.9355 19.8732 50.986 19.8022C51.0366 19.7329 51.0547 19.6338 51.0403 19.5047L51.0152 19.2797C50.9818 19.3523 50.9313 19.4153 50.8636 19.4688C50.7973 19.5221 50.718 19.5539 50.6256 19.5642C50.5195 19.576 50.4189 19.5555 50.324 19.5025C50.2291 19.4495 50.1494 19.3692 50.0853 19.2615C50.0224 19.152 49.9827 19.023 49.9662 18.8748C49.9498 18.7282 49.9603 18.5955 49.9977 18.4765C50.0366 18.3574 50.0959 18.2625 50.1755 18.1918C50.2566 18.1209 50.3509 18.0795 50.4586 18.0675ZM50.9583 18.7694C50.9484 18.6805 50.9248 18.6063 50.8874 18.5468C50.8498 18.4857 50.8034 18.4414 50.7483 18.414C50.6929 18.3848 50.6355 18.3736 50.5764 18.3802C50.5173 18.3868 50.4646 18.4094 50.4182 18.4482C50.3719 18.4869 50.3364 18.5403 50.3118 18.6084C50.2884 18.6746 50.2816 18.7513 50.2914 18.8385C50.3011 18.9257 50.3248 19.0008 50.3625 19.0637C50.4016 19.1247 50.448 19.1698 50.502 19.1991C50.5574 19.2283 50.6139 19.2397 50.6715 19.2332C50.7307 19.2266 50.7842 19.2039 50.832 19.165C50.8796 19.1244 50.9151 19.0709 50.9385 19.0048C50.9616 18.9368 50.9682 18.8584 50.9583 18.7694ZM52.6973 19.3332C52.5942 19.3447 52.4994 19.334 52.4129 19.3013C52.3261 19.2668 52.2545 19.2156 52.1977 19.1478C52.1426 19.0798 52.1077 19.0015 52.0933 18.9131L52.4139 18.8773C52.4262 18.9325 52.4549 18.9761 52.4999 19.0081C52.5464 19.04 52.6007 19.0525 52.6629 19.0456C52.7235 19.0388 52.7691 19.0196 52.7993 18.988C52.8311 18.9562 52.8445 18.9185 52.8396 18.8749C52.8344 18.8278 52.8092 18.7952 52.7643 18.7773C52.7206 18.7574 52.6517 18.7386 52.5576 18.7209C52.4607 18.7052 52.3803 18.6868 52.3166 18.6656C52.2544 18.6443 52.1981 18.6073 52.1477 18.5546C52.0989 18.5018 52.0689 18.4266 52.0581 18.3289C52.0491 18.2486 52.0606 18.1732 52.0927 18.1025C52.1262 18.0316 52.178 17.9728 52.248 17.9262C52.3196 17.8794 52.4061 17.8503 52.5076 17.8389C52.6577 17.8222 52.7823 17.8525 52.8815 17.9297C52.9806 18.0052 53.0427 18.1157 53.0682 18.2612L52.7634 18.2952C52.7525 18.2382 52.7261 18.1952 52.6846 18.1663C52.6443 18.1354 52.5932 18.1235 52.5309 18.1304C52.4733 18.1368 52.43 18.154 52.4009 18.182C52.3732 18.2098 52.3619 18.2455 52.3668 18.2891C52.3722 18.338 52.3977 18.3731 52.443 18.3945C52.4881 18.4142 52.5569 18.4322 52.6493 18.4484C52.7432 18.4644 52.8212 18.4831 52.8835 18.5044C52.9457 18.5257 53.0014 18.5636 53.0504 18.6182C53.1009 18.6709 53.1322 18.7451 53.1443 18.8409C53.1537 18.9246 53.1416 19.0019 53.108 19.0728C53.076 19.1435 53.0243 19.2022 52.9527 19.249C52.8826 19.2939 52.7974 19.322 52.6973 19.3332ZM53.2891 18.5095C53.2724 18.3594 53.2843 18.2257 53.3249 18.1081C53.3654 17.9888 53.4291 17.8934 53.5163 17.8218C53.6034 17.7485 53.7074 17.7051 53.8288 17.6916C53.9849 17.6742 54.1189 17.7052 54.2305 17.7846C54.3436 17.862 54.4265 17.9799 54.4795 18.1383L54.1361 18.1766C54.1109 18.1158 54.0744 18.0704 54.0265 18.0404C53.98 18.0085 53.9249 17.9961 53.8612 18.0032C53.7702 18.0134 53.7026 18.0598 53.658 18.1425C53.6133 18.2234 53.5987 18.3336 53.6143 18.4732C53.6297 18.611 53.6681 18.7153 53.7298 18.7862C53.7913 18.8553 53.8674 18.8847 53.9584 18.8746C54.0872 18.8602 54.164 18.7846 54.1886 18.6476L54.532 18.6093C54.5146 18.7702 54.4597 18.9026 54.3668 19.0065C54.274 19.1105 54.1503 19.1711 53.9957 19.1883C53.8743 19.2019 53.7634 19.1834 53.6625 19.1328C53.5615 19.0805 53.4783 19.0014 53.4128 18.8957C53.347 18.7882 53.3058 18.6595 53.2891 18.5095ZM55.3819 19.0337C55.2606 19.0473 55.148 19.0289 55.0442 18.9787C54.9403 18.9267 54.8538 18.8472 54.7851 18.74C54.7179 18.6327 54.676 18.5049 54.6594 18.3566C54.6429 18.2084 54.6564 18.0744 54.6998 17.9548C54.7448 17.8349 54.8131 17.739 54.9049 17.667C54.9965 17.5932 55.1028 17.5495 55.2241 17.536C55.3454 17.5225 55.4588 17.5416 55.5644 17.5934C55.6698 17.6435 55.7568 17.7221 55.8255 17.8292C55.8958 17.9362 55.9392 18.0638 55.9557 18.2121C55.9722 18.3603 55.9573 18.4945 55.9108 18.6145C55.8658 18.7343 55.7968 18.8312 55.7037 18.9051C55.612 18.9772 55.5047 19.02 55.3819 19.0337ZM55.3463 18.7145C55.404 18.7081 55.456 18.6864 55.5025 18.6494C55.5503 18.6105 55.5858 18.5571 55.609 18.4892C55.6322 18.4212 55.6385 18.3411 55.6282 18.2486C55.6129 18.1108 55.5692 18.0088 55.4974 17.9426C55.4268 17.8746 55.3461 17.8456 55.2552 17.8557C55.1642 17.8659 55.0919 17.9119 55.038 17.9939C54.9856 18.0739 54.967 18.1828 54.9824 18.3206C54.9977 18.4584 55.0392 18.5616 55.1067 18.63C55.1754 18.6965 55.2554 18.7247 55.3463 18.7145ZM56.4519 17.6507C56.4843 17.5694 56.5305 17.5033 56.591 17.4524C56.6527 17.4014 56.7261 17.3711 56.8111 17.3616L56.854 17.7463L56.7699 17.7557C56.6698 17.7668 56.5969 17.8023 56.5515 17.8622C56.5075 17.9218 56.493 18.0188 56.508 18.1531L56.5885 18.8753L56.2701 18.9108L56.1084 17.4612L56.4268 17.4257L56.4519 17.6507ZM58.2764 17.9215C58.2822 17.9738 58.2844 18.0212 58.283 18.0638L57.362 18.1665C57.3812 18.2703 57.4221 18.3488 57.4849 18.4018C57.5476 18.4549 57.62 18.4768 57.7018 18.4677C57.8201 18.4545 57.8977 18.3867 57.9347 18.2642L58.2781 18.2259C58.2573 18.3696 58.2003 18.4925 58.1074 18.5947C58.0142 18.6951 57.8926 18.7537 57.7425 18.7705C57.6212 18.784 57.5086 18.7657 57.4048 18.7154C57.3023 18.6633 57.2174 18.5835 57.1502 18.4762C57.0844 18.3688 57.0434 18.2409 57.0268 18.0926C57.0101 17.9426 57.0219 17.8079 57.0623 17.6886C57.1027 17.5693 57.1673 17.4738 57.256 17.4021C57.3447 17.3304 57.4511 17.2876 57.5756 17.2737C57.6953 17.2604 57.8055 17.2781 57.9061 17.3269C58.0083 17.3756 58.0911 17.452 58.155 17.5562C58.2201 17.6584 58.2606 17.7802 58.2764 17.9215ZM57.9349 17.8536C57.9228 17.7596 57.8849 17.6878 57.8212 17.6384C57.7571 17.5873 57.6834 17.5664 57.6 17.5757C57.5211 17.5845 57.4576 17.6198 57.4092 17.6817C57.3622 17.7417 57.338 17.8212 57.3368 17.9203L57.9349 17.8536ZM59.2779 18.5939C59.2204 18.6004 59.1704 18.5856 59.1279 18.5497C59.0869 18.5119 59.063 18.4625 59.0561 18.4014C59.0493 18.3404 59.0619 18.2878 59.0938 18.2436C59.1271 18.1975 59.1726 18.1712 59.2301 18.1648C59.2863 18.1585 59.3347 18.1743 59.3758 18.2121C59.4167 18.2482 59.4405 18.2967 59.4473 18.3578C59.4541 18.4189 59.4417 18.4724 59.4099 18.5183C59.378 18.5625 59.3341 18.5877 59.2779 18.5939ZM59.1571 17.5106C59.0996 17.517 59.0496 17.5023 59.0071 17.4664C58.9661 17.4286 58.9421 17.3792 58.9353 17.3181C58.9285 17.2571 58.9411 17.2045 58.973 17.1603C59.0063 17.1142 59.0517 17.0879 59.1093 17.0815C59.1655 17.0752 59.2139 17.091 59.255 17.1288C59.2958 17.1649 59.3197 17.2134 59.3265 17.2745C59.3333 17.3356 59.3208 17.389 59.2891 17.435C59.2572 17.4792 59.2133 17.5044 59.1571 17.5106ZM60.5464 17.8908C60.5672 17.9662 60.6011 18.0225 60.6481 18.0596C60.6966 18.0949 60.7572 18.1084 60.83 18.1003C60.924 18.0898 60.9873 18.0377 61.0198 17.944C61.052 17.8486 61.0564 17.6944 61.0327 17.4816C61.004 17.5413 60.9596 17.5904 60.8994 17.6289C60.8407 17.6673 60.7751 17.6905 60.7023 17.6986C60.6053 17.7094 60.5147 17.6966 60.4309 17.66C60.3483 17.6215 60.2792 17.5594 60.2236 17.4738C60.1678 17.3864 60.1326 17.2773 60.1181 17.1465C60.0965 16.9528 60.1294 16.7938 60.2168 16.6692C60.304 16.5429 60.434 16.4701 60.6069 16.4509C60.8221 16.4268 60.9827 16.4893 61.0883 16.6382C61.1955 16.787 61.2668 17.021 61.3024 17.3403C61.3277 17.567 61.331 17.7548 61.3122 17.9034C61.2951 18.052 61.2489 18.1684 61.1739 18.2527C61.1004 18.3368 60.9923 18.3868 60.8499 18.4027C60.7376 18.4152 60.6394 18.4015 60.5552 18.3614C60.4707 18.3196 60.4027 18.261 60.3514 18.1855C60.3013 18.108 60.2677 18.0208 60.2508 17.9238L60.5464 17.8908ZM60.735 17.3929C60.8137 17.3842 60.8729 17.3493 60.9121 17.2884C60.9514 17.2275 60.9657 17.15 60.9552 17.0558C60.9438 16.9528 60.9107 16.8762 60.8559 16.8258C60.8025 16.7734 60.7348 16.7518 60.653 16.761C60.5711 16.7701 60.5093 16.807 60.4673 16.8717C60.4268 16.9346 60.4118 17.0139 60.4225 17.1099C60.4328 17.2023 60.464 17.2757 60.5161 17.3299C60.5695 17.3823 60.6425 17.4032 60.735 17.3929ZM61.5523 17.3309C61.5187 17.0291 61.5392 16.7875 61.6142 16.6061C61.6907 16.4245 61.8387 16.3214 62.0586 16.2969C62.2784 16.2724 62.4449 16.3403 62.558 16.5008C62.6726 16.6611 62.7467 16.8922 62.7804 17.194C62.8142 17.4975 62.793 17.7409 62.7168 17.9243C62.642 18.1075 62.4947 18.2113 62.2749 18.2359C62.055 18.2604 61.8878 18.1916 61.773 18.0296C61.6597 17.8673 61.5862 17.6345 61.5523 17.3309ZM62.4665 17.229C62.4521 17.0999 62.4324 16.9926 62.4076 16.907C62.384 16.8196 62.347 16.7504 62.297 16.6995C62.2482 16.6484 62.1814 16.6276 62.0966 16.6371C62.0116 16.6465 61.9503 16.6816 61.9126 16.7423C61.8763 16.8029 61.8556 16.8785 61.8504 16.9692C61.8465 17.0579 61.8518 17.1668 61.8661 17.2959C61.8809 17.4285 61.9002 17.5394 61.924 17.6286C61.9475 17.716 61.9844 17.7852 62.0346 17.8361C62.0845 17.8853 62.152 17.9052 62.237 17.8957C62.3217 17.8862 62.3832 17.852 62.4212 17.793C62.4588 17.7323 62.4797 17.6567 62.4834 17.5662C62.4869 17.474 62.4813 17.3615 62.4665 17.229ZM62.9346 16.7105C62.9199 16.5779 62.9417 16.4704 63 16.3879C63.0598 16.3053 63.1429 16.2581 63.2489 16.2463C63.3552 16.2344 63.4458 16.2623 63.5208 16.3299C63.5973 16.3973 63.643 16.4973 63.6578 16.6298C63.6728 16.7642 63.6504 16.8726 63.5905 16.9553C63.5323 17.0377 63.45 17.0848 63.3438 17.0967C63.2377 17.1085 63.1463 17.0807 63.0697 17.0133C62.9948 16.9458 62.9496 16.8448 62.9346 16.7105ZM64.3509 16.1552L63.6614 18.0865L63.3521 18.121L64.0393 16.1899L64.3509 16.1552ZM63.2712 16.4663C63.1879 16.4756 63.1537 16.5483 63.1689 16.6844C63.1842 16.8222 63.2337 16.8864 63.317 16.8771C63.3579 16.8726 63.3879 16.8524 63.407 16.8168C63.4258 16.7793 63.4314 16.7257 63.4236 16.656C63.4084 16.5199 63.3576 16.4567 63.2712 16.4663ZM64.0494 17.6432C64.0344 17.5089 64.0563 17.4014 64.1148 17.3207C64.1746 17.238 64.2577 17.1908 64.3637 17.179C64.47 17.1671 64.5598 17.1951 64.6333 17.2628C64.7082 17.3287 64.7531 17.4287 64.7681 17.5631C64.783 17.6974 64.7614 17.8058 64.703 17.8882C64.6462 17.9705 64.5648 18.0176 64.4586 18.0294C64.351 18.0414 64.2596 18.0136 64.1845 17.9461C64.1095 17.8785 64.0644 17.7775 64.0494 17.6432ZM64.386 17.399C64.2996 17.4087 64.2639 17.4815 64.2791 17.6176C64.2945 17.7554 64.3454 17.8195 64.4318 17.8099C64.5167 17.8004 64.5515 17.7267 64.5361 17.5889C64.5209 17.4529 64.4709 17.3896 64.386 17.399Z" fill="black"/>
<mask id="mask0_221_5682" style="mask-type:luminance" maskUnits="userSpaceOnUse" x="84" y="5" width="17" height="18">
<path d="M98.786 5.08648L84.6538 6.6626L86.4673 22.9234L100.599 21.3473L98.786 5.08648Z" fill="white"/>
</mask>
<g mask="url(#mask0_221_5682)">
<path fill-rule="evenodd" clip-rule="evenodd" d="M93.1907 19.4296C96.4429 19.0669 98.7408 15.7396 98.3234 11.9976C97.9061 8.25554 94.9316 5.51623 91.6794 5.87893C88.4272 6.24164 86.1293 9.56897 86.5466 13.311C86.964 17.053 89.9385 19.7923 93.1907 19.4296ZM95.3586 10.1572C95.3824 10.1215 95.3997 10.0803 95.4092 10.0363C95.4188 9.99225 95.4204 9.9462 95.414 9.90086C95.4077 9.85553 95.3934 9.81183 95.3722 9.77241C95.3509 9.73299 95.3231 9.69863 95.2902 9.6714C95.2576 9.64416 95.2206 9.6246 95.1815 9.61389C95.1425 9.60318 95.1022 9.60152 95.0631 9.60905C95.024 9.61655 94.9868 9.63309 94.9539 9.65764C94.9209 9.68218 94.8929 9.71424 94.8713 9.7519L91.8446 14.6295L89.6667 12.7147C89.6032 12.6589 89.524 12.6336 89.446 12.6444C89.3683 12.6551 89.2983 12.701 89.2516 12.772C89.2049 12.843 89.1852 12.9332 89.197 13.0228C89.2088 13.1125 89.251 13.1942 89.3144 13.2499L91.7382 15.3805L91.9837 15.5966L92.1578 15.3159L95.3586 10.1572Z" fill="#008D36"/>
</g>
<path d="M102.026 26.7706L7.32447 37.3323C5.26108 37.5625 3.80303 39.6737 4.06781 42.0479L5.8188 57.748C6.08358 60.1222 7.97094 61.8603 10.0343 61.6302L104.736 51.0684C106.799 50.8383 108.257 48.7271 107.993 46.3529L106.242 30.6527C105.977 28.2786 104.09 26.5405 102.026 26.7706Z" fill="#F9FAFC"/>
<path fill-rule="evenodd" clip-rule="evenodd" d="M14.8003 42.4275C15.5825 42.3403 16.3768 42.4313 17.1378 42.6952C17.8988 42.9589 18.6117 43.3905 19.2358 43.9652C19.8598 44.5399 20.3828 45.2465 20.7749 46.0445C21.1668 46.8426 21.4204 47.7166 21.5208 48.6166C21.9429 52.4016 19.6184 55.7673 16.329 56.1341C13.0395 56.501 10.0307 53.7301 9.60856 49.9451C9.18645 46.1602 11.5109 42.7944 14.8003 42.4275ZM16.2367 49.8998L15.0455 50.0326C13.5709 50.1971 12.4196 51.3659 12.0372 52.8936C13.0565 54.191 14.5747 54.9419 16.1761 54.7634C17.7774 54.5848 19.0929 53.5178 19.8014 52.0275C19.0918 50.6218 17.7113 49.7353 16.2367 49.8998ZM15.0296 44.4835C14.0428 44.5936 13.3454 45.6033 13.4721 46.7388C13.5987 47.8744 14.5014 48.7055 15.4882 48.5954C16.475 48.4854 17.1724 47.4758 17.0457 46.3402C16.9191 45.2047 16.0165 44.3734 15.0296 44.4835Z" fill="#64748B"/>
<path d="M45.119 44.9871L45.3227 46.8136L45.0043 46.8491L44.8718 45.6611L44.5791 46.8965L44.338 46.9234L43.778 45.7831L43.9105 46.9711L43.5921 47.0066L43.3884 45.1801L43.75 45.1398L44.4063 46.4415L44.7597 45.0272L45.119 44.9871ZM45.4742 46.0575C45.4579 45.911 45.4684 45.7783 45.5058 45.6593C45.5446 45.5401 45.6039 45.4453 45.6835 45.3745C45.7646 45.3036 45.859 45.2622 45.9667 45.2502C46.0606 45.2397 46.1449 45.2525 46.2196 45.2882C46.2956 45.3238 46.3586 45.3725 46.4085 45.4341L46.3855 45.2273L46.7061 45.1916L46.8678 46.6412L46.5472 46.677L46.5235 46.465C46.4902 46.5376 46.4396 46.6006 46.3719 46.6541C46.3055 46.7056 46.2252 46.7367 46.1313 46.7472C46.0251 46.7591 45.9246 46.7385 45.8297 46.6855C45.7363 46.6323 45.6575 46.552 45.5933 46.4443C45.5305 46.3347 45.4907 46.2057 45.4742 46.0575ZM46.4663 45.9522C46.4564 45.8632 46.4327 45.789 46.3955 45.7296C46.3579 45.6685 46.3115 45.6241 46.2563 45.5967C46.2007 45.5676 46.1436 45.5563 46.0845 45.5629C46.0253 45.5695 45.9726 45.5922 45.9263 45.6309C45.8799 45.6696 45.8444 45.7231 45.8198 45.7911C45.7964 45.8573 45.7897 45.934 45.7994 46.0212C45.8091 46.1085 45.8328 46.1835 45.8706 46.2464C45.9096 46.3074 45.9561 46.3525 46.01 46.3819C46.0654 46.4111 46.1219 46.4224 46.1796 46.416C46.2387 46.4094 46.2921 46.3866 46.3401 46.3477C46.3877 46.307 46.4231 46.2537 46.4465 46.1875C46.4695 46.1197 46.4762 46.0411 46.4663 45.9522ZM47.4213 45.4165L47.4995 46.1178C47.5049 46.1665 47.5189 46.2013 47.541 46.2217C47.5646 46.2403 47.6006 46.2469 47.6491 46.2415L47.797 46.225L47.8314 46.5338L47.6313 46.5561C47.3629 46.586 47.212 46.4509 47.1786 46.1509L47.1006 45.4522L46.9505 45.469L46.917 45.1681L47.0671 45.1513L47.0271 44.7928L47.3478 44.7571L47.3877 45.1156L47.6697 45.0841L47.7033 45.385L47.4213 45.4165ZM47.8977 45.7925C47.881 45.6424 47.8929 45.5087 47.9336 45.3911C47.9739 45.2718 48.0377 45.1765 48.125 45.1049C48.2118 45.0316 48.316 44.9882 48.4374 44.9747C48.5935 44.9573 48.7274 44.9883 48.8392 45.0676C48.9521 45.1451 49.0351 45.263 49.0881 45.4213L48.7447 45.4596C48.7195 45.3989 48.6829 45.3536 48.6352 45.3235C48.5885 45.2916 48.5335 45.2792 48.4698 45.2863C48.3789 45.2964 48.311 45.3428 48.2666 45.4255C48.2219 45.5064 48.2074 45.6166 48.2229 45.7563C48.2383 45.894 48.2767 45.9983 48.3384 46.0692C48.3997 46.1383 48.476 46.1678 48.567 46.1577C48.6958 46.1433 48.7726 46.0676 48.7973 45.9306L49.1407 45.8923C49.1232 46.0532 49.0681 46.1856 48.9754 46.2896C48.8826 46.3936 48.759 46.4542 48.6043 46.4714C48.483 46.4849 48.3719 46.4665 48.2712 46.4158C48.1701 46.3635 48.0868 46.2844 48.0214 46.1788C47.9556 46.0712 47.9145 45.9426 47.8977 45.7925ZM49.974 44.8059C50.0695 44.7953 50.1571 44.8103 50.2369 44.8508C50.3164 44.8896 50.3819 44.9538 50.4334 45.0435C50.4861 45.1313 50.5198 45.2405 50.5344 45.3713L50.6292 46.2217L50.3109 46.2572L50.2216 45.4565C50.2087 45.3414 50.1739 45.2562 50.117 45.2006C50.06 45.1434 49.9883 45.1196 49.9019 45.1292C49.8138 45.1391 49.7476 45.1782 49.7031 45.2468C49.6599 45.3135 49.6447 45.4043 49.6576 45.5194L49.7469 46.3201L49.4285 46.3556L49.2125 44.4193L49.5309 44.3838L49.6053 45.051C49.6393 44.9837 49.6884 44.9288 49.7527 44.8862C49.8169 44.842 49.8905 44.8152 49.974 44.8059ZM50.9126 44.5476C50.8564 44.5539 50.8072 44.5391 50.7649 44.5031C50.7238 44.4653 50.6999 44.416 50.693 44.3548C50.6862 44.2937 50.6988 44.2412 50.7307 44.197C50.7639 44.1509 50.8085 44.1247 50.8647 44.1185C50.9207 44.1122 50.9694 44.128 51.0104 44.1658C51.0528 44.2018 51.0774 44.2501 51.0842 44.3112C51.091 44.3723 51.0777 44.4259 51.0446 44.472C51.0127 44.5162 50.9686 44.5414 50.9126 44.5476ZM51.0887 44.7028L51.2504 46.1525L50.932 46.188L50.7704 44.7383L51.0887 44.7028ZM52.099 44.5689C52.2491 44.5522 52.3766 44.5936 52.4813 44.6932C52.5858 44.7911 52.649 44.9377 52.6708 45.133L52.7656 45.9835L52.4473 46.019L52.358 45.2183C52.3451 45.1031 52.3103 45.0179 52.2534 44.9624C52.1964 44.9051 52.1247 44.8813 52.0383 44.891C51.9504 44.9008 51.884 44.94 51.8395 45.0085C51.7963 45.0752 51.7811 45.166 51.794 45.2812L51.8833 46.0819L51.5649 46.1174L51.4032 44.6677L51.7216 44.6322L51.7417 44.8128C51.7771 44.7453 51.8256 44.6905 51.8869 44.6482C51.9495 44.6042 52.0203 44.5777 52.099 44.5689ZM53.3976 44.4215C53.4917 44.411 53.5766 44.4236 53.6528 44.4592C53.7288 44.4931 53.7909 44.5419 53.8395 44.6053L53.8164 44.3986L54.1371 44.3628L54.2999 45.823C54.3149 45.9573 54.3047 46.0794 54.2694 46.1893C54.2343 46.3009 54.1731 46.3925 54.0859 46.4641C53.9989 46.5374 53.8886 46.5815 53.7553 46.5963C53.5764 46.6163 53.4239 46.5847 53.2981 46.5016C53.1736 46.4184 53.0946 46.2948 53.061 46.1307L53.3771 46.0954C53.4012 46.1599 53.4426 46.2083 53.5015 46.2405C53.562 46.2744 53.6318 46.2869 53.7106 46.2781C53.803 46.2678 53.8745 46.2271 53.9249 46.1562C53.9756 46.087 53.9936 45.9879 53.9792 45.8587L53.9541 45.6337C53.9208 45.7063 53.8703 45.7692 53.8026 45.8228C53.7363 45.8762 53.657 45.9079 53.5645 45.9182C53.4585 45.93 53.3578 45.9095 53.2629 45.8565C53.1681 45.8035 53.0884 45.7232 53.0242 45.6155C52.9614 45.506 52.9217 45.377 52.9051 45.2288C52.8888 45.0822 52.8993 44.9495 52.9367 44.8305C52.9755 44.7113 53.0349 44.6165 53.1145 44.5458C53.1955 44.4748 53.2899 44.4335 53.3976 44.4215ZM53.8972 45.1234C53.8873 45.0345 53.8637 44.9603 53.8264 44.9008C53.7888 44.8397 53.7424 44.7953 53.6872 44.768C53.6318 44.7388 53.5745 44.7276 53.5154 44.7342C53.4562 44.7408 53.4035 44.7635 53.3572 44.8022C53.3108 44.8408 53.2754 44.8944 53.2507 44.9624C53.2273 45.0286 53.2206 45.1052 53.2303 45.1925C53.2401 45.2798 53.2637 45.3547 53.3015 45.4177C53.3405 45.4786 53.387 45.5238 53.4409 45.5532C53.4963 45.5824 53.5528 45.5937 53.6105 45.5872C53.6696 45.5806 53.7232 45.5578 53.771 45.519C53.8186 45.4783 53.8541 45.425 53.8774 45.3588C53.9006 45.2909 53.9072 45.2124 53.8972 45.1234ZM55.6363 45.6872C55.5331 45.6987 55.4384 45.688 55.3518 45.6553C55.2651 45.6209 55.1934 45.5696 55.1367 45.5018C55.0816 45.4338 55.0467 45.3555 55.0322 45.2671L55.3529 45.2313C55.3651 45.2865 55.3938 45.3301 55.4389 45.3621C55.4853 45.394 55.5397 45.4065 55.6019 45.3996C55.6625 45.3928 55.708 45.3735 55.7382 45.342C55.77 45.3102 55.7834 45.2724 55.7786 45.2289C55.7733 45.1818 55.7481 45.1492 55.7032 45.1313C55.6596 45.1114 55.5907 45.0926 55.4966 45.0749C55.3996 45.0592 55.3193 45.0407 55.2556 45.0196C55.1934 44.9984 55.1371 44.9613 55.0867 44.9086C55.0379 44.8558 55.0079 44.7806 54.997 44.6829C54.9881 44.6027 54.9996 44.5272 55.0316 44.4565C55.0652 44.3855 55.117 44.3268 55.187 44.2802C55.2585 44.2334 55.3451 44.2043 55.4466 44.1929C55.5967 44.1762 55.7213 44.2064 55.8205 44.2837C55.9195 44.3591 55.9817 44.4697 56.0071 44.6152L55.7024 44.6492C55.6914 44.5922 55.6651 44.5491 55.6236 44.5203C55.5833 44.4894 55.5321 44.4775 55.4699 44.4844C55.4122 44.4908 55.3689 44.508 55.3398 44.536C55.3122 44.5639 55.3009 44.5996 55.3057 44.6431C55.3112 44.6919 55.3366 44.7271 55.3819 44.7485C55.4271 44.7683 55.4958 44.7862 55.5883 44.8024C55.6821 44.8184 55.7602 44.8371 55.8224 44.8584C55.8847 44.8796 55.9404 44.9177 55.9894 44.9722C56.0398 45.0249 56.0712 45.0992 56.0833 45.1949C56.0926 45.2786 56.0805 45.3558 56.047 45.4268C56.0149 45.4975 55.9633 45.5563 55.8917 45.603C55.8215 45.6479 55.7363 45.676 55.6363 45.6872ZM56.2281 44.8635C56.2113 44.7134 56.2232 44.5796 56.2639 44.4621C56.3044 44.3427 56.3681 44.2474 56.4553 44.1758C56.5424 44.1025 56.6464 44.0591 56.7677 44.0456C56.9238 44.0282 57.0579 44.0592 57.1695 44.1386C57.2826 44.216 57.3655 44.3339 57.4185 44.4923L57.0751 44.5306C57.0499 44.4698 57.0134 44.4245 56.9655 44.3944C56.919 44.3625 56.8639 44.3501 56.8002 44.3572C56.7092 44.3674 56.6415 44.4137 56.597 44.4965C56.5522 44.5773 56.5377 44.6876 56.5533 44.8272C56.5686 44.965 56.6071 45.0693 56.6688 45.1402C56.7302 45.2092 56.8064 45.2387 56.8974 45.2286C57.0262 45.2142 57.1029 45.1385 57.1276 45.0016L57.471 44.9633C57.4536 45.1242 57.3986 45.2565 57.3058 45.3606C57.213 45.4646 57.0893 45.5251 56.9346 45.5424C56.8133 45.5559 56.7024 45.5374 56.6015 45.4868C56.5005 45.4345 56.4173 45.3554 56.3517 45.2497C56.286 45.1422 56.2448 45.0136 56.2281 44.8635ZM58.3209 45.3877C58.1996 45.4013 58.087 45.383 57.9832 45.3327C57.8792 45.2807 57.7927 45.2012 57.724 45.094C57.6568 44.9867 57.6149 44.8589 57.5984 44.7106C57.5819 44.5624 57.5954 44.4285 57.6388 44.3088C57.6838 44.1889 57.752 44.0931 57.8438 44.021C57.9354 43.9472 58.0417 43.9035 58.1631 43.89C58.2844 43.8765 58.3977 43.8956 58.5033 43.9474C58.6087 43.9975 58.6958 44.076 58.7645 44.1832C58.8348 44.2902 58.8781 44.4179 58.8947 44.5661C58.9112 44.7143 58.8962 44.8484 58.8497 44.9685C58.8047 45.0884 58.7358 45.1852 58.6427 45.2591C58.5509 45.3312 58.4437 45.3741 58.3209 45.3877ZM58.2853 45.0685C58.343 45.0621 58.395 45.0404 58.4415 45.0034C58.4893 44.9646 58.5248 44.911 58.548 44.8432C58.5712 44.7753 58.5775 44.6951 58.5672 44.6026C58.5518 44.4648 58.5082 44.3628 58.4364 44.2966C58.3658 44.2286 58.2851 44.1996 58.1941 44.2097C58.1032 44.2199 58.0308 44.266 57.977 44.3479C57.9246 44.4279 57.906 44.5369 57.9213 44.6746C57.9367 44.8124 57.9781 44.9156 58.0456 44.984C58.1144 45.0505 58.1943 45.0787 58.2853 45.0685ZM59.3909 44.0047C59.4233 43.9233 59.4695 43.8573 59.5299 43.8064C59.5917 43.7554 59.6651 43.7251 59.7501 43.7156L59.793 44.1003L59.7088 44.1097C59.6088 44.1208 59.5359 44.1564 59.4904 44.2162C59.4464 44.2758 59.4319 44.3727 59.4469 44.5071L59.5275 45.2293L59.2091 45.2648L59.0474 43.8152L59.3658 43.7797L59.3909 44.0047ZM61.2153 44.2755C61.2212 44.3278 61.2233 44.3752 61.222 44.4178L60.301 44.5205C60.3201 44.6243 60.3611 44.7028 60.4239 44.7558C60.4866 44.8088 60.5589 44.8308 60.6408 44.8217C60.759 44.8085 60.8367 44.7406 60.8737 44.6182L61.2171 44.5799C61.1962 44.7236 61.1392 44.8465 61.0464 44.9487C60.9531 45.0491 60.8316 45.1077 60.6815 45.1245C60.5601 45.138 60.4476 45.1197 60.3438 45.0694C60.2413 45.0173 60.1564 44.9376 60.0892 44.8302C60.0234 44.7227 59.9823 44.5948 59.9658 44.4466C59.949 44.2965 59.9608 44.162 60.0013 44.0426C60.0416 43.9233 60.1063 43.8279 60.195 43.7561C60.2837 43.6843 60.3901 43.6416 60.5145 43.6277C60.6342 43.6144 60.7444 43.6322 60.8451 43.6809C60.9472 43.7295 61.0301 43.806 61.094 43.9102C61.159 44.0125 61.1996 44.1342 61.2153 44.2755ZM60.8739 44.2076C60.8618 44.1136 60.8239 44.0419 60.7601 43.9924C60.696 43.9413 60.6223 43.9204 60.539 43.9297C60.4601 43.9385 60.3966 43.9737 60.3482 44.0357C60.3011 44.0957 60.2769 44.1752 60.2758 44.2743L60.8739 44.2076ZM62.2169 44.9479C62.1594 44.9544 62.1094 44.9397 62.0669 44.9037C62.0259 44.8659 62.0019 44.8166 61.9951 44.7554C61.9883 44.6943 62.0009 44.6418 62.0328 44.5976C62.0661 44.5515 62.1115 44.5252 62.169 44.5188C62.2252 44.5125 62.2737 44.5283 62.3148 44.5661C62.3556 44.6023 62.3794 44.6507 62.3863 44.7118C62.3931 44.7729 62.3806 44.8264 62.3489 44.8723C62.317 44.9165 62.2731 44.9417 62.2169 44.9479ZM62.0961 43.8646C62.0386 43.871 61.9886 43.8564 61.9461 43.8204C61.905 43.7826 61.8811 43.7332 61.8743 43.6721C61.8675 43.611 61.88 43.5585 61.912 43.5143C61.9453 43.4682 61.9907 43.4419 62.0482 43.4355C62.1044 43.4292 62.1529 43.445 62.1939 43.4828C62.2348 43.519 62.2586 43.5674 62.2654 43.6285C62.2723 43.6896 62.2598 43.7431 62.2281 43.789C62.1962 43.8332 62.1523 43.8584 62.0961 43.8646ZM63.3416 43.7814C63.1799 43.7076 63.0884 43.5755 63.0672 43.3854C63.0567 43.2912 63.0676 43.2035 63.1 43.1221C63.1337 43.0389 63.1898 42.97 63.2681 42.9153C63.3478 42.8587 63.4481 42.8237 63.5695 42.8102C63.6908 42.7966 63.7958 42.8088 63.8843 42.8466C63.9744 42.8825 64.0441 42.9374 64.0938 43.0113C64.1448 43.0834 64.1756 43.1664 64.1861 43.2606C64.1968 43.3565 64.1858 43.4435 64.153 43.5213C64.12 43.5975 64.0717 43.6592 64.0079 43.707C64.0959 43.7396 64.1681 43.7935 64.2239 43.8684C64.2798 43.9433 64.314 44.0359 64.3262 44.1458C64.3395 44.2644 64.3246 44.3711 64.2814 44.466C64.2396 44.559 64.1758 44.6341 64.0901 44.6913C64.0044 44.7486 63.9047 44.7836 63.791 44.7962C63.6772 44.8089 63.5723 44.7968 63.4761 44.7598C63.3813 44.7227 63.3027 44.6635 63.2398 44.5822C63.1784 44.499 63.141 44.3981 63.1278 44.2794C63.1155 44.1695 63.1285 44.0718 63.1665 43.9863C63.2043 43.899 63.2628 43.8308 63.3416 43.7814ZM63.8826 43.3475C63.8731 43.2621 63.843 43.1982 63.7922 43.1562C63.743 43.114 63.6798 43.0972 63.6024 43.1059C63.5266 43.1143 63.4686 43.1446 63.4284 43.1968C63.3896 43.2488 63.3752 43.3184 63.3849 43.4056C63.3937 43.4841 63.4234 43.5444 63.4741 43.5864C63.5263 43.6283 63.5889 43.6452 63.6617 43.637C63.7344 43.6289 63.7918 43.5987 63.8334 43.5464C63.875 43.4923 63.8914 43.426 63.8826 43.3475ZM63.6914 43.9039C63.605 43.9136 63.5373 43.9467 63.4884 44.0034C63.4409 44.06 63.4225 44.1353 63.433 44.2295C63.4428 44.3168 63.4766 44.3853 63.5343 44.4354C63.5934 44.4835 63.6676 44.5027 63.7571 44.4927C63.8466 44.4827 63.914 44.447 63.9593 44.3854C64.0045 44.3237 64.0225 44.2502 64.0129 44.1648C64.0026 44.0723 63.9682 44.0038 63.9094 43.9591C63.8505 43.9127 63.7779 43.8943 63.6914 43.9039ZM64.529 43.6807C64.4953 43.3789 64.5159 43.1374 64.5909 42.9559C64.6673 42.7742 64.8155 42.6712 65.0353 42.6467C65.2551 42.6222 65.4215 42.6901 65.5346 42.8506C65.6492 43.011 65.7233 43.2419 65.757 43.5438C65.7909 43.8473 65.7697 44.0907 65.6934 44.2741C65.6186 44.4573 65.4713 44.5611 65.2515 44.5857C65.0318 44.6102 64.8644 44.5414 64.7496 44.3794C64.6363 44.2171 64.5628 43.9843 64.529 43.6807ZM65.4432 43.5788C65.4288 43.4496 65.4091 43.3424 65.3842 43.2568C65.3607 43.1694 65.3239 43.1003 65.2736 43.0493C65.225 42.9981 65.1582 42.9774 65.0732 42.9869C64.9883 42.9963 64.9271 43.0314 64.8893 43.0921C64.8531 43.1528 64.8323 43.2283 64.8271 43.319C64.8232 43.4078 64.8284 43.5166 64.8428 43.6457C64.8576 43.7782 64.8769 43.8892 64.9006 43.9784C64.9242 44.0658 64.961 44.135 65.0113 44.1859C65.0613 44.235 65.1286 44.255 65.2136 44.2455C65.2986 44.236 65.3599 44.2017 65.3979 44.1428C65.4357 44.082 65.4563 44.0065 65.4601 43.916C65.4636 43.8238 65.458 43.7113 65.4432 43.5788ZM65.9114 43.0603C65.8967 42.9278 65.9184 42.8201 65.9768 42.7377C66.0366 42.6552 66.1197 42.6079 66.2258 42.596C66.3318 42.5842 66.4224 42.6121 66.4976 42.6796C66.5741 42.747 66.6199 42.8471 66.6346 42.9796C66.6496 43.114 66.6272 43.2225 66.5673 43.305C66.5089 43.3874 66.4267 43.4346 66.3206 43.4465C66.2145 43.4583 66.1231 43.4305 66.0465 43.3631C65.9714 43.2956 65.9264 43.1947 65.9114 43.0603ZM67.3277 42.5049L66.6382 44.4363L66.3289 44.4708L67.0161 42.5397L67.3277 42.5049ZM66.248 42.8161C66.1647 42.8254 66.1305 42.8981 66.1457 43.0342C66.161 43.1719 66.2105 43.2362 66.2938 43.2269C66.3348 43.2224 66.3647 43.2022 66.3838 43.1666C66.4026 43.1291 66.4082 43.0755 66.4004 43.0057C66.3852 42.8697 66.3344 42.8065 66.248 42.8161ZM67.0262 43.993C67.0113 43.8586 67.033 43.7512 67.0916 43.6704C67.1514 43.5879 67.2345 43.5406 67.3406 43.5288C67.4466 43.5169 67.5366 43.5449 67.6101 43.6126C67.685 43.6784 67.7299 43.7785 67.7449 43.9128C67.7599 44.0472 67.7382 44.1556 67.6798 44.238C67.623 44.3202 67.5415 44.3674 67.4354 44.3792C67.3277 44.3912 67.2364 44.3633 67.1613 44.2958C67.0862 44.2283 67.0412 44.1274 67.0262 43.993ZM67.3628 43.7488C67.2764 43.7585 67.2407 43.8313 67.2559 43.9674C67.2713 44.1051 67.3222 44.1693 67.4086 44.1596C67.4936 44.1502 67.5283 44.0765 67.5129 43.9387C67.4977 43.8026 67.4477 43.7393 67.3628 43.7488Z" fill="black"/>
<mask id="mask1_221_5682" style="mask-type:luminance" maskUnits="userSpaceOnUse" x="87" y="31" width="17" height="19">
<path d="M101.725 31.44L87.5928 33.0161L89.4063 49.277L103.538 47.7008L101.725 31.44Z" fill="white"/>
</mask>
<g mask="url(#mask1_221_5682)">
<path fill-rule="evenodd" clip-rule="evenodd" d="M96.1296 45.7832C99.3818 45.4204 101.68 42.0931 101.262 38.3511C100.845 34.609 97.8706 31.8697 94.6184 32.2324C91.3662 32.5952 89.0683 35.9225 89.4856 39.6645C89.903 43.4066 92.8775 46.1459 96.1296 45.7832ZM98.2975 36.5107C98.3213 36.4749 98.3386 36.4338 98.3482 36.3898C98.3578 36.3458 98.3594 36.2996 98.353 36.2544C98.3466 36.2091 98.3324 36.1654 98.3112 36.126C98.2899 36.0865 98.262 36.0522 98.2292 36.025C98.1966 35.9976 98.1595 35.9781 98.1205 35.9675C98.0815 35.9567 98.0412 35.9551 98.002 35.9625C97.9629 35.9701 97.9258 35.9865 97.8929 36.0112C97.8599 36.0357 97.8319 36.0678 97.8103 36.1054L94.7835 40.983L92.6057 39.0683C92.5422 39.0125 92.4629 38.9871 92.385 38.9979C92.3073 39.0086 92.2372 39.0545 92.1906 39.1255C92.1439 39.1964 92.1242 39.2868 92.136 39.3763C92.1478 39.466 92.1899 39.5476 92.2534 39.6035L94.6772 41.734L94.9226 41.9502L95.0967 41.6694L98.2975 36.5107Z" fill="#008D36"/>
</g>
<path d="M104.966 53.1241L10.2639 63.6859C8.20054 63.916 6.74248 66.0272 7.00727 68.4014L8.75825 84.1015C9.02304 86.4757 10.9104 88.2138 12.9738 87.9837L107.675 77.4219C109.739 77.1918 111.197 75.0806 110.932 72.7064L109.181 57.0063C108.916 54.6321 107.029 52.894 104.966 53.1241Z" fill="#F9FAFC"/>
<path fill-rule="evenodd" clip-rule="evenodd" d="M17.7393 68.7815C18.5214 68.6943 19.3157 68.7853 20.0768 69.0492C20.8378 69.3129 21.5507 69.7445 22.1747 70.3192C22.7988 70.8939 23.3218 71.6005 23.7138 72.3985C24.1058 73.1966 24.3594 74.0706 24.4597 74.9706C24.8819 78.7556 22.5574 82.1213 19.2679 82.4881C15.9785 82.855 12.9697 80.0841 12.5475 76.2991C12.1254 72.5142 14.4498 69.1484 17.7393 68.7815ZM19.1757 76.2538L17.9844 76.3866C16.5099 76.5511 15.3586 77.7199 14.9761 79.2476C15.9955 80.545 17.5137 81.2959 19.115 81.1174C20.7164 80.9388 22.0319 79.8718 22.7404 78.3815C22.0308 76.9758 20.6502 76.0893 19.1757 76.2538ZM17.9686 70.8375C16.9817 70.9476 16.2844 71.9573 16.411 73.0928C16.5377 74.2284 17.4403 75.0595 18.4272 74.9494C19.414 74.8394 20.1113 73.8298 19.9847 72.6942C19.8581 71.5587 18.9554 70.7274 17.9686 70.8375Z" fill="#64748B"/>
<path d="M48.0585 71.3411L48.2621 73.1676L47.9438 73.2031L47.8113 72.0151L47.5185 73.2505L47.2774 73.2774L46.7174 72.1371L46.8499 73.3251L46.5315 73.3606L46.3278 71.5341L46.6894 71.4938L47.3457 72.7955L47.6991 71.3812L48.0585 71.3411ZM48.4137 72.4115C48.3973 72.265 48.4079 72.1323 48.4452 72.0133C48.4841 71.8941 48.5434 71.7993 48.623 71.7285C48.7041 71.6576 48.7984 71.6162 48.9061 71.6042C49 71.5937 49.0843 71.6065 49.159 71.6422C49.2351 71.6779 49.298 71.7265 49.348 71.7881L49.3249 71.5813L49.6456 71.5456L49.8073 72.9952L49.4866 73.031L49.463 72.819C49.4296 72.8916 49.3791 72.9546 49.3114 73.0082C49.2449 73.0597 49.1647 73.0907 49.0708 73.1012C48.9646 73.1131 48.8641 73.0925 48.7692 73.0395C48.6758 72.9863 48.5969 72.906 48.5328 72.7983C48.4699 72.6887 48.4302 72.5597 48.4137 72.4115ZM49.4058 72.3062C49.3959 72.2172 49.3721 72.143 49.3349 72.0836C49.2973 72.0225 49.2509 71.9781 49.1958 71.9508C49.1402 71.9216 49.083 71.9103 49.0239 71.9169C48.9648 71.9235 48.9121 71.9463 48.8657 71.9849C48.8194 72.0236 48.7839 72.0771 48.7593 72.1451C48.7359 72.2113 48.7291 72.288 48.7389 72.3753C48.7486 72.4625 48.7723 72.5375 48.81 72.6004C48.8491 72.6614 48.8955 72.7065 48.9495 72.7359C49.0049 72.7651 49.0614 72.7764 49.119 72.77C49.1782 72.7634 49.2315 72.7406 49.2795 72.7017C49.3271 72.6611 49.3626 72.6077 49.386 72.5415C49.409 72.4737 49.4157 72.3951 49.4058 72.3062ZM50.3607 71.7705L50.439 72.4718C50.4444 72.5205 50.4583 72.5553 50.4805 72.5758C50.5041 72.5943 50.54 72.6009 50.5886 72.5955L50.7364 72.579L50.7709 72.8878L50.5707 72.9101C50.3024 72.94 50.1515 72.8049 50.118 72.5049L50.0401 71.8063L49.89 71.823L49.8564 71.5221L50.0065 71.5053L49.9666 71.1468L50.2872 71.1111L50.3272 71.4696L50.6092 71.4381L50.6427 71.739L50.3607 71.7705ZM50.8372 72.1465C50.8204 71.9965 50.8323 71.8627 50.873 71.7452C50.9133 71.6258 50.9772 71.5305 51.0644 71.4589C51.1513 71.3856 51.2555 71.3422 51.3768 71.3287C51.5329 71.3113 51.6668 71.3423 51.7786 71.4216C51.8915 71.4991 51.9746 71.617 52.0276 71.7753L51.6842 71.8136C51.659 71.7529 51.6224 71.7076 51.5746 71.6775C51.528 71.6456 51.473 71.6332 51.4093 71.6403C51.3183 71.6505 51.2505 71.6968 51.2061 71.7795C51.1613 71.8604 51.1468 71.9706 51.1624 72.1103C51.1777 72.248 51.2162 72.3523 51.2779 72.4232C51.3392 72.4923 51.4155 72.5218 51.5065 72.5117C51.6353 72.4973 51.712 72.4216 51.7367 72.2846L52.0801 72.2463C52.0627 72.4072 52.0076 72.5396 51.9149 72.6436C51.8221 72.7476 51.6984 72.8082 51.5438 72.8254C51.4224 72.8389 51.3113 72.8205 51.2106 72.7698C51.1096 72.7175 51.0262 72.6385 50.9608 72.5328C50.8951 72.4252 50.8539 72.2966 50.8372 72.1465ZM52.9135 71.1599C53.009 71.1493 53.0965 71.1643 53.1763 71.2048C53.2558 71.2436 53.3214 71.3078 53.3728 71.3975C53.4255 71.4853 53.4593 71.5945 53.4738 71.7253L53.5687 72.5757L53.2503 72.6112L53.161 71.8105C53.1482 71.6954 53.1133 71.6102 53.0565 71.5546C52.9995 71.4974 52.9277 71.4736 52.8413 71.4832C52.7533 71.4931 52.6871 71.5322 52.6426 71.6008C52.5994 71.6675 52.5842 71.7583 52.597 71.8734L52.6863 72.6741L52.3679 72.7097L52.152 70.7733L52.4704 70.7378L52.5448 71.405C52.5787 71.3377 52.6279 71.2828 52.6922 71.2403C52.7563 71.196 52.83 71.1693 52.9135 71.1599ZM53.852 70.9016C53.7958 70.9079 53.7466 70.8931 53.7043 70.8572C53.6632 70.8193 53.6393 70.77 53.6325 70.7089C53.6257 70.6477 53.6383 70.5952 53.6702 70.551C53.7033 70.5049 53.7479 70.4787 53.8041 70.4725C53.8602 70.4662 53.9088 70.482 53.9499 70.5198C53.9922 70.5558 54.0168 70.6041 54.0237 70.6652C54.0305 70.7264 54.0172 70.7799 53.984 70.826C53.9521 70.8702 53.9081 70.8954 53.852 70.9016ZM54.0282 71.0568L54.1899 72.5065L53.8715 72.542L53.7098 71.0923L54.0282 71.0568ZM55.0385 70.9229C55.1886 70.9062 55.3161 70.9476 55.4207 71.0472C55.5252 71.1451 55.5885 71.2917 55.6102 71.487L55.7051 72.3375L55.3867 72.373L55.2974 71.5723C55.2846 71.4571 55.2497 71.3719 55.1929 71.3164C55.1359 71.2591 55.0641 71.2353 54.9777 71.245C54.8898 71.2548 54.8235 71.294 54.779 71.3625C54.7358 71.4292 54.7206 71.52 54.7334 71.6352L54.8227 72.4359L54.5043 72.4714L54.3427 71.0217L54.661 70.9862L54.6812 71.1668C54.7166 71.0993 54.7651 71.0445 54.8263 71.0022C54.889 70.9582 54.9597 70.9317 55.0385 70.9229ZM56.3371 70.7755C56.4311 70.765 56.5161 70.7776 56.5922 70.8132C56.6682 70.8472 56.7304 70.8959 56.7789 70.9593L56.7559 70.7526L57.0765 70.7168L57.2393 72.177C57.2543 72.3113 57.2441 72.4334 57.2088 72.5433C57.1738 72.6549 57.1126 72.7465 57.0254 72.8181C56.9383 72.8914 56.8281 72.9355 56.6947 72.9503C56.5159 72.9703 56.3634 72.9387 56.2375 72.8556C56.1131 72.7724 56.034 72.6488 56.0004 72.4847L56.3165 72.4494C56.3407 72.5139 56.3821 72.5623 56.4409 72.5945C56.5015 72.6284 56.5713 72.6409 56.65 72.6321C56.7425 72.6218 56.8139 72.5811 56.8644 72.5102C56.915 72.441 56.9331 72.3419 56.9187 72.2127L56.8936 71.9877C56.8603 72.0603 56.8097 72.1233 56.742 72.1768C56.6758 72.2302 56.5964 72.2619 56.504 72.2722C56.3979 72.284 56.2973 72.2635 56.2024 72.2105C56.1075 72.1575 56.0278 72.0772 55.9637 71.9695C55.9008 71.86 55.8611 71.731 55.8446 71.5828C55.8282 71.4362 55.8388 71.3036 55.8761 71.1845C55.915 71.0653 55.9743 70.9705 56.0539 70.8998C56.135 70.8289 56.2294 70.7875 56.3371 70.7755ZM56.8367 71.4774C56.8268 71.3885 56.8032 71.3143 56.7658 71.2548C56.7283 71.1938 56.6819 71.1493 56.6267 71.122C56.5713 71.0928 56.514 71.0816 56.4548 71.0882C56.3957 71.0948 56.343 71.1175 56.2966 71.1562C56.2503 71.1948 56.2148 71.2484 56.1902 71.3164C56.1668 71.3826 56.1601 71.4592 56.1698 71.5465C56.1795 71.6338 56.2032 71.7087 56.2409 71.7717C56.28 71.8326 56.3265 71.8778 56.3804 71.9072C56.4358 71.9364 56.4923 71.9477 56.55 71.9412C56.6091 71.9346 56.6626 71.9118 56.7104 71.873C56.758 71.8323 56.7935 71.779 56.8169 71.7128C56.8401 71.6449 56.8466 71.5664 56.8367 71.4774ZM58.5757 72.0412C58.4726 72.0527 58.3778 72.042 58.2913 72.0093C58.2046 71.9749 58.1329 71.9236 58.0762 71.8558C58.021 71.7878 57.9862 71.7095 57.9717 71.6211L58.2923 71.5853C58.3046 71.6405 58.3333 71.6841 58.3783 71.7161C58.4248 71.748 58.4791 71.7605 58.5414 71.7536C58.6019 71.7468 58.6475 71.7275 58.6777 71.696C58.7095 71.6642 58.7229 71.6264 58.718 71.5829C58.7128 71.5358 58.6876 71.5032 58.6427 71.4853C58.599 71.4654 58.5301 71.4466 58.4361 71.4289C58.3391 71.4132 58.2588 71.3947 58.1951 71.3736C58.1328 71.3524 58.0766 71.3153 58.0261 71.2626C57.9773 71.2098 57.9474 71.1346 57.9365 71.0369C57.9275 70.9567 57.939 70.8812 57.9711 70.8105C58.0046 70.7396 58.0564 70.6808 58.1264 70.6342C58.198 70.5874 58.2845 70.5583 58.3861 70.547C58.5362 70.5302 58.6607 70.5604 58.76 70.6377C58.859 70.7131 58.9212 70.8237 58.9466 70.9692L58.6419 71.0032C58.6309 70.9462 58.6046 70.9031 58.563 70.8743C58.5227 70.8434 58.4716 70.8315 58.4094 70.8384C58.3517 70.8448 58.3084 70.862 58.2793 70.89C58.2516 70.9179 58.2403 70.9536 58.2452 70.9971C58.2506 71.0459 58.2761 71.0811 58.3214 71.1026C58.3665 71.1223 58.4353 71.1402 58.5277 71.1564C58.6216 71.1724 58.6997 71.1911 58.7619 71.2124C58.8241 71.2336 58.8798 71.2717 58.9289 71.3262C58.9793 71.3789 59.0106 71.4532 59.0228 71.5489C59.0321 71.6326 59.02 71.7099 58.9865 71.7808C58.9544 71.8515 58.9027 71.9103 58.8311 71.957C58.761 72.002 58.6758 72.03 58.5757 72.0412ZM59.1675 71.2175C59.1508 71.0674 59.1627 70.9336 59.2033 70.8161C59.2438 70.6967 59.3075 70.6014 59.3948 70.5298C59.4818 70.4565 59.5858 70.4131 59.7072 70.3996C59.8633 70.3822 59.9973 70.4132 60.109 70.4926C60.222 70.57 60.3049 70.6879 60.3579 70.8463L60.0145 70.8846C59.9893 70.8238 59.9529 70.7785 59.9049 70.7484C59.8585 70.7165 59.8033 70.7041 59.7396 70.7113C59.6487 70.7214 59.581 70.7677 59.5364 70.8505C59.4917 70.9314 59.4772 71.0416 59.4927 71.1812C59.5081 71.319 59.5465 71.4233 59.6082 71.4942C59.6697 71.5632 59.7458 71.5928 59.8368 71.5826C59.9656 71.5682 60.0424 71.4925 60.0671 71.3556L60.4105 71.3173C60.393 71.4782 60.3381 71.6105 60.2452 71.7146C60.1524 71.8186 60.0287 71.8791 59.8741 71.8964C59.7528 71.9099 59.6418 71.8914 59.541 71.8408C59.4399 71.7885 59.3567 71.7094 59.2912 71.6037C59.2254 71.4962 59.1843 71.3676 59.1675 71.2175ZM61.2604 71.7418C61.139 71.7553 61.0265 71.737 60.9227 71.6867C60.8187 71.6347 60.7322 71.5552 60.6635 71.448C60.5963 71.3407 60.5544 71.2129 60.5379 71.0647C60.5213 70.9164 60.5348 70.7825 60.5782 70.6628C60.6232 70.5429 60.6915 70.4471 60.7833 70.375C60.8749 70.3012 60.9812 70.2575 61.1025 70.244C61.2239 70.2305 61.3372 70.2496 61.4428 70.3014C61.5482 70.3515 61.6352 70.43 61.7039 70.5372C61.7742 70.6442 61.8176 70.7719 61.8341 70.9201C61.8506 71.0683 61.8357 71.2024 61.7892 71.3225C61.7442 71.4424 61.6752 71.5392 61.5822 71.6131C61.4904 71.6853 61.3832 71.7281 61.2604 71.7418ZM61.2247 71.4225C61.2824 71.4161 61.3344 71.3944 61.381 71.3574C61.4288 71.3186 61.4642 71.265 61.4874 71.1972C61.5106 71.1293 61.517 71.0491 61.5066 70.9566C61.4913 70.8189 61.4477 70.7168 61.3758 70.6506C61.3052 70.5826 61.2245 70.5536 61.1336 70.5637C61.0426 70.5739 60.9703 70.62 60.9164 70.7019C60.864 70.7819 60.8454 70.8909 60.8608 71.0286C60.8761 71.1664 60.9176 71.2696 60.9851 71.338C61.0538 71.4045 61.1338 71.4327 61.2247 71.4225ZM62.3303 70.3587C62.3627 70.2774 62.409 70.2113 62.4694 70.1604C62.5311 70.1095 62.6046 70.0791 62.6895 70.0696L62.7324 70.4543L62.6483 70.4637C62.5482 70.4748 62.4754 70.5104 62.4299 70.5702C62.3859 70.6298 62.3714 70.7268 62.3864 70.8611L62.4669 71.5833L62.1485 71.6189L61.9869 70.1692L62.3052 70.1337L62.3303 70.3587ZM64.1548 70.6295C64.1606 70.6818 64.1628 70.7293 64.1614 70.7718L63.2404 70.8745C63.2596 70.9783 63.3006 71.0568 63.3634 71.1098C63.426 71.1628 63.4984 71.1848 63.5802 71.1757C63.6985 71.1625 63.7761 71.0946 63.8131 70.9722L64.1565 70.9339C64.1357 71.0776 64.0787 71.2005 63.9858 71.3027C63.8926 71.4032 63.771 71.4618 63.6209 71.4785C63.4996 71.492 63.387 71.4737 63.2832 71.4234C63.1807 71.3713 63.0958 71.2916 63.0286 71.1842C62.9628 71.0767 62.9218 70.9488 62.9052 70.8006C62.8885 70.6505 62.9003 70.516 62.9408 70.3966C62.9811 70.2773 63.0458 70.1819 63.1344 70.1101C63.2231 70.0383 63.3296 69.9956 63.454 69.9817C63.5737 69.9684 63.6839 69.9862 63.7846 70.0349C63.8867 70.0835 63.9695 70.16 64.0335 70.2642C64.0985 70.3665 64.139 70.4882 64.1548 70.6295ZM63.8134 70.5616C63.8012 70.4676 63.7633 70.3959 63.6996 70.3464C63.6355 70.2953 63.5618 70.2744 63.4784 70.2837C63.3995 70.2925 63.336 70.3278 63.2877 70.3897C63.2406 70.4497 63.2164 70.5292 63.2153 70.6283L63.8134 70.5616ZM65.1563 71.3019C65.0988 71.3084 65.0489 71.2937 65.0064 71.2577C64.9653 71.2199 64.9414 71.1706 64.9346 71.1094C64.9278 71.0483 64.9403 70.9958 64.9722 70.9516C65.0056 70.9055 65.051 70.8792 65.1085 70.8728C65.1647 70.8665 65.2132 70.8823 65.2542 70.9201C65.2951 70.9563 65.3189 71.0047 65.3257 71.0658C65.3325 71.1269 65.3201 71.1804 65.2884 71.2263C65.2565 71.2705 65.2126 71.2957 65.1563 71.3019ZM65.0355 70.2186C64.978 70.2251 64.928 70.2104 64.8855 70.1744C64.8445 70.1366 64.8206 70.0873 64.8137 70.0261C64.8069 69.965 64.8195 69.9125 64.8514 69.8683C64.8847 69.8222 64.9302 69.7959 64.9877 69.7895C65.0439 69.7832 65.0923 69.799 65.1334 69.8368C65.1743 69.873 65.1981 69.9214 65.2049 69.9825C65.2117 70.0436 65.1993 70.0971 65.1675 70.143C65.1356 70.1872 65.0917 70.2124 65.0355 70.2186ZM66.9897 69.4285L66.5665 71.1261L66.2436 71.1621L66.6759 69.5058L65.8982 69.5926L65.8632 69.2786L66.9593 69.1563L66.9897 69.4285ZM67.253 70.0588C67.2194 69.7569 67.24 69.5154 67.3149 69.3339C67.3914 69.1522 67.5396 69.0492 67.7594 69.0247C67.9791 69.0002 68.1456 69.0681 68.2587 69.2287C68.3733 69.389 68.4474 69.6199 68.4811 69.9218C68.5149 70.2253 68.4937 70.4688 68.4175 70.6521C68.3427 70.8353 68.1954 70.9392 67.9756 70.9637C67.7558 70.9882 67.5885 70.9194 67.4737 70.7574C67.3604 70.5952 67.2869 70.3623 67.253 70.0588ZM68.1672 69.9568C68.1528 69.8276 68.1331 69.7205 68.1083 69.6349C68.0847 69.5474 68.0479 69.4783 67.9977 69.4273C67.949 69.3762 67.8823 69.3554 67.7973 69.3649C67.7123 69.3744 67.6511 69.4094 67.6133 69.4702C67.5772 69.5308 67.5563 69.6064 67.5511 69.697C67.5472 69.7858 67.5525 69.8946 67.5669 70.0238C67.5816 70.1563 67.6009 70.2673 67.6247 70.3564C67.6482 70.4439 67.6851 70.513 67.7353 70.564C67.7854 70.6131 67.8527 70.633 67.9377 70.6235C68.0226 70.614 68.0839 70.5798 68.1219 70.5208C68.1597 70.46 68.1804 70.3845 68.1841 70.294C68.1877 70.2018 68.182 70.0893 68.1672 69.9568ZM68.6355 69.4383C68.6207 69.3058 68.6424 69.1982 68.7008 69.1158C68.7607 69.0332 68.8436 68.9859 68.9498 68.9741C69.0559 68.9622 69.1465 68.9902 69.2216 69.0577C69.2982 69.125 69.3439 69.2251 69.3587 69.3576C69.3737 69.492 69.3512 69.6005 69.2914 69.6831C69.233 69.7655 69.1507 69.8127 69.0447 69.8245C68.9384 69.8363 68.8472 69.8085 68.7706 69.7411C68.6955 69.6736 68.6505 69.5727 68.6355 69.4383ZM70.0517 68.883L69.3623 70.8143L69.053 70.8488L69.7402 68.9177L70.0517 68.883ZM68.9721 69.1941C68.8886 69.2034 68.8546 69.2761 68.8697 69.4122C68.8851 69.5499 68.9344 69.6143 69.0179 69.605C69.0588 69.6004 69.0888 69.5802 69.1078 69.5446C69.1267 69.5071 69.1322 69.4535 69.1245 69.3838C69.1093 69.2477 69.0585 69.1845 68.9721 69.1941ZM69.7503 70.371C69.7353 70.2366 69.757 70.1292 69.8156 70.0485C69.8755 69.9659 69.9584 69.9186 70.0646 69.9068C70.1707 69.895 70.2605 69.923 70.3341 69.9906C70.4089 70.0565 70.4539 70.1565 70.4689 70.2909C70.4839 70.4253 70.4621 70.5337 70.4039 70.616C70.3469 70.6983 70.2655 70.7454 70.1595 70.7572C70.0518 70.7692 69.9603 70.7414 69.8854 70.6739C69.8103 70.6064 69.7653 70.5054 69.7503 70.371ZM70.0869 70.1268C70.0004 70.1365 69.9648 70.2093 69.98 70.3454C69.9953 70.4832 70.0462 70.5473 70.1327 70.5377C70.2175 70.5282 70.2523 70.4545 70.237 70.3167C70.2218 70.1807 70.1716 70.1174 70.0869 70.1268Z" fill="black"/>
<mask id="mask2_221_5682" style="mask-type:luminance" maskUnits="userSpaceOnUse" x="90" y="57" width="17" height="19">
<path d="M104.502 57.8121L90.3696 59.3882L92.1831 75.649L106.315 74.0729L104.502 57.8121Z" fill="white"/>
</mask>
<g mask="url(#mask2_221_5682)">
<path fill-rule="evenodd" clip-rule="evenodd" d="M98.9065 72.1552C102.159 71.7925 104.457 68.4652 104.039 64.7232C103.622 60.9811 100.647 58.2418 97.3952 58.6045C94.1431 58.9672 91.8451 62.2945 92.2625 66.0366C92.6798 69.7786 95.6543 72.5179 98.9065 72.1552ZM101.074 62.8828C101.098 62.847 101.115 62.8059 101.125 62.7619C101.135 62.7179 101.136 62.6717 101.13 62.6264C101.123 62.5811 101.109 62.5375 101.088 62.4981C101.067 62.4586 101.039 62.4243 101.006 62.3971C100.973 62.3697 100.936 62.3501 100.897 62.3396C100.858 62.3288 100.818 62.3272 100.779 62.3346C100.74 62.3422 100.703 62.3586 100.67 62.3833C100.637 62.4078 100.609 62.4399 100.587 62.4775L97.5604 67.3551L95.3825 65.4403C95.3191 65.3846 95.2398 65.3592 95.1619 65.37C95.0841 65.3807 95.0141 65.4266 94.9674 65.4976C94.9207 65.5685 94.901 65.6589 94.9128 65.7484C94.9246 65.8381 94.9668 65.9197 95.0303 65.9756L97.454 68.1061L97.6995 68.3222L97.8736 68.0415L101.074 62.8828Z" fill="#008D36"/>
</g>
<path d="M107.905 79.4781L13.2029 90.0399C11.1395 90.27 9.68145 92.3812 9.94623 94.7554L11.6972 110.456C11.962 112.83 13.8494 114.568 15.9127 114.338L110.614 103.776C112.678 103.546 114.136 101.435 113.871 99.0604L112.12 83.3603C111.855 80.9861 109.968 79.248 107.905 79.4781Z" fill="#F9FAFC"/>
<path fill-rule="evenodd" clip-rule="evenodd" d="M20.6787 95.1351C21.4609 95.0478 22.2552 95.1388 23.0162 95.4027C23.7773 95.6664 24.4901 96.098 25.1142 96.6727C25.7383 97.2475 26.2612 97.954 26.6533 98.752C27.0453 99.5501 27.2988 100.424 27.3992 101.324C27.8213 105.109 25.4968 108.475 22.2074 108.842C18.9179 109.208 15.9091 106.438 15.487 102.653C15.0649 98.8678 17.3893 95.5019 20.6787 95.1351ZM22.1151 102.607L20.9239 102.74C19.4493 102.905 18.298 104.073 17.9156 105.601C18.935 106.899 20.4532 107.649 22.0545 107.471C23.6558 107.292 24.9713 106.225 25.6798 104.735C24.9702 103.329 23.5897 102.443 22.1151 102.607ZM20.908 97.191C19.9212 97.3011 19.2239 98.3108 19.3505 99.4463C19.4771 100.582 20.3798 101.413 21.3666 101.303C22.3534 101.193 23.0508 100.183 22.9241 99.0477C22.7975 97.9123 21.8949 97.081 20.908 97.191Z" fill="#64748B"/>
<path d="M50.9974 97.6946L51.2011 99.5211L50.8827 99.5566L50.7502 98.3686L50.4575 99.604L50.2164 99.6309L49.6564 98.4906L49.7889 99.6786L49.4705 99.7141L49.2668 97.8876L49.6284 97.8473L50.2847 99.1491L50.6381 97.7347L50.9974 97.6946ZM51.3526 98.765C51.3363 98.6185 51.3468 98.4858 51.3842 98.3668C51.423 98.2476 51.4824 98.1528 51.562 98.082C51.643 98.0111 51.7374 97.9697 51.8451 97.9577C51.939 97.9473 52.0233 97.96 52.098 97.9958C52.174 98.0314 52.237 98.08 52.287 98.1416L52.2639 97.9349L52.5846 97.8991L52.7462 99.3488L52.4256 99.3845L52.4019 99.1726C52.3686 99.2452 52.3181 99.3081 52.2503 99.3617C52.1839 99.4132 52.1037 99.4443 52.0098 99.4547C51.9035 99.4666 51.803 99.446 51.7082 99.393C51.6147 99.3398 51.5359 99.2595 51.4717 99.1518C51.4089 99.0422 51.3692 98.9133 51.3526 98.765ZM52.3447 98.6597C52.3348 98.5707 52.3111 98.4965 52.2739 98.4371C52.2363 98.376 52.1899 98.3316 52.1347 98.3043C52.0792 98.2751 52.022 98.2639 51.9629 98.2705C51.9037 98.277 51.851 98.2998 51.8047 98.3384C51.7583 98.3771 51.7229 98.4306 51.6982 98.4987C51.6748 98.5649 51.6681 98.6415 51.6778 98.7288C51.6876 98.8161 51.7112 98.891 51.749 98.954C51.788 99.0149 51.8345 99.06 51.8884 99.0894C51.9438 99.1186 52.0003 99.1299 52.058 99.1235C52.1171 99.1169 52.1705 99.0941 52.2185 99.0553C52.2661 99.0146 52.3016 98.9612 52.3249 98.895C52.348 98.8272 52.3547 98.7487 52.3447 98.6597ZM53.2997 98.124L53.3779 98.8253C53.3834 98.8741 53.3973 98.9088 53.4195 98.9293C53.4431 98.9478 53.479 98.9544 53.5276 98.949L53.6754 98.9325L53.7098 99.2413L53.5097 99.2636C53.2413 99.2935 53.0904 99.1584 53.057 98.8584L52.9791 98.1598L52.829 98.1765L52.7954 97.8756L52.9455 97.8588L52.9055 97.5004L53.2262 97.4646L53.2661 97.8231L53.5481 97.7916L53.5817 98.0926L53.2997 98.124ZM53.7761 98.5001C53.7594 98.35 53.7713 98.2162 53.812 98.0987C53.8523 97.9793 53.9161 97.884 54.0034 97.8124C54.0903 97.7391 54.1945 97.6957 54.3158 97.6822C54.4719 97.6648 54.6058 97.6958 54.7176 97.7751C54.8305 97.8526 54.9135 97.9705 54.9665 98.1289L54.6232 98.1672C54.598 98.1064 54.5613 98.0611 54.5136 98.031C54.4669 97.9991 54.4119 97.9867 54.3483 97.9938C54.2573 98.004 54.1894 98.0503 54.1451 98.1331C54.1003 98.2139 54.0858 98.3242 54.1013 98.4638C54.1167 98.6015 54.1552 98.7059 54.2168 98.7768C54.2782 98.8458 54.3545 98.8753 54.4454 98.8652C54.5742 98.8508 54.651 98.7751 54.6757 98.6382L55.0191 98.5999C55.0017 98.7608 54.9465 98.8931 54.8539 98.9971C54.761 99.1012 54.6374 99.1617 54.4827 99.1789C54.3614 99.1925 54.2503 99.174 54.1496 99.1234C54.0485 99.071 53.9652 98.992 53.8998 98.8863C53.834 98.7788 53.7929 98.6501 53.7761 98.5001ZM55.8524 97.5135C55.948 97.5028 56.0355 97.5178 56.1153 97.5583C56.1948 97.5971 56.2603 97.6614 56.3118 97.751C56.3645 97.8388 56.3982 97.948 56.4128 98.0788L56.5077 98.9293L56.1893 98.9648L56.1 98.1641C56.0871 98.0489 56.0523 97.9637 55.9955 97.9081C55.9384 97.8509 55.8667 97.8271 55.7803 97.8368C55.6922 97.8466 55.6261 97.8858 55.5816 97.9543C55.5383 98.021 55.5232 98.1118 55.536 98.227L55.6253 99.0277L55.3069 99.0632L55.091 97.1268L55.4093 97.0913L55.4838 97.7586C55.5177 97.6912 55.5668 97.6363 55.6312 97.5938C55.6953 97.5495 55.7689 97.5228 55.8524 97.5135ZM56.791 97.2551C56.7348 97.2614 56.6856 97.2466 56.6433 97.2107C56.6022 97.1729 56.5783 97.1235 56.5715 97.0624C56.5646 97.0013 56.5772 96.9488 56.6091 96.9045C56.6423 96.8584 56.6869 96.8323 56.7431 96.826C56.7992 96.8197 56.8478 96.8355 56.8888 96.8733C56.9312 96.9093 56.9558 96.9576 56.9626 97.0187C56.9694 97.0799 56.9562 97.1334 56.923 97.1795C56.8911 97.2237 56.847 97.2489 56.791 97.2551ZM56.9672 97.4103L57.1288 98.86L56.8104 98.8955L56.6488 97.4458L56.9672 97.4103ZM57.9775 97.2765C58.1276 97.2597 58.255 97.3011 58.3597 97.4007C58.4642 97.4986 58.5274 97.6452 58.5492 97.8406L58.6441 98.691L58.3257 98.7265L58.2364 97.9258C58.2235 97.8107 58.1887 97.7254 58.1319 97.6699C58.0748 97.6127 58.0031 97.5889 57.9167 97.5985C57.8288 97.6083 57.7624 97.6475 57.718 97.716C57.6747 97.7827 57.6595 97.8736 57.6724 97.9887L57.7617 98.7894L57.4433 98.8249L57.2816 97.3753L57.6 97.3397L57.6201 97.5203C57.6555 97.4528 57.704 97.398 57.7653 97.3558C57.8279 97.3117 57.8987 97.2852 57.9775 97.2765ZM59.276 97.129C59.3701 97.1185 59.455 97.1312 59.5312 97.1668C59.6072 97.2007 59.6694 97.2494 59.7179 97.3128L59.6948 97.1061L60.0155 97.0704L60.1783 98.5305C60.1933 98.6649 60.1831 98.7869 60.1478 98.8968C60.1127 99.0084 60.0516 99.1 59.9643 99.1716C59.8773 99.2449 59.7671 99.289 59.6337 99.3039C59.4549 99.3238 59.3023 99.2922 59.1765 99.2091C59.0521 99.1259 58.973 99.0023 58.9394 98.8382L59.2555 98.8029C59.2796 98.8674 59.321 98.9158 59.3799 98.948C59.4404 98.982 59.5102 98.9944 59.589 98.9856C59.6814 98.9753 59.7529 98.9346 59.8033 98.8637C59.854 98.7945 59.8721 98.6954 59.8577 98.5662L59.8326 98.3412C59.7992 98.4138 59.7487 98.4768 59.681 98.5303C59.6147 98.5837 59.5354 98.6154 59.443 98.6257C59.3369 98.6376 59.2362 98.617 59.1414 98.564C59.0465 98.511 58.9668 98.4308 58.9027 98.323C58.8398 98.2135 58.8001 98.0845 58.7835 97.9363C58.7672 97.7898 58.7777 97.6571 58.8151 97.538C58.854 97.4188 58.9133 97.324 58.9929 97.2533C59.0739 97.1824 59.1683 97.141 59.276 97.129ZM59.7757 97.8309C59.7657 97.742 59.7422 97.6678 59.7048 97.6084C59.6672 97.5473 59.6208 97.5029 59.5656 97.4755C59.5102 97.4463 59.4529 97.4351 59.3938 97.4417C59.3347 97.4483 59.2819 97.471 59.2356 97.5097C59.1893 97.5483 59.1538 97.6019 59.1291 97.6699C59.1058 97.7361 59.099 97.8127 59.1088 97.9C59.1185 97.9873 59.1421 98.0623 59.1799 98.1252C59.2189 98.1861 59.2654 98.2313 59.3194 98.2607C59.3747 98.2899 59.4313 98.3012 59.4889 98.2947C59.5481 98.2882 59.6016 98.2653 59.6494 98.2265C59.697 98.1858 59.7325 98.1325 59.7559 98.0663C59.779 97.9984 59.7856 97.9199 59.7757 97.8309ZM61.5147 98.3947C61.4115 98.4062 61.3168 98.3956 61.2302 98.3628C61.1435 98.3284 61.0719 98.2772 61.0151 98.2093C60.96 98.1413 60.9251 98.063 60.9107 97.9746L61.2313 97.9388C61.2436 97.994 61.2723 98.0376 61.3173 98.0696C61.3638 98.1015 61.4181 98.114 61.4803 98.1071C61.5409 98.1003 61.5865 98.0811 61.6166 98.0495C61.6485 98.0178 61.6618 97.9799 61.657 97.9364C61.6517 97.8893 61.6266 97.8567 61.5816 97.8388C61.538 97.8189 61.4691 97.8001 61.375 97.7824C61.2781 97.7667 61.1977 97.7482 61.134 97.7271C61.0718 97.7059 61.0155 97.6688 60.9651 97.6162C60.9163 97.5633 60.8863 97.4881 60.8754 97.3904C60.8665 97.3102 60.878 97.2347 60.91 97.164C60.9436 97.0931 60.9954 97.0343 61.0654 96.9877C61.137 96.9409 61.2235 96.9118 61.325 96.9005C61.4751 96.8837 61.5997 96.9139 61.6989 96.9912C61.798 97.0667 61.8601 97.1772 61.8856 97.3228L61.5808 97.3567C61.5699 97.2997 61.5435 97.2566 61.502 97.2278C61.4617 97.1969 61.4105 97.185 61.3483 97.1919C61.2907 97.1984 61.2473 97.2155 61.2182 97.2435C61.1906 97.2714 61.1793 97.3071 61.1841 97.3507C61.1896 97.3994 61.215 97.4346 61.2604 97.4561C61.3055 97.4758 61.3742 97.4937 61.4667 97.5099C61.5606 97.5259 61.6386 97.5446 61.7009 97.5659C61.7631 97.5872 61.8188 97.6252 61.8678 97.6797C61.9183 97.7324 61.9496 97.8067 61.9617 97.9024C61.9711 97.9861 61.9589 98.0634 61.9254 98.1343C61.8933 98.205 61.8417 98.2638 61.7701 98.3106C61.6999 98.3555 61.6148 98.3835 61.5147 98.3947ZM62.1065 97.571C62.0897 97.4209 62.1016 97.2871 62.1423 97.1696C62.1828 97.0502 62.2465 96.955 62.3337 96.8833C62.4208 96.8101 62.5248 96.7667 62.6461 96.7531C62.8022 96.7357 62.9363 96.7668 63.0479 96.8461C63.161 96.9235 63.2439 97.0415 63.2969 97.1998L62.9535 97.2381C62.9283 97.1773 62.8918 97.132 62.8439 97.102C62.7974 97.0701 62.7423 97.0577 62.6786 97.0648C62.5876 97.0749 62.5199 97.1213 62.4754 97.204C62.4306 97.2849 62.4161 97.3951 62.4317 97.5347C62.4471 97.6725 62.4855 97.7768 62.5472 97.8477C62.6087 97.9167 62.6848 97.9463 62.7758 97.9361C62.9046 97.9218 62.9813 97.846 63.006 97.7091L63.3494 97.6708C63.332 97.8317 63.277 97.9641 63.1842 98.0681C63.0914 98.1721 62.9677 98.2326 62.8131 98.2499C62.6917 98.2634 62.5808 98.2449 62.4799 98.1943C62.3789 98.142 62.2957 98.0629 62.2302 97.9572C62.1644 97.8497 62.1232 97.7211 62.1065 97.571ZM64.1993 98.0953C64.078 98.1088 63.9654 98.0905 63.8616 98.0402C63.7576 97.9882 63.6712 97.9087 63.6025 97.8015C63.5352 97.6942 63.4934 97.5664 63.4768 97.4182C63.4603 97.27 63.4738 97.136 63.5172 97.0163C63.5622 96.8964 63.6305 96.8006 63.7222 96.7285C63.8138 96.6547 63.9201 96.611 64.0415 96.5975C64.1628 96.584 64.2761 96.6031 64.3817 96.6549C64.4872 96.7051 64.5742 96.7835 64.6429 96.8907C64.7132 96.9978 64.7566 97.1254 64.7731 97.2736C64.7896 97.4218 64.7746 97.5559 64.7282 97.676C64.6831 97.7959 64.6142 97.8927 64.5211 97.9667C64.4293 98.0388 64.3221 98.0816 64.1993 98.0953ZM64.1637 97.776C64.2214 97.7696 64.2734 97.7479 64.3199 97.7109C64.3677 97.6721 64.4032 97.6186 64.4264 97.5507C64.4496 97.4828 64.4559 97.4026 64.4456 97.3101C64.4302 97.1724 64.3866 97.0703 64.3148 97.0042C64.2442 96.9361 64.1635 96.9071 64.0725 96.9173C63.9816 96.9274 63.9093 96.9735 63.8554 97.0554C63.803 97.1354 63.7844 97.2444 63.7997 97.3822C63.8151 97.5199 63.8566 97.6231 63.924 97.6915C63.9928 97.758 64.0727 97.7862 64.1637 97.776ZM65.2693 96.7123C65.3017 96.6309 65.3479 96.5648 65.4084 96.5139C65.4701 96.463 65.5435 96.4326 65.6285 96.4232L65.6714 96.8078L65.5872 96.8172C65.4872 96.8284 65.4143 96.8639 65.3689 96.9237C65.3249 96.9833 65.3103 97.0803 65.3253 97.2147L65.4059 97.9369L65.0875 97.9724L64.9258 96.5227L65.2442 96.4872L65.2693 96.7123ZM67.0937 96.983C67.0996 97.0353 67.1018 97.0828 67.1004 97.1253L66.1794 97.228C66.1985 97.3319 66.2395 97.4104 66.3023 97.4633C66.365 97.5163 66.4373 97.5384 66.5192 97.5292C66.6375 97.516 66.7151 97.4482 66.7521 97.3258L67.0955 97.2875C67.0747 97.4311 67.0177 97.5541 66.9248 97.6562C66.8315 97.7567 66.71 97.8153 66.5599 97.832C66.4385 97.8455 66.326 97.8272 66.2222 97.7769C66.1197 97.7248 66.0348 97.6451 65.9676 97.5378C65.9018 97.4302 65.8607 97.3024 65.8442 97.1541C65.8275 97.0041 65.8393 96.8695 65.8797 96.7501C65.92 96.6308 65.9847 96.5354 66.0734 96.4636C66.1621 96.3918 66.2685 96.3491 66.3929 96.3353C66.5127 96.3219 66.6229 96.3397 66.7235 96.3885C66.8256 96.4371 66.9085 96.5135 66.9724 96.6177C67.0374 96.72 67.078 96.8417 67.0937 96.983ZM66.7523 96.9151C66.7402 96.8211 66.7023 96.7494 66.6385 96.7C66.5745 96.6488 66.5007 96.6279 66.4174 96.6372C66.3385 96.646 66.275 96.6813 66.2266 96.7432C66.1795 96.8032 66.1553 96.8827 66.1542 96.9818L66.7523 96.9151ZM68.0953 97.6555C68.0378 97.6619 67.9878 97.6472 67.9453 97.6113C67.9043 97.5734 67.8803 97.5241 67.8735 97.463C67.8667 97.4018 67.8793 97.3493 67.9112 97.3051C67.9445 97.259 67.9899 97.2327 68.0474 97.2263C68.1037 97.2201 68.1521 97.2358 68.1932 97.2737C68.234 97.3098 68.2579 97.3582 68.2647 97.4193C68.2715 97.4805 68.259 97.5339 68.2273 97.5798C68.1954 97.6241 68.1515 97.6492 68.0953 97.6555ZM67.9745 96.5722C67.917 96.5786 67.867 96.5639 67.8245 96.528C67.7835 96.4901 67.7595 96.4408 67.7527 96.3797C67.7459 96.3185 67.7585 96.266 67.7904 96.2218C67.8237 96.1757 67.8691 96.1494 67.9266 96.143C67.9828 96.1368 68.0313 96.1525 68.0724 96.1903C68.1132 96.2265 68.137 96.2749 68.1439 96.336C68.1507 96.3971 68.1382 96.4506 68.1065 96.4965C68.0746 96.5407 68.0307 96.5659 67.9745 96.5722ZM69.7552 96.0027C69.7319 95.9311 69.6992 95.8791 69.6572 95.8467C69.6168 95.8141 69.5616 95.8017 69.4919 95.8095C69.3873 95.8212 69.3154 95.8786 69.2763 95.9819C69.2384 96.0832 69.2309 96.243 69.2538 96.4613C69.2824 96.3875 69.3295 96.3274 69.3949 96.2813C69.4601 96.2333 69.5337 96.2049 69.6156 96.1957C69.7142 96.1847 69.804 96.1995 69.8853 96.2398C69.9666 96.2802 70.0337 96.3451 70.0866 96.4346C70.1393 96.5224 70.173 96.6316 70.1876 96.7625C70.2014 96.8864 70.1919 96.9995 70.1587 97.1021C70.127 97.2027 70.0724 97.2849 69.9951 97.3482C69.9178 97.4115 69.8214 97.4497 69.7062 97.4626C69.5485 97.4802 69.4197 97.4538 69.3198 97.3838C69.2214 97.3136 69.1461 97.2088 69.0937 97.0699C69.0427 96.9289 69.0054 96.7529 68.9819 96.5419C68.9463 96.2227 68.9672 95.9766 69.0446 95.8037C69.1218 95.6292 69.2636 95.5303 69.4697 95.5073C69.6289 95.4896 69.7581 95.5255 69.8571 95.6151C69.956 95.7047 70.0207 95.823 70.0509 95.9697L69.7552 96.0027ZM69.5764 96.5048C69.496 96.5137 69.4316 96.5484 69.383 96.6085C69.3345 96.6686 69.3159 96.7501 69.3274 96.8531C69.3389 96.9561 69.373 97.0344 69.4296 97.0881C69.4877 97.1416 69.5631 97.1633 69.6556 97.1529C69.7374 97.1438 69.7987 97.1078 69.8392 97.045C69.8814 96.9821 69.8969 96.9018 69.886 96.804C69.8748 96.7029 69.8422 96.6252 69.7887 96.5712C69.7366 96.517 69.6659 96.4948 69.5764 96.5048ZM70.4007 96.389C70.3671 96.0871 70.3877 95.8457 70.4626 95.6641C70.5391 95.4825 70.6873 95.3795 70.9071 95.355C71.1268 95.3304 71.2933 95.3984 71.4064 95.5589C71.521 95.7193 71.5951 95.9502 71.6288 96.252C71.6626 96.5556 71.6414 96.799 71.5652 96.9824C71.4904 97.1656 71.3431 97.2694 71.1233 97.2939C70.9035 97.3184 70.7362 97.2497 70.6214 97.0876C70.5081 96.9254 70.4346 96.6925 70.4007 96.389ZM71.3149 96.287C71.3005 96.1579 71.2808 96.0507 71.256 95.9651C71.2324 95.8777 71.1956 95.8085 71.1454 95.7576C71.0967 95.7064 71.03 95.6856 70.945 95.6951C70.86 95.7046 70.7988 95.7396 70.761 95.8004C70.7249 95.861 70.704 95.9366 70.6988 96.0272C70.6949 96.116 70.7002 96.2248 70.7146 96.354C70.7293 96.4865 70.7486 96.5975 70.7724 96.6866C70.7959 96.7741 70.8328 96.8432 70.883 96.8942C70.9331 96.9433 71.0004 96.9632 71.0854 96.9538C71.1703 96.9443 71.2316 96.91 71.2696 96.8511C71.3074 96.7903 71.3281 96.7147 71.3318 96.6243C71.3353 96.5321 71.3297 96.4195 71.3149 96.287ZM71.7832 95.7685C71.7684 95.636 71.7901 95.5284 71.8485 95.446C71.9084 95.3634 71.9914 95.3161 72.0975 95.3043C72.2036 95.2925 72.2942 95.3204 72.3693 95.3879C72.4459 95.4553 72.4916 95.5554 72.5064 95.6879C72.5214 95.8223 72.4989 95.9307 72.4391 96.0133C72.3807 96.0957 72.2984 96.1429 72.1924 96.1547C72.0863 96.1666 71.9949 96.1387 71.9183 96.0714C71.8432 96.0039 71.7982 95.9029 71.7832 95.7685ZM73.1994 95.2132L72.51 97.1446L72.2007 97.1791L72.8879 95.248L73.1994 95.2132ZM72.1198 95.5244C72.0364 95.5337 72.0023 95.6063 72.0174 95.7424C72.0328 95.8802 72.0822 95.9445 72.1656 95.9352C72.2065 95.9306 72.2365 95.9104 72.2555 95.8748C72.2744 95.8373 72.2799 95.7837 72.2721 95.714C72.257 95.5779 72.2062 95.5147 72.1198 95.5244ZM72.898 96.7013C72.883 96.5669 72.9047 96.4594 72.9633 96.3787C73.0232 96.2962 73.1062 96.2489 73.2123 96.237C73.3184 96.2252 73.4083 96.2532 73.4818 96.3209C73.5568 96.3867 73.6016 96.4867 73.6166 96.6211C73.6316 96.7555 73.61 96.8639 73.5516 96.9463C73.4948 97.0285 73.4132 97.0756 73.3072 97.0875C73.1995 97.0995 73.1082 97.0716 73.0331 97.0041C72.958 96.9366 72.913 96.8356 72.898 96.7013ZM73.2345 96.4571C73.1481 96.4667 73.1125 96.5396 73.1277 96.6756C73.143 96.8134 73.1939 96.8775 73.2804 96.8679C73.3653 96.8584 73.4 96.7847 73.3847 96.647C73.3695 96.5109 73.3195 96.4476 73.2345 96.4571Z" fill="black"/>
<path fill-rule="evenodd" clip-rule="evenodd" d="M102.199 99.8417C105.452 99.479 107.75 96.1517 107.332 92.4097C106.915 88.6676 103.94 85.9283 100.688 86.291C97.436 86.6537 95.1381 89.9811 95.5554 93.7231C95.9728 97.4652 98.9473 100.204 102.199 99.8417ZM103.531 90.0446C103.624 90.1307 103.685 90.2546 103.7 90.3892C103.715 90.5238 103.683 90.6581 103.611 90.7627L102.068 92.9968L104.065 94.8354C104.153 94.9232 104.21 95.0457 104.223 95.1777C104.235 95.3095 104.203 95.4403 104.132 95.5424C104.062 95.6445 103.959 95.7099 103.845 95.7251C103.73 95.7401 103.614 95.7037 103.52 95.6233L101.524 93.786L99.9817 96.0193C99.9468 96.0737 99.9026 96.1191 99.8514 96.153C99.8004 96.1867 99.7436 96.2082 99.6845 96.2161C99.6253 96.2239 99.5649 96.2179 99.5072 96.1984C99.4493 96.1792 99.3951 96.1466 99.3477 96.1031C99.3004 96.0595 99.261 96.0056 99.2317 95.9449C99.2024 95.884 99.184 95.8176 99.1773 95.7491C99.1708 95.6807 99.1763 95.612 99.1934 95.5471C99.2107 95.482 99.2392 95.422 99.2773 95.3706L100.818 93.1361L98.8226 91.2974C98.774 91.2557 98.7328 91.2036 98.7018 91.1438C98.6707 91.0843 98.6502 91.0184 98.6416 90.9503C98.6329 90.8822 98.6364 90.8132 98.6514 90.7475C98.6666 90.6817 98.6933 90.6206 98.7298 90.5675C98.7664 90.5146 98.812 90.4711 98.8642 90.4394C98.9163 90.4076 98.9738 90.3885 99.0332 90.383C99.0927 90.3777 99.1528 90.3862 99.2102 90.4078C99.2674 90.4296 99.3206 90.4642 99.3666 90.5096L101.364 92.3468L102.906 90.1135C102.978 90.0091 103.084 89.9431 103.201 89.9301C103.319 89.917 103.437 89.958 103.53 90.0439" fill="#E30613"/>
</g>
<defs>
<clipPath id="clip0_221_5682">
<rect x="0.649414" y="11.395" width="102.807" height="104" rx="10" transform="rotate(-6.36371 0.649414 11.395)" fill="white"/>
</clipPath>
</defs>
</svg>
