<svg width="106" height="106" viewBox="0 0 106 106" fill="none" xmlns="http://www.w3.org/2000/svg">
<path d="M59.3438 66.25C59.3438 67.5603 58.9552 68.8412 58.2272 69.9306C57.4993 71.0201 56.4646 71.8693 55.254 72.3707C54.0435 72.8721 52.7114 73.0033 51.4263 72.7477C50.1412 72.4921 48.9607 71.8611 48.0342 70.9346C47.1077 70.0081 46.4767 68.8276 46.2211 67.5425C45.9654 66.2573 46.0966 64.9253 46.5981 63.7147C47.0995 62.5042 47.9486 61.4695 49.0381 60.7415C50.1276 60.0135 51.4085 59.625 52.7188 59.625C54.4758 59.625 56.1609 60.323 57.4033 61.5654C58.6458 62.8078 59.3438 64.4929 59.3438 66.25ZM97.4375 44.7187C97.4375 53.5633 94.8148 62.2092 89.901 69.5631C84.9873 76.9171 78.0032 82.6488 69.8319 86.0335C61.6606 89.4181 52.6692 90.3037 43.9946 88.5782C35.32 86.8528 27.3519 82.5937 21.0978 76.3397C14.8438 70.0856 10.5848 62.1175 8.85928 53.4429C7.1338 44.7684 8.01938 35.7769 11.404 27.6056C14.7887 19.4343 20.5204 12.4502 27.8744 7.53647C35.2283 2.62271 43.8742 0 52.7188 0C64.5749 0.0131516 75.9416 4.7288 84.3252 13.1123C92.7087 21.4959 97.4244 32.8626 97.4375 44.7187ZM87.5 44.7187C87.5 37.8397 85.4601 31.1151 81.6383 25.3953C77.8165 19.6756 72.3844 15.2176 66.029 12.5851C59.6735 9.95255 52.6802 9.26377 45.9333 10.6058C39.1864 11.9479 32.989 15.2604 28.1247 20.1247C23.2605 24.9889 19.9479 31.1864 18.6058 37.9333C17.2638 44.6802 17.9526 51.6735 20.5851 58.0289C23.2176 64.3844 27.6756 69.8165 33.3953 73.6383C39.1151 77.4601 45.8397 79.5 52.7188 79.5C61.9403 79.4901 70.7813 75.8225 77.3019 69.3019C83.8225 62.7813 87.4902 53.9403 87.5 44.7187ZM52.7188 18.2187C42.6736 18.2187 34.5 25.647 34.5 34.7812V36.4375C34.5 37.7553 35.0235 39.0191 35.9553 39.9509C36.8872 40.8828 38.151 41.4062 39.4688 41.4062C40.7866 41.4062 42.0504 40.8828 42.9822 39.9509C43.914 39.0191 44.4375 37.7553 44.4375 36.4375V34.7812C44.4375 31.1292 48.1641 28.1562 52.7188 28.1562C57.2735 28.1562 61 31.1292 61 34.7812C61 38.4333 57.2735 41.4062 52.7188 41.4062C51.401 41.4062 50.1371 41.9297 49.2053 42.8616C48.2735 43.7934 47.75 45.0572 47.75 46.375V49.6875C47.7471 50.9151 48.1986 52.1003 49.0177 53.0147C49.8368 53.9291 50.9653 54.5079 52.1858 54.6396C53.4063 54.7712 54.6324 54.4464 55.6276 53.7278C56.6228 53.0091 57.3168 51.9475 57.5757 50.7475C65.269 48.8097 70.9375 42.3876 70.9375 34.7812C70.9375 25.647 62.7639 18.2187 52.7188 18.2187Z" fill="#64748B"/>
</svg>
