<svg width="601" height="576" viewBox="0 0 601 576" fill="none" xmlns="http://www.w3.org/2000/svg">
<path d="M393.896 61.125C393.896 61.125 298.688 25.2171 207.632 75.8936C116.576 126.57 72.8362 230.838 35.0962 314.288C-2.63177 397.739 22.8562 484.335 94.5922 525.427C166.328 566.519 212.756 510.013 311.78 509.852C410.804 509.691 437.852 524.517 518.528 470.96C599.204 417.404 610.388 286.122 542.792 186.958C475.184 87.7822 393.896 61.125 393.896 61.125Z" fill="#54B848"/>
<path opacity="0.7" d="M393.896 61.125C393.896 61.125 298.688 25.2171 207.632 75.8936C116.576 126.57 72.8362 230.838 35.0962 314.288C-2.63177 397.739 22.8562 484.335 94.5922 525.427C166.328 566.519 212.756 510.013 311.78 509.852C410.804 509.691 437.852 524.517 518.528 470.96C599.204 417.404 610.388 286.122 542.792 186.958C475.184 87.7822 393.896 61.125 393.896 61.125Z" fill="white"/>
<path d="M7.86816 532.166H580.316" stroke="#263238" stroke-miterlimit="10"/>
<path d="M62.8367 159.997C71.7385 154.212 74.0696 142.594 68.0433 134.049C62.017 125.503 49.9154 123.265 41.0136 129.05C32.1118 134.836 29.7808 146.453 35.807 154.999C41.8333 163.545 53.9349 165.782 62.8367 159.997Z" stroke="#263238" stroke-miterlimit="10"/>
<path d="M58.8317 142.398C58.8317 146.062 55.7477 149.022 51.9317 149.022C48.1157 149.022 45.0317 146.062 45.0317 142.398C45.0317 138.735 48.1157 135.774 51.9317 135.774C55.7357 135.774 58.8317 138.735 58.8317 142.398Z" stroke="#263238" stroke-miterlimit="10"/>
<path d="M51.9317 163.215C56.3357 163.215 60.3797 161.798 63.6437 159.436C62.7077 154.034 57.8237 149.921 51.9317 149.921C46.0397 149.921 41.1677 154.045 40.2197 159.436C43.4837 161.798 47.5277 163.215 51.9317 163.215Z" stroke="#263238" stroke-miterlimit="10"/>
<path d="M51.9318 210.137C62.6814 210.137 71.3958 201.771 71.3958 191.451C71.3958 181.131 62.6814 172.766 51.9318 172.766C41.1821 172.766 32.4678 181.131 32.4678 191.451C32.4678 201.771 41.1821 210.137 51.9318 210.137Z" stroke="#263238" stroke-miterlimit="10"/>
<path d="M58.8317 189.32C58.8317 192.984 55.7477 195.944 51.9317 195.944C48.1157 195.944 45.0317 192.984 45.0317 189.32C45.0317 185.657 48.1157 182.696 51.9317 182.696C55.7357 182.696 58.8317 185.657 58.8317 189.32Z" stroke="#263238" stroke-miterlimit="10"/>
<path d="M51.9317 210.137C56.3357 210.137 60.3797 208.72 63.6437 206.358C62.7077 200.955 57.8237 196.843 51.9317 196.843C46.0397 196.843 41.1677 200.967 40.2197 206.358C43.4837 208.72 47.5277 210.137 51.9317 210.137Z" stroke="#263238" stroke-miterlimit="10"/>
<path d="M51.9318 257.057C62.6814 257.057 71.3958 248.692 71.3958 238.372C71.3958 228.052 62.6814 219.687 51.9318 219.687C41.1821 219.687 32.4678 228.052 32.4678 238.372C32.4678 248.692 41.1821 257.057 51.9318 257.057Z" stroke="#263238" stroke-miterlimit="10"/>
<path d="M58.8317 236.241C58.8317 239.905 55.7477 242.865 51.9317 242.865C48.1157 242.865 45.0317 239.905 45.0317 236.241C45.0317 232.578 48.1157 229.617 51.9317 229.617C55.7357 229.617 58.8317 232.578 58.8317 236.241Z" stroke="#263238" stroke-miterlimit="10"/>
<path d="M51.9317 257.058C56.3357 257.058 60.3797 255.641 63.6437 253.279C62.7077 247.876 57.8237 243.764 51.9317 243.764C46.0397 243.764 41.1677 247.888 40.2197 253.279C43.4837 255.641 47.5277 257.058 51.9317 257.058Z" stroke="#263238" stroke-miterlimit="10"/>
<path d="M62.8357 300.775C71.7375 294.99 74.0686 283.373 68.0423 274.827C62.0161 266.281 49.9145 264.043 41.0127 269.829C32.1109 275.614 29.7798 287.231 35.8061 295.777C41.8323 304.323 53.9339 306.561 62.8357 300.775Z" stroke="#263238" stroke-miterlimit="10"/>
<path d="M58.8317 283.162C58.8317 286.825 55.7477 289.786 51.9317 289.786C48.1157 289.786 45.0317 286.825 45.0317 283.162C45.0317 279.499 48.1157 276.538 51.9317 276.538C55.7357 276.538 58.8317 279.51 58.8317 283.162Z" stroke="#263238" stroke-miterlimit="10"/>
<path d="M51.9317 303.979C56.3357 303.979 60.3797 302.562 63.6437 300.2C62.7077 294.797 57.8237 290.685 51.9317 290.685C46.0397 290.685 41.1677 294.809 40.2197 300.2C43.4837 302.562 47.5277 303.979 51.9317 303.979Z" stroke="#263238" stroke-miterlimit="10"/>
<path d="M551.936 105.271H468.608V110.65H551.936V105.271Z" stroke="#263238" stroke-miterlimit="10"/>
<path d="M509.852 116.042H468.608V121.422H509.852V116.042Z" stroke="#263238" stroke-miterlimit="10"/>
<path d="M524.96 126.812H468.608V132.192H524.96V126.812Z" stroke="#263238" stroke-miterlimit="10"/>
<path d="M503.372 137.584H468.608V142.964H503.372V137.584Z" stroke="#263238" stroke-miterlimit="10"/>
<path d="M532.436 148.355H468.608V153.735H532.436V148.355Z" stroke="#263238" stroke-miterlimit="10"/>
<path d="M512.924 159.127H468.608V164.507H512.924V159.127Z" stroke="#263238" stroke-miterlimit="10"/>
<path d="M518.312 169.886H468.608V175.266H518.312V169.886Z" stroke="#263238" stroke-miterlimit="10"/>
<path d="M469.34 95.04H511.268" stroke="#263238" stroke-miterlimit="10"/>
<path d="M469.34 88.2666H511.268" stroke="#263238" stroke-miterlimit="10"/>
<path d="M202.268 118.61L249.668 39.8594H261.212" stroke="#263238" stroke-miterlimit="10"/>
<path d="M272.156 40.4473H301.316" stroke="#263238" stroke-miterlimit="10"/>
<path d="M272.156 47.4512H301.316" stroke="#263238" stroke-miterlimit="10"/>
<path d="M272.156 54.4443H301.316" stroke="#263238" stroke-miterlimit="10"/>
<path d="M480.116 234.317C480.116 234.317 468.08 236.459 465.68 242.565C463.268 248.671 466.88 250.318 466.88 250.318C466.88 250.318 457.088 255.433 458.972 261.377C460.868 267.321 467.732 270.282 467.732 270.282C467.732 270.282 470.48 272.102 469.964 273.254C469.448 274.406 467.732 274.084 467.732 274.084C467.732 274.084 471.164 277.217 476.324 278.369C481.484 279.521 489.728 281.007 496.952 279.521C504.176 278.035 509.672 274.74 509.672 274.74C509.672 274.74 504.86 275.074 506.924 271.941C508.988 268.808 517.412 267.483 516.38 258.244C515.348 249.005 512.432 250.157 510.188 246.194C507.956 242.231 510.872 239.432 503.996 234.812C497.12 230.192 485.096 226.725 481.304 228.05C477.536 229.363 480.116 234.317 480.116 234.317Z" fill="#263238" stroke="#263238" stroke-miterlimit="10"/>
<path d="M457.952 339.252C457.952 339.252 445.544 354.459 443.792 376.301C442.04 398.154 458.192 444.833 458.576 446.699C458.96 448.566 460.712 465.005 466.94 478.633C473.168 492.261 477.248 512.997 477.248 512.997C477.248 512.997 476.276 517.294 476.276 517.847C476.276 518.411 468.296 525.692 465.572 527.178C462.848 528.676 457.016 529.229 457.208 531.844C457.4 534.459 470.432 534.827 474.716 534.643C479 534.459 488.72 533.145 490.088 533.145C491.444 533.145 497.672 533.514 497.48 529.782C497.288 526.049 491.996 510.175 491.996 510.175C491.996 510.175 488.336 485.902 488.336 478.241C488.336 470.58 487.952 452.471 487.952 452.471C487.952 452.471 502.352 481.974 505.46 490.003C508.568 498.032 511.688 509.61 512.072 510.912C512.456 512.214 513.428 526.602 517.712 531.452C521.996 536.302 524.732 535.864 527.348 535.956C530.216 536.048 534.056 533.514 531.716 526.786C529.376 520.059 523.544 515.393 522.38 508.677C521.216 501.949 520.628 485.153 520.628 467.965C520.628 450.789 513.62 433.601 513.62 433.601C513.62 433.601 518.876 404.467 516.344 382.061C513.812 359.654 504.524 343.019 504.524 343.019L503.9 340.612L459.548 336.499L457.952 339.252Z" fill="#54B848" stroke="#263238" stroke-miterlimit="10"/>
<path d="M485.024 437.092C483.368 430.272 481.148 420.342 480.848 414.997C480.344 406.333 480.632 382.476 480.632 382.476" stroke="#263238" stroke-miterlimit="10"/>
<path d="M486.86 444.349C486.86 444.349 486.452 442.806 485.84 440.375" stroke="#263238" stroke-miterlimit="10"/>
<path d="M466.892 371.612C469.484 375.264 473.336 379.941 476.84 381.335" stroke="#263238" stroke-miterlimit="10"/>
<path d="M463.808 366.9C463.808 366.9 464.324 367.787 465.212 369.135" stroke="#263238" stroke-miterlimit="10"/>
<path d="M484.028 379.008L494.372 365.944" stroke="#263238" stroke-miterlimit="10"/>
<path d="M495.728 522.823C494.444 522.985 493.076 523.134 490.364 523.019C483.62 522.766 476.276 517.847 476.276 517.847C476.276 518.411 468.296 525.692 465.572 527.178C462.848 528.675 457.016 529.228 457.208 531.844C457.4 534.459 470.432 534.827 474.716 534.643C479 534.459 488.72 533.145 490.088 533.145C491.444 533.145 497.672 533.514 497.48 529.781C497.408 528.526 496.868 524.701 495.728 522.823Z" fill="white" stroke="#263238" stroke-miterlimit="10"/>
<path d="M523.664 512.709C522.452 514.679 520.808 517.167 518.432 517.317C515.516 517.501 513.44 515.266 512.504 514.011C513.14 518.838 514.496 527.835 517.7 531.475C521.984 536.325 524.72 535.887 527.336 535.979C530.204 536.072 534.044 533.537 531.704 526.809C529.868 521.51 525.848 517.478 523.664 512.709Z" fill="white" stroke="#263238" stroke-miterlimit="10"/>
<path d="M476.852 268.474C476.852 268.474 477.536 278.047 477.02 279.694C476.504 281.341 470.492 281.514 469.46 281.18C468.428 280.846 461.384 279.533 457.94 281.18C454.508 282.828 450.032 290.085 449.18 291.571C448.316 293.057 445.748 295.2 445.748 295.2C445.748 295.2 439.556 272.264 439.556 270.455C439.556 268.635 440.756 263.197 436.808 256.101C432.86 249.005 429.764 244.385 426.836 242.243C423.92 240.1 420.992 239.927 420.824 241.586C420.656 243.233 422.024 244.224 423.056 245.376C424.088 246.528 426.668 251.643 426.668 251.643C426.668 251.643 420.308 261.711 420.14 264.015C419.972 266.331 419.624 266.815 421.34 268.635C423.056 270.455 428.9 273.254 428.9 273.254C428.9 273.254 428.552 281.007 429.764 287.942C430.964 294.877 427.868 304.773 432.344 313.356C436.808 321.938 443.168 323.919 444.2 323.09C445.232 322.26 456.404 314.842 456.404 314.842C456.404 314.842 457.784 331.338 457.952 332.006C458.12 332.675 457.088 337.455 457.952 339.264C458.816 341.084 461.732 344.713 477.548 345.531C493.364 346.36 503.672 344.379 504.536 343.054C505.4 341.729 505.052 339.425 505.052 338.273C505.052 337.121 507.632 319.461 507.632 319.461C507.632 319.461 513.308 332.49 513.992 334.31C514.676 336.131 516.056 341.073 516.056 341.073C516.056 341.073 515.54 353.779 517.772 359.551C520.004 365.322 522.584 370.932 522.584 370.932L525.656 389.814C525.656 389.814 523.94 393.109 524.276 395.424C524.624 397.74 525.26 403.188 525.26 404.018C525.26 404.847 525.26 407.313 526.64 407.647C528.02 407.981 529.22 404.513 529.22 404.513C529.22 404.513 530.084 410.953 529.904 411.944C529.736 412.934 531.512 416.033 533 412.773C533.552 411.552 534.032 409.478 534.38 408.81C534.728 408.154 536.444 404.686 536.96 402.209C537.476 399.733 537.704 397.071 535.808 391.311C535.34 389.906 533.912 387.026 533.912 386.531C533.912 386.035 534.8 363.859 533.768 355.277C532.736 346.694 529.82 339.103 529.82 339.103C529.82 339.103 525.692 313.194 525.692 312.204C525.692 311.213 526.376 299.174 521.912 293.391C517.448 287.62 509.54 286.456 504.728 285.304C499.916 284.152 494.756 282.332 493.904 281.837C493.04 281.341 492.872 270.455 492.872 270.455L476.852 268.474Z" fill="white" stroke="#263238" stroke-miterlimit="10"/>
<path d="M448.208 320.313C451.784 317.906 456.404 314.83 456.404 314.83C456.404 314.83 457.784 331.326 457.952 331.995C458.12 332.651 457.088 337.443 457.952 339.252C458.816 341.072 461.732 344.701 477.548 345.519C493.364 346.348 503.672 344.367 504.536 343.042C505.4 341.717 505.052 339.413 505.052 338.261C505.052 337.109 507.632 319.449 507.632 319.449C507.632 319.449 512.216 329.979 513.644 333.423C517.148 333.031 522.716 331.925 528.188 328.85C527.036 321.488 525.68 312.745 525.68 312.18C525.68 311.189 526.364 299.151 521.9 293.368C517.436 287.596 509.528 286.433 504.716 285.281C499.904 284.129 494.744 282.309 493.892 281.813C493.028 281.318 492.86 270.432 492.86 270.432L476.876 268.45C476.876 268.45 477.56 278.023 477.044 279.671C476.528 281.318 470.516 281.491 469.484 281.157C468.452 280.823 461.408 279.509 457.964 281.157C454.532 282.804 450.056 290.062 449.204 291.548C448.34 293.034 445.772 295.177 445.772 295.177C445.772 295.177 450.932 301.778 450.752 308.874C450.608 314.046 449.3 318.136 448.208 320.313Z" fill="white" stroke="#263238" stroke-miterlimit="10"/>
<path d="M503.012 284.878C498.74 283.749 494.624 282.275 493.868 281.837C493.004 281.341 492.836 270.455 492.836 270.455L476.852 268.474C476.852 268.474 477.536 278.047 477.02 279.694C476.552 281.18 471.62 281.457 469.904 281.261C469.952 284.924 471.224 293.288 481.484 295.2C490.316 296.847 498.524 289.774 503.012 284.878Z" fill="white" stroke="#263238" stroke-miterlimit="10"/>
<path d="M484.412 274.741L477.608 275.19L476.852 268.474L484.412 274.741Z" fill="#263238" stroke="#263238" stroke-miterlimit="10"/>
<path d="M481.496 295.2C481.496 295.2 477.884 308.897 478.4 312.526" stroke="#263238" stroke-miterlimit="10"/>
<path d="M457.304 297.838C458.252 295.729 459.152 294.37 459.152 294.37" stroke="#263238" stroke-miterlimit="10"/>
<path d="M456.404 314.83C456.404 314.83 454.856 311.696 455.204 305.752C455.324 303.667 455.852 301.628 456.476 299.877" stroke="#263238" stroke-miterlimit="10"/>
<path d="M507.62 319.449L509.624 308.425" stroke="#263238" stroke-miterlimit="10"/>
<path d="M483.212 235.964L472.208 243.221C472.208 243.221 471.86 247.507 471.86 252.126C471.86 256.746 470.48 260.709 472.892 264.994C475.304 269.28 480.452 274.729 484.412 274.729C488.36 274.729 493.352 272.586 496.448 270.27C499.544 267.955 501.092 263.508 501.092 263.508C501.092 263.508 505.388 261.861 505.04 259.223C504.692 256.585 504.176 254.764 503.492 254.603C502.808 254.442 501.26 254.108 501.26 254.108L499.028 245.203C499.028 245.203 486.308 240.088 483.212 235.964Z" fill="white" stroke="#263238" stroke-miterlimit="10"/>
<path d="M484.244 247.023V249.5C484.244 249.5 480.464 252.472 482.012 253.624C483.56 254.776 484.424 254.12 485.108 253.958" stroke="#263238" stroke-miterlimit="10"/>
<path d="M479.78 259.396C479.78 259.396 483.908 263.681 490.088 259.062" stroke="#263238" stroke-miterlimit="10"/>
<path d="M475.652 245.537C475.652 245.537 477.884 243.394 482.18 244.385" stroke="#263238" stroke-miterlimit="10"/>
<path d="M487.34 244.212C487.34 244.212 491.288 242.565 494.384 245.537" stroke="#263238" stroke-miterlimit="10"/>
<path d="M480.284 248.751C480.284 249.523 479.828 250.157 479.252 250.157C478.688 250.157 478.22 249.534 478.22 248.751C478.22 247.979 478.676 247.346 479.252 247.346C479.828 247.346 480.284 247.979 480.284 248.751Z" fill="#263238"/>
<path d="M491.972 248.751C491.972 249.523 491.516 250.157 490.94 250.157C490.376 250.157 489.908 249.534 489.908 248.751C489.908 247.979 490.364 247.346 490.94 247.346C491.516 247.346 491.972 247.979 491.972 248.751Z" fill="#263238"/>
<path d="M471.692 254.281C471.692 254.281 468.26 252.461 468.08 255.767C467.912 259.062 470.996 261.539 470.996 261.539L471.692 254.281Z" fill="white" stroke="#263238" stroke-miterlimit="10"/>
<path d="M426.668 251.643C426.668 251.643 423.308 250.675 421.844 253.475C420.392 256.274 422.816 259.235 424.604 260.318C426.38 261.412 427.844 261.101 428 259.074C428.168 257.046 426.056 254.408 426.056 254.408L426.668 251.643Z" fill="white" stroke="#263238" stroke-miterlimit="10"/>
<path d="M421.196 255.341C421.196 255.341 418.112 257.679 418.436 259.546C418.76 261.412 422.492 263.9 424.436 263.75C426.38 263.589 425.732 261.101 425.732 261.101C425.732 261.101 422 257.679 421.196 255.341Z" fill="white" stroke="#263238" stroke-miterlimit="10"/>
<path d="M419.408 261.562C419.408 261.562 416.972 263.278 418.268 265.455C419.564 267.633 422.972 268.255 424.1 267.01C425.228 265.766 424.424 263.75 424.424 263.75C424.424 263.75 419.576 262.656 419.408 261.562Z" fill="white" stroke="#263238" stroke-miterlimit="10"/>
<path d="M433.664 268.877C433.664 268.877 432.2 266.538 432.368 263.589C432.524 260.628 435.284 256.896 435.284 256.896C435.284 256.896 434.804 255.802 434.48 254.408C434.156 253.002 432.212 247.876 434 245.699C435.776 243.521 437.24 247.092 438.38 250.364C439.52 253.636 440.324 255.341 440.324 255.341C440.324 255.341 441.62 259.073 440.972 262.034C440.324 264.995 438.548 270.282 438.548 270.282" fill="white"/>
<path d="M433.664 268.877C433.664 268.877 432.2 266.538 432.368 263.589C432.524 260.628 435.284 256.896 435.284 256.896C435.284 256.896 434.804 255.802 434.48 254.408C434.156 253.002 432.212 247.876 434 245.699C435.776 243.521 437.24 247.092 438.38 250.364C439.52 253.636 440.324 255.341 440.324 255.341C440.324 255.341 441.62 259.073 440.972 262.034C440.324 264.995 438.548 270.282 438.548 270.282" stroke="#263238" stroke-miterlimit="10"/>
<path d="M288.8 420.491H384.104" stroke="#263238" stroke-miterlimit="10"/>
<path d="M283.568 416.574H277.184V422.703H283.568V416.574Z" fill="#54B848"/>
<path d="M288.8 433.866H384.104" stroke="#263238" stroke-miterlimit="10"/>
<path d="M283.568 429.949H277.184V436.078H283.568V429.949Z" fill="#54B848"/>
<path d="M288.8 447.24H384.104" stroke="#263238" stroke-miterlimit="10"/>
<path d="M283.568 443.323H277.184V449.452H283.568V443.323Z" fill="#54B848"/>
<path d="M288.8 460.615H384.104" stroke="#263238" stroke-miterlimit="10"/>
<path d="M283.568 456.71H277.184V462.839H283.568V456.71Z" fill="#54B848"/>
<path d="M437.6 346.049H203.6V485.383H437.6V346.049Z" stroke="#263238" stroke-miterlimit="10"/>
<path d="M437.6 346.049H203.6V357.246H437.6V346.049Z" stroke="#263238" stroke-miterlimit="10"/>
<path d="M264.896 358.029V484.196" stroke="#263238" stroke-miterlimit="10"/>
<path d="M296.216 406.138C307.37 406.138 316.412 397.457 316.412 386.749C316.412 376.042 307.37 367.361 296.216 367.361C285.062 367.361 276.02 376.042 276.02 386.749C276.02 397.457 285.062 406.138 296.216 406.138Z" stroke="#263238" stroke-miterlimit="10"/>
<path d="M303.38 384.538C303.38 388.328 300.176 391.415 296.216 391.415C292.268 391.415 289.052 388.339 289.052 384.538C289.052 380.748 292.256 377.66 296.216 377.66C300.176 377.672 303.38 380.748 303.38 384.538Z" stroke="#263238" stroke-miterlimit="10"/>
<path d="M296.216 406.138C300.788 406.138 304.976 404.663 308.36 402.21C307.388 396.611 302.324 392.337 296.216 392.337C290.108 392.337 285.044 396.611 284.072 402.21C287.456 404.663 291.656 406.138 296.216 406.138Z" stroke="#263238" stroke-miterlimit="10"/>
<path d="M234.728 394.663C240.097 394.663 244.448 390.486 244.448 385.332C244.448 380.179 240.097 376.001 234.728 376.001C229.36 376.001 225.008 380.179 225.008 385.332C225.008 390.486 229.36 394.663 234.728 394.663Z" stroke="#263238" stroke-miterlimit="10"/>
<path d="M238.172 384.272C238.172 386.092 236.636 387.578 234.728 387.578C232.82 387.578 231.284 386.104 231.284 384.272C231.284 382.44 232.82 380.966 234.728 380.966C236.636 380.966 238.172 382.44 238.172 384.272Z" stroke="#263238" stroke-miterlimit="10"/>
<path d="M234.728 394.663C236.924 394.663 238.94 393.96 240.572 392.774C240.104 390.078 237.668 388.027 234.728 388.027C231.788 388.027 229.352 390.078 228.884 392.774C230.504 393.949 232.532 394.663 234.728 394.663Z" stroke="#263238" stroke-miterlimit="10"/>
<path d="M234.728 433.716C240.097 433.716 244.448 429.538 244.448 424.385C244.448 419.231 240.097 415.054 234.728 415.054C229.36 415.054 225.008 419.231 225.008 424.385C225.008 429.538 229.36 433.716 234.728 433.716Z" stroke="#263238" stroke-miterlimit="10"/>
<path d="M238.172 423.325C238.172 425.145 236.636 426.631 234.728 426.631C232.82 426.631 231.284 425.156 231.284 423.325C231.284 421.493 232.82 420.019 234.728 420.019C236.636 420.019 238.172 421.493 238.172 423.325Z" stroke="#263238" stroke-miterlimit="10"/>
<path d="M234.728 433.717C236.924 433.717 238.94 433.014 240.572 431.827C240.104 429.132 237.668 427.081 234.728 427.081C231.788 427.081 229.352 429.132 228.884 431.827C230.504 433.002 232.532 433.717 234.728 433.717Z" stroke="#263238" stroke-miterlimit="10"/>
<path d="M234.728 472.769C240.097 472.769 244.448 468.591 244.448 463.438C244.448 458.284 240.097 454.106 234.728 454.106C229.36 454.106 225.008 458.284 225.008 463.438C225.008 468.591 229.36 472.769 234.728 472.769Z" stroke="#263238" stroke-miterlimit="10"/>
<path d="M238.172 462.378C238.172 464.198 236.636 465.684 234.728 465.684C232.82 465.684 231.284 464.209 231.284 462.378C231.284 460.546 232.82 459.071 234.728 459.071C236.636 459.071 238.172 460.546 238.172 462.378Z" stroke="#263238" stroke-miterlimit="10"/>
<path d="M234.728 472.769C236.924 472.769 238.94 472.067 240.572 470.88C240.104 468.184 237.668 466.134 234.728 466.134C231.788 466.134 229.352 468.184 228.884 470.88C230.504 472.055 232.532 472.769 234.728 472.769Z" stroke="#263238" stroke-miterlimit="10"/>
<path d="M327.284 375.701H378.416" stroke="#263238" stroke-miterlimit="10"/>
<path d="M327.284 386.991H378.416" stroke="#263238" stroke-miterlimit="10"/>
<path d="M327.284 398.28H378.416" stroke="#263238" stroke-miterlimit="10"/>
<path d="M441.476 79.2695H280.664V306.847H441.476V79.2695Z" stroke="#263238" stroke-miterlimit="10"/>
<path d="M356.996 200.172C385.441 200.172 408.5 178.035 408.5 150.728C408.5 123.421 385.441 101.284 356.996 101.284C328.551 101.284 305.492 123.421 305.492 150.728C305.492 178.035 328.551 200.172 356.996 200.172Z" fill="white" stroke="#263238" stroke-miterlimit="10"/>
<path d="M303.656 216.115H412.172" stroke="#263238" stroke-miterlimit="10"/>
<path d="M303.656 226.714H412.172" stroke="#263238" stroke-miterlimit="10"/>
<path d="M316.868 244.547H412.172" stroke="#263238" stroke-miterlimit="10"/>
<path d="M311.648 240.63H305.264V246.759H311.648V240.63Z" fill="#54B848"/>
<path d="M316.868 257.922H412.172" stroke="#263238" stroke-miterlimit="10"/>
<path d="M311.648 254.017H305.264V260.145H311.648V254.017Z" fill="#54B848"/>
<path d="M316.868 271.296H412.172" stroke="#263238" stroke-miterlimit="10"/>
<path d="M311.648 267.391H305.264V273.519H311.648V267.391Z" fill="#54B848"/>
<path d="M316.868 284.671H412.172" stroke="#263238" stroke-miterlimit="10"/>
<path d="M311.648 280.766H305.264V286.894H311.648V280.766Z" fill="#54B848"/>
<path d="M345.608 117.93C345.608 117.93 352.34 106.848 367.244 107.309C382.148 107.77 385.76 123.46 385.28 128.079C384.8 132.699 383.12 135.694 383.12 135.694L376.628 130.383C376.628 130.383 383.168 136.201 386.78 145.429C390.392 154.656 388.652 166.614 384.08 169.39C379.508 172.155 376.388 171.003 376.388 171.003L376.868 164.771C376.868 164.771 372.536 172.155 365.324 173.537C358.112 174.92 337.436 175.841 334.316 172.385C331.196 168.929 330.464 165.001 330.464 165.001L329.984 171.003C329.984 171.003 323.492 166.383 323.252 161.084C323.012 155.774 326.372 148.389 328.064 144.472C329.744 140.544 330.944 138.471 331.424 132.469C331.904 126.467 331.184 123.241 335.516 119.313C339.836 115.396 345.608 117.93 345.608 117.93Z" fill="#263238" stroke="#263238" stroke-miterlimit="10" stroke-linecap="round" stroke-linejoin="round"/>
<path d="M335.576 180.864C331.58 182.512 325.136 183.975 320.756 185.853C330.056 194.7 342.86 200.172 356.996 200.172C371.048 200.172 383.768 194.769 393.068 186.014C391.94 185.449 390.308 184.827 387.8 184.159C380.096 182.109 369.164 176.095 367.88 174.045C366.596 171.994 365.324 164.783 365.324 164.783L347.528 162.479C347.528 162.479 348.404 171.418 348.404 173.065C348.404 174.713 341.564 178.399 335.576 180.864Z" fill="white" stroke="#263238" stroke-miterlimit="10" stroke-linecap="round" stroke-linejoin="round"/>
<path d="M342.968 142.629C342.968 142.629 344.408 132.238 347.78 126.708C351.14 121.167 358.364 122.78 361.244 124.635C364.124 126.478 368.696 136.408 371.336 142.871C373.976 149.334 375.188 153.032 375.188 153.032C375.188 153.032 371 161.43 365.336 164.805C359.288 168.399 352.712 168.261 347.54 162.501C344.648 159.276 343.208 155.808 343.208 155.808C343.208 155.808 337.196 153.965 335.756 149.115C334.316 144.265 335.516 141.731 337.916 141.039C340.316 140.314 342.968 142.629 342.968 142.629Z" fill="white" stroke="#263238" stroke-miterlimit="10" stroke-linecap="round" stroke-linejoin="round"/>
<path d="M361.712 139.161C361.712 139.161 361.472 142.629 363.392 145.163C365.312 147.697 363.632 150.474 360.272 149.783" stroke="#263238" stroke-miterlimit="10" stroke-linecap="round" stroke-linejoin="round"/>
<path d="M363.404 153.93C363.404 153.93 355.232 157.628 351.38 150.232" stroke="#263238" stroke-miterlimit="10" stroke-linecap="round" stroke-linejoin="round"/>
<path d="M352.82 142.86C352.82 143.885 353.252 144.703 353.78 144.703C354.308 144.703 354.74 143.874 354.74 142.86C354.74 141.835 354.308 141.017 353.78 141.017C353.252 141.017 352.82 141.835 352.82 142.86Z" fill="#263238"/>
<path d="M364.604 142.86C364.604 143.885 365.036 144.703 365.564 144.703C366.092 144.703 366.524 143.874 366.524 142.86C366.524 141.835 366.092 141.017 365.564 141.017C365.036 141.005 364.604 141.835 364.604 142.86Z" fill="#263238"/>
<path d="M355.7 134.772C355.7 134.772 353.06 132.929 350.168 135.463" stroke="#263238" stroke-miterlimit="10" stroke-linecap="round" stroke-linejoin="round"/>
<path d="M362.672 135.233C362.672 135.233 364.592 133.159 367.244 134.311" stroke="#263238" stroke-miterlimit="10" stroke-linecap="round" stroke-linejoin="round"/>
<path d="M376.412 179.597L357.764 196.566L339.692 179.032C338.336 179.677 336.932 180.299 335.576 180.864C331.58 182.511 325.136 183.974 320.756 185.852C330.056 194.699 342.86 200.171 356.996 200.171C371.048 200.171 383.768 194.769 393.068 186.013C391.94 185.449 390.308 184.827 387.8 184.159C384.26 183.214 380.06 181.44 376.412 179.597Z" fill="#54B848" stroke="#263238" stroke-miterlimit="10"/>
<path d="M256.256 79.2695H95.4438V306.847H256.256V79.2695Z" stroke="#263238" stroke-miterlimit="10"/>
<path d="M118.436 216.115H226.964" stroke="#263238" stroke-miterlimit="10"/>
<path d="M118.436 226.714H226.964" stroke="#263238" stroke-miterlimit="10"/>
<path d="M131.66 244.547H226.964" stroke="#263238" stroke-miterlimit="10"/>
<path d="M126.428 240.63H120.044V246.759H126.428V240.63Z" fill="#54B848"/>
<path d="M131.66 257.922H226.964" stroke="#263238" stroke-miterlimit="10"/>
<path d="M126.428 254.017H120.044V260.145H126.428V254.017Z" fill="#54B848"/>
<path d="M131.66 271.297H226.964" stroke="#263238" stroke-miterlimit="10"/>
<path d="M126.428 267.392H120.044V273.52H126.428V267.392Z" fill="#54B848"/>
<path d="M131.66 284.671H226.964" stroke="#263238" stroke-miterlimit="10"/>
<path d="M126.428 280.766H120.044V286.894H126.428V280.766Z" fill="#54B848"/>
<path d="M171.788 200.172C200.233 200.172 223.292 178.035 223.292 150.728C223.292 123.421 200.233 101.284 171.788 101.284C143.343 101.284 120.284 123.421 120.284 150.728C120.284 178.035 143.343 200.172 171.788 200.172Z" fill="white" stroke="#263238" stroke-miterlimit="10"/>
<path d="M144.98 172.432L132.14 182.293C141.584 193.214 155.84 200.172 171.788 200.172C187.376 200.172 201.332 193.513 210.776 183.019L191.252 170.796L144.98 172.432Z" fill="#263238" stroke="#263238" stroke-miterlimit="10" stroke-linecap="round" stroke-linejoin="round"/>
<path d="M161.096 158.469C161.096 158.469 149.768 159.874 146.624 164.309C143.48 168.733 141.176 172.961 143.48 175.587C145.784 178.202 152.288 183.847 156.068 186.255C159.848 188.663 165.728 196.934 165.728 196.934C165.728 196.934 166.544 190.886 166.544 186.451C166.544 182.027 162.56 177.189 161.72 173.168C160.88 169.136 167.804 162.697 172.628 164.713C177.452 166.729 181.232 172.765 181.016 175.587C180.812 178.41 181.856 181.831 182.9 186.658C183.944 191.485 184.784 195.632 184.784 195.632C184.784 195.632 191.912 188.674 194.216 181.221C196.52 173.767 195.476 166.118 186.872 161.084C178.292 156.05 161.096 158.469 161.096 158.469Z" fill="#54B848" stroke="#263238" stroke-miterlimit="10" stroke-linecap="round" stroke-linejoin="round"/>
<path d="M190.604 163.837C189.56 162.858 188.348 161.925 186.896 161.072C178.292 156.038 161.096 158.457 161.096 158.457C161.096 158.457 149.768 159.862 146.624 164.298C146.252 164.816 145.904 165.323 145.568 165.83C145.196 167.996 145.544 170.611 147.464 173.548C152.168 180.737 161.912 184.17 166.532 186.174C166.376 181.82 162.548 177.096 161.72 173.145C160.88 169.113 167.804 162.673 172.628 164.689C177.452 166.705 181.232 172.742 181.016 175.564C180.812 178.387 181.856 181.808 182.9 186.635C182.96 186.911 183.02 187.211 183.08 187.499C183.44 187.165 183.8 186.819 184.16 186.428C189.608 180.587 191.288 174.147 191.288 168.514C191.3 166.867 191.036 165.288 190.604 163.837Z" fill="white" stroke="#263238" stroke-miterlimit="10" stroke-linecap="round" stroke-linejoin="round"/>
<path d="M159.212 150.612C159.212 150.612 160.472 165.104 160.892 169.136C161.312 173.168 163.616 183.433 170.744 185.449C177.872 187.465 182.072 179.608 181.016 173.767C179.972 167.927 178.076 162.489 178.076 160.485C178.076 158.469 177.872 157.87 177.872 157.87L159.212 150.612Z" fill="white" stroke="#263238" stroke-miterlimit="10" stroke-linecap="round" stroke-linejoin="round"/>
<path d="M177.872 157.858L159.212 150.612C159.212 150.612 160.172 161.637 160.688 167.132L178.076 160.093C178.052 158.4 177.872 157.858 177.872 157.858Z" fill="#263238" stroke="#263238" stroke-miterlimit="10" stroke-linecap="round" stroke-linejoin="round"/>
<path d="M182.3 123.472C182.3 123.472 185.648 141.166 185.648 144.38C185.648 147.594 182.576 156.983 181.184 159.126C179.792 161.269 172.808 162.617 170.012 161.534C167.216 160.462 159.404 153.493 157.724 150.544C156.044 147.594 155.492 144.91 155.492 144.91C155.492 144.91 151.58 146.523 148.508 142.226C145.436 137.941 147.116 133.909 150.188 133.644L152.984 134.45C152.984 134.45 147.956 126.133 149.636 122.389C151.316 118.633 171.428 117.297 175.616 117.297C179.78 117.308 182.3 123.472 182.3 123.472Z" fill="white" stroke="#263238" stroke-miterlimit="10" stroke-linecap="round" stroke-linejoin="round"/>
<path d="M167.024 127.826L162.572 129.715C161.924 129.992 161.66 130.74 161.996 131.34L162.164 131.628C162.488 132.18 163.208 132.388 163.796 132.1L168.092 129.923C168.692 129.612 168.92 128.897 168.584 128.321C168.272 127.803 167.6 127.584 167.024 127.826Z" fill="#263238" stroke="#263238" stroke-miterlimit="10" stroke-linecap="round" stroke-linejoin="round"/>
<path d="M175.304 126.894L175.28 126.963C175.136 127.481 175.472 128.011 176.012 128.138L179.444 128.886C180.056 129.025 180.644 128.575 180.644 127.965C180.644 127.527 180.332 127.147 179.9 127.043L176.48 126.225C175.976 126.099 175.448 126.398 175.304 126.894Z" fill="#263238" stroke="#263238" stroke-miterlimit="10" stroke-linecap="round" stroke-linejoin="round"/>
<path d="M184.472 150.29C184.472 150.29 183.92 144.173 182.648 143.297C181.376 142.422 171.908 143.125 171.908 143.125C171.908 143.125 162.26 140.498 162.08 142.606C161.948 144.15 162.368 152.329 162.776 156.154C165.476 158.631 168.476 160.969 170 161.545C172.796 162.617 179.78 161.28 181.172 159.137C182.012 157.847 183.452 153.942 184.472 150.336C184.472 150.313 184.472 150.29 184.472 150.29ZM182.288 151.338C181.196 154.829 178.832 156.926 177.74 156.407C176.648 155.877 175.736 152.56 174.824 152.214C173.912 151.868 173.18 153.608 172.088 155.186C170.996 156.764 168.08 157.283 166.808 156.234C165.536 155.186 164.072 145.578 164.072 144.357C164.072 143.136 177.356 145.06 177.356 145.06C177.356 145.06 180.632 144.714 181.544 144.887C182.468 145.049 183.38 147.848 182.288 151.338Z" fill="#808080" stroke="#545454" stroke-miterlimit="10" stroke-linecap="round" stroke-linejoin="round"/>
<path d="M166.268 145.222C166.268 145.222 171.548 148.712 177.188 147.491" stroke="#263238" stroke-miterlimit="10" stroke-linecap="round" stroke-linejoin="round"/>
<path d="M174.284 130.545C174.284 130.545 176.828 141.201 177.02 142.076C177.2 142.952 175.196 145.751 173.012 144.173C170.828 142.595 170.468 141.028 170.468 141.028" fill="white"/>
<path d="M174.284 130.545C174.284 130.545 176.828 141.201 177.02 142.076C177.2 142.952 175.196 145.751 173.012 144.173C170.828 142.595 170.468 141.028 170.468 141.028" stroke="#263238" stroke-miterlimit="10" stroke-linecap="round" stroke-linejoin="round"/>
<path d="M168.608 135.729C168.896 136.651 168.788 137.503 168.356 137.63C167.924 137.757 167.336 137.112 167.036 136.19C166.748 135.269 166.856 134.416 167.288 134.289C167.72 134.163 168.308 134.808 168.608 135.729Z" fill="#263238"/>
<path d="M179.372 134.301C179.492 135.257 179.216 136.075 178.772 136.132C178.328 136.179 177.86 135.441 177.752 134.485C177.632 133.529 177.908 132.711 178.352 132.653C178.796 132.607 179.252 133.345 179.372 134.301Z" fill="#263238"/>
<path d="M148.496 111.94C148.496 111.94 141.236 118.909 144.032 124.808C146.828 130.706 153.812 141.696 153.812 141.696H155.204L154.928 137.134C154.928 137.134 159.392 135.521 158.564 131.766C157.724 128.01 155.768 125.602 155.768 125.602C155.768 125.602 160.52 129.093 166.1 128.287C171.692 127.48 174.2 121.052 176.156 123.195C178.112 125.337 181.184 126.685 187.052 123.736C192.92 120.787 196.664 110.799 190.232 106.779C183.812 102.758 177.836 106.306 174.476 107.113C171.128 107.919 168.608 102.551 161.072 104.705C153.524 106.848 148.496 111.94 148.496 111.94Z" fill="#263238" stroke="#263238" stroke-miterlimit="10" stroke-linecap="round" stroke-linejoin="round"/>
<path d="M221.861 271.256C231.413 269.774 237.906 261.139 236.362 251.969C234.819 242.799 225.824 236.566 216.272 238.048C206.72 239.529 200.228 248.164 201.771 257.334C203.314 266.504 212.309 272.737 221.861 271.256Z" stroke="#263238" stroke-width="2" stroke-miterlimit="10"/>
<path d="M228.872 269.453L247.796 293.68" stroke="#263238" stroke-width="3" stroke-miterlimit="10"/>
<path d="M198.224 242.048C198.224 242.048 199.4 245.446 199.208 248.833C199.016 252.231 199.4 257.127 200.384 257.876C201.368 258.625 204.116 260.514 203.324 262.023C202.544 263.532 200.768 264.281 200.768 264.281C200.768 264.281 199.784 269.177 197.828 272.76C195.86 276.343 194.492 278.796 192.128 278.981C189.764 279.165 188.396 278.6 188.396 278.6L185.84 281.054L166.4 277.091L166.988 268.797C166.988 268.797 161.096 259.178 161.096 249.386C161.096 239.582 171.5 233.926 177.584 233.557C183.692 233.189 195.08 235.642 198.224 242.048Z" fill="white" stroke="#263238" stroke-miterlimit="10"/>
<path d="M203.324 237.335C203.324 237.335 203.72 239.789 201.752 242.612C199.784 245.434 194.492 246.379 194.492 246.379C194.492 246.379 194.3 250.526 193.112 252.219C191.936 253.913 189.188 255.237 189.188 255.237C189.188 255.237 185.264 255.618 186.44 259.765C187.616 263.912 188.6 264.477 186.632 267.875C184.664 271.273 173.084 275.789 169.16 273.151C165.236 270.513 162.284 269.188 159.932 261.274C157.58 253.36 155.216 242.231 161.9 234.697C168.572 227.163 183.692 229.041 183.692 229.041C183.692 229.041 179.768 225.458 185.264 225.643C190.76 225.827 194.492 229.606 194.492 229.606C194.492 229.606 195.08 225.838 198.032 226.783C200.972 227.728 202.928 235.262 203.324 237.335Z" fill="#263238" stroke="#263238" stroke-miterlimit="10"/>
<path d="M190.76 258.071C190.76 258.071 187.424 252.035 184.868 254.304C182.312 256.562 184.868 268.635 189.188 266.366" fill="white"/>
<path d="M190.76 258.071C190.76 258.071 187.424 252.035 184.868 254.304C182.312 256.562 184.868 268.635 189.188 266.366" stroke="#263238" stroke-miterlimit="10"/>
<path d="M189.188 255.249H205.088" stroke="#263238" stroke-miterlimit="10"/>
<path d="M198.536 251.482C199.508 251.09 200.624 250.975 201.8 251.263C203.552 251.689 204.956 253.083 205.364 254.788C205.844 256.816 204.992 258.694 203.48 259.776" stroke="#263238" stroke-miterlimit="10"/>
<path d="M190.292 286.572C190.292 286.572 190.292 282.355 184.532 279.199C178.772 276.042 167.252 271.826 162.044 272.356C156.836 272.886 153.812 279.994 153.812 279.994C153.812 279.994 174.38 281.837 179.324 282.885C184.256 283.945 190.292 286.572 190.292 286.572Z" fill="white" stroke="#263238" stroke-miterlimit="10"/>
<path d="M104.168 313.955C104.168 313.955 97.5799 321.328 88.8079 331.857C80.0359 342.386 72.8959 353.181 72.8959 353.181C72.8959 353.181 64.6639 360.024 63.5719 362.927C62.4799 365.818 59.7319 374.251 58.6399 376.612C57.5479 378.985 62.4799 375.817 63.3079 373.974C64.1359 372.131 64.9519 370.818 64.9519 370.818L72.0799 367.661C72.0799 367.661 69.8839 372.926 72.0799 373.721C74.2759 374.516 74.5519 370.829 77.0119 367.926C79.4839 365.035 81.6799 362.927 81.9439 359.505C82.2199 356.084 81.9439 352.397 81.9439 352.397L117.044 330.544L104.168 313.955Z" fill="white" stroke="#263238" stroke-miterlimit="10"/>
<path d="M64.9521 370.829L68.2041 366.14C68.2041 366.14 70.4722 365.564 72.5962 364.251C74.7202 362.938 75.7761 361.486 75.7761 361.486" stroke="#263238" stroke-miterlimit="10"/>
<path d="M223.364 303.633L232.256 285.685C232.256 285.685 233.792 278.773 234.404 277.736C235.016 276.711 238.7 271.112 240.08 270.974C241.46 270.824 242.84 271.412 242.996 272.587C243.152 273.762 242.54 274.649 242.54 274.649C242.54 274.649 244.532 275.536 246.068 277.448C247.604 279.361 247.604 280.835 247.904 282.01C248.216 283.185 249.284 283.335 248.06 285.835C246.836 288.335 244.844 289.072 243.764 289.809C242.684 290.547 240.092 291.722 240.092 291.722C240.092 291.722 239.936 308.645 237.788 315.257C235.64 321.881 234.116 324.081 234.116 324.081C234.116 324.081 230.444 312.02 228.296 309.67C226.124 307.308 223.364 303.633 223.364 303.633Z" fill="white" stroke="#263238" stroke-miterlimit="10"/>
<path d="M116.24 352.662C116.24 352.662 104.552 381.612 102.536 388.363C100.532 395.102 95.7917 408.811 93.7757 426.206C92.5877 436.424 93.8837 447.472 93.8837 447.472C93.8837 447.472 89.8757 454.856 85.5197 466.088C81.1757 477.32 66.4277 533.031 66.4277 533.031C66.4277 533.031 69.1037 536.878 75.1277 535.922C81.1517 534.955 81.1517 534.955 81.1517 534.955C81.1517 534.955 83.1557 535.277 85.4957 534.632C87.8357 533.987 93.1877 534.309 93.5237 532.063C93.8597 529.817 92.1917 529.171 90.1757 526.925C88.1717 524.679 85.1597 517.617 85.1597 517.617C85.1597 517.617 101.876 489.485 107.9 479.209C113.924 468.933 122.312 449.707 122.648 446.815C122.984 443.923 139.688 401.472 139.688 401.472H143.372L169.772 443.889C169.772 443.889 168.764 460.904 171.776 470.857C174.788 480.811 181.808 518.377 181.808 518.377L181.136 525.116C181.136 525.116 182.468 528.331 182.468 529.287C182.468 530.254 182.468 532.823 182.468 532.823C182.468 532.823 183.476 535.07 190.16 535.07C193.172 535.07 203.204 534.102 204.872 533.791C206.54 533.468 219.248 533.146 219.584 531.545C219.92 529.943 220.256 528.653 218.252 528.008C216.248 527.363 201.86 520.946 201.86 520.946V515.163C201.86 515.163 199.184 513.239 198.512 511.315C197.84 509.392 199.184 457.701 198.512 448.716C197.84 439.73 198.848 439.73 196.172 431.701C193.496 423.671 182.876 367.408 182.876 367.408L177.464 358.457L120.608 347.225L116.24 352.662Z" fill="#263238" stroke="#263238" stroke-miterlimit="10"/>
<path d="M220.184 304.22C220.184 304.22 221.276 300.799 225.944 302.377C230.612 303.955 237.74 316.858 236.096 323.7C234.452 330.543 230.06 332.916 226.22 332.651C222.38 332.386 217.712 327.917 218.816 327.387C219.908 326.857 220.184 304.22 220.184 304.22Z" fill="white" stroke="#263238" stroke-miterlimit="10"/>
<path d="M118.7 301.053C118.7 301.053 116.78 301.053 114.032 300.788C111.284 300.523 107.444 305.004 105.26 307.63C103.064 310.269 100.328 311.847 102.248 317.376C104.168 322.906 109.376 330.014 117.056 330.544C124.736 331.074 129.128 327.122 129.128 327.122L118.7 301.053Z" fill="white" stroke="#263238" stroke-miterlimit="10"/>
<path d="M153.812 279.994C153.812 279.994 149.42 279.464 140.096 284.475C130.772 289.475 110.756 305.015 109.376 307.642C108.008 310.28 111.848 322.122 116.78 324.231C121.712 326.339 126.104 324.76 126.104 324.76L116.228 352.673C116.228 352.673 127.196 352.143 145.568 355.311C163.94 358.468 182.864 367.419 182.864 367.419C182.864 367.419 184.232 367.154 184.508 363.733C184.784 360.311 185.876 358.203 186.704 356.625C187.532 355.047 197.948 321.086 197.948 321.086C197.948 321.086 218.516 329.772 224 329.772C229.484 329.772 231.404 320.291 229.208 313.183C227.012 306.075 222.356 303.967 222.356 303.967C222.356 303.967 216.044 302.124 210.836 297.907C205.628 293.691 190.268 286.583 190.268 286.583C190.268 286.583 168.344 277.621 153.812 279.994Z" fill="#54B848" stroke="#263238" stroke-miterlimit="10"/>
<path d="M190.016 315.544L197.96 321.062L187.544 318.7" stroke="#263238" stroke-miterlimit="10"/>
<path d="M135.38 296.916L136.808 292.631" stroke="#263238" stroke-miterlimit="10"/>
<path d="M126.104 324.749L134.012 301.041" stroke="#263238" stroke-miterlimit="10"/>
</svg>
